<svg xmlns="http://www.w3.org/2000/svg" xmlns:xlink="http://www.w3.org/1999/xlink" viewBox="0 0 500 500"><defs><clipPath id="freepik--clip-path--inject-215"><rect x="129.37" y="84.27" width="298.75" height="298.55" style="fill:#fff;stroke:#263238;stroke-linecap:round;stroke-linejoin:round"></rect></clipPath></defs><g id="freepik--background-simple--inject-215"><path d="M461.39,243.09q-.52-1.17-1-2.37c-11.66-30.51.28-62.1,3-93,8.75-99.36-106.48-150.3-190.65-135A146.94,146.94,0,0,0,209.15,41.4C191.59,55.23,177.06,73,156.55,82.83c-46.42,22.23-111.48,23.76-118.23,87.42C34.64,205,58.69,234.9,54.79,269c-4.51,39.45-32.72,73.88-28.58,115.16C30.05,422.41,63.69,456,97.61,470c25.24,10.41,53.46,13.26,80.33,9.23,27.75-4.16,50-18.72,73-34,24.76-16.53,47.84-26.94,77.54-29.47,21-1.79,42.22-1.4,63.28-3,27.59-2.11,58-9.61,75.4-32.93,20.86-27.88,23.06-72.3,12.52-104.63C475.77,263.2,466.43,254.25,461.39,243.09Z" style="fill:#92E3A9"></path><path d="M461.39,243.09q-.52-1.17-1-2.37c-11.66-30.51.28-62.1,3-93,8.75-99.36-106.48-150.3-190.65-135A146.94,146.94,0,0,0,209.15,41.4C191.59,55.23,177.06,73,156.55,82.83c-46.42,22.23-111.48,23.76-118.23,87.42C34.64,205,58.69,234.9,54.79,269c-4.51,39.45-32.72,73.88-28.58,115.16C30.05,422.41,63.69,456,97.61,470c25.24,10.41,53.46,13.26,80.33,9.23,27.75-4.16,50-18.72,73-34,24.76-16.53,47.84-26.94,77.54-29.47,21-1.79,42.22-1.4,63.28-3,27.59-2.11,58-9.61,75.4-32.93,20.86-27.88,23.06-72.3,12.52-104.63C475.77,263.2,466.43,254.25,461.39,243.09Z" style="fill:#fff;opacity:0.7000000000000001"></path></g><g id="freepik--Codes--inject-215"><g style="opacity:0.1"><path d="M212.6,394.79h-2.79a.69.69,0,0,1-.69-.69.68.68,0,0,1,.69-.68h2.79a.67.67,0,0,1,.68.68A.68.68,0,0,1,212.6,394.79Zm.68,2.5a.68.68,0,0,0-.68-.69h-2.79a.69.69,0,0,0,0,1.38h2.79A.68.68,0,0,0,213.28,397.29Zm0,3.19a.68.68,0,0,0-.68-.69h-2.79a.69.69,0,0,0,0,1.38h2.79A.68.68,0,0,0,213.28,400.48Zm0,3.19a.68.68,0,0,0-.68-.69h-2.79a.69.69,0,0,0-.69.69.68.68,0,0,0,.69.68h2.79A.67.67,0,0,0,213.28,403.67Zm0,3.18a.67.67,0,0,0-.68-.68h-2.79a.68.68,0,0,0-.69.68.69.69,0,0,0,.69.69h2.79A.68.68,0,0,0,213.28,406.85Zm0,3.19a.68.68,0,0,0-.68-.69h-2.79a.69.69,0,0,0,0,1.38h2.79A.68.68,0,0,0,213.28,410Zm0,3.19a.68.68,0,0,0-.68-.69h-2.79a.69.69,0,0,0,0,1.38h2.79A.68.68,0,0,0,213.28,413.23Zm0,3.18a.67.67,0,0,0-.68-.68h-2.79a.69.69,0,1,0,0,1.37h2.79A.68.68,0,0,0,213.28,416.41Zm10.44-22.31a.68.68,0,0,0-.69-.68h-7.32a.68.68,0,0,0-.69.68.69.69,0,0,0,.69.69H223A.69.69,0,0,0,223.72,394.1Zm0,3.19a.69.69,0,0,0-.69-.69h-7.32a.69.69,0,1,0,0,1.38H223A.69.69,0,0,0,223.72,397.29Zm0,3.19a.69.69,0,0,0-.69-.69h-7.32a.69.69,0,0,0,0,1.38H223A.69.69,0,0,0,223.72,400.48Zm0,3.19A.69.69,0,0,0,223,403h-7.32a.69.69,0,0,0-.69.69.68.68,0,0,0,.69.68H223A.68.68,0,0,0,223.72,403.67Zm0,3.18a.68.68,0,0,0-.69-.68h-7.32a.68.68,0,0,0-.69.68.69.69,0,0,0,.69.69H223A.69.69,0,0,0,223.72,406.85Zm8.76,3.19a.69.69,0,0,0-.69-.69h-7.32a.69.69,0,0,0,0,1.38h7.32A.69.69,0,0,0,232.48,410Zm0,3.19a.69.69,0,0,0-.69-.69h-7.32a.69.69,0,0,0,0,1.38h7.32A.69.69,0,0,0,232.48,413.23Zm0,3.18a.68.68,0,0,0-.69-.68h-7.32a.69.69,0,0,0,0,1.37h7.32A.69.69,0,0,0,232.48,416.41Zm-5.54-22.31a.79.79,0,0,0-.8-.79.79.79,0,0,0-.79.79.79.79,0,0,0,.79.8A.8.8,0,0,0,226.94,394.1Zm2.39,0a.79.79,0,0,0-.8-.79.79.79,0,0,0-.79.79.79.79,0,0,0,.79.8A.8.8,0,0,0,229.33,394.1Zm2.39,0a.79.79,0,0,0-.8-.79.79.79,0,0,0-.79.79.79.79,0,0,0,.79.8A.8.8,0,0,0,231.72,394.1Zm2.39,0a.79.79,0,0,0-.8-.79.79.79,0,0,0-.79.79.79.79,0,0,0,.79.8A.8.8,0,0,0,234.11,394.1Zm2.39,0a.79.79,0,0,0-.8-.79.79.79,0,0,0-.79.79.79.79,0,0,0,.79.8A.8.8,0,0,0,236.5,394.1Zm2.39,0a.79.79,0,0,0-.8-.79.79.79,0,0,0-.79.79.79.79,0,0,0,.79.8A.8.8,0,0,0,238.89,394.1Zm-11.95,6.38a.8.8,0,0,0-.8-.8.8.8,0,0,0,0,1.6A.8.8,0,0,0,226.94,400.48Zm2.39,0a.8.8,0,0,0-.8-.8.8.8,0,0,0,0,1.6A.8.8,0,0,0,229.33,400.48Zm2.39,0a.8.8,0,0,0-.8-.8.8.8,0,0,0,0,1.6A.8.8,0,0,0,231.72,400.48Zm2.39,0a.8.8,0,0,0-.8-.8.8.8,0,0,0,0,1.6A.8.8,0,0,0,234.11,400.48Zm2.39,0a.8.8,0,0,0-.8-.8.8.8,0,0,0,0,1.6A.8.8,0,0,0,236.5,400.48Zm2.39,0a.8.8,0,0,0-.8-.8.8.8,0,0,0,0,1.6A.8.8,0,0,0,238.89,400.48Zm-3.78,9.16a.8.8,0,1,0-.8.8A.8.8,0,0,0,235.11,409.64Zm2.39,0a.8.8,0,1,0-.8.8A.8.8,0,0,0,237.5,409.64Zm2.39,0a.8.8,0,1,0-.8.8A.8.8,0,0,0,239.89,409.64Zm2.39,0a.8.8,0,1,0-.8.8A.8.8,0,0,0,242.28,409.64Zm2.39,0a.8.8,0,1,0-.8.8A.8.8,0,0,0,244.67,409.64Zm2.39,0a.8.8,0,0,0-.8-.8.8.8,0,0,0,0,1.6A.8.8,0,0,0,247.06,409.64Zm-11.95,6.58a.8.8,0,0,0-1.6,0,.8.8,0,0,0,1.6,0Zm2.39,0a.8.8,0,0,0-1.6,0,.8.8,0,0,0,1.6,0Zm2.39,0a.8.8,0,1,0-1.6,0,.8.8,0,0,0,1.6,0Zm2.39,0a.8.8,0,0,0-1.6,0,.8.8,0,0,0,1.6,0Zm2.39,0a.8.8,0,1,0-1.6,0,.8.8,0,0,0,1.6,0Zm2.39,0a.8.8,0,0,0-.8-.8.79.79,0,0,0-.79.8.79.79,0,0,0,.79.79A.79.79,0,0,0,247.06,416.22Z"></path><path d="M212.6,420.91h-2.79a.69.69,0,0,1-.69-.69.68.68,0,0,1,.69-.68h2.79a.67.67,0,0,1,.68.68A.68.68,0,0,1,212.6,420.91Zm.68,2.5a.68.68,0,0,0-.68-.69h-2.79a.69.69,0,0,0,0,1.38h2.79A.68.68,0,0,0,213.28,423.41Zm0,3.19a.68.68,0,0,0-.68-.69h-2.79a.69.69,0,0,0,0,1.38h2.79A.68.68,0,0,0,213.28,426.6Zm0,3.19a.68.68,0,0,0-.68-.69h-2.79a.69.69,0,0,0-.69.69.68.68,0,0,0,.69.68h2.79A.67.67,0,0,0,213.28,429.79Zm0,3.18a.67.67,0,0,0-.68-.68h-2.79a.68.68,0,0,0-.69.68.69.69,0,0,0,.69.69h2.79A.68.68,0,0,0,213.28,433Zm0,3.19a.68.68,0,0,0-.68-.69h-2.79a.69.69,0,0,0,0,1.38h2.79A.68.68,0,0,0,213.28,436.16Zm0,3.19a.68.68,0,0,0-.68-.69h-2.79a.69.69,0,0,0,0,1.38h2.79A.68.68,0,0,0,213.28,439.35Zm0,3.19a.68.68,0,0,0-.68-.69h-2.79a.69.69,0,0,0-.69.69.68.68,0,0,0,.69.68h2.79A.67.67,0,0,0,213.28,442.54Zm10.44-22.32a.68.68,0,0,0-.69-.68h-7.32a.68.68,0,0,0-.69.68.69.69,0,0,0,.69.69H223A.69.69,0,0,0,223.72,420.22Zm0,3.19a.69.69,0,0,0-.69-.69h-7.32a.69.69,0,1,0,0,1.38H223A.69.69,0,0,0,223.72,423.41Zm0,3.19a.69.69,0,0,0-.69-.69h-7.32a.69.69,0,0,0,0,1.38H223A.69.69,0,0,0,223.72,426.6Zm0,3.19a.69.69,0,0,0-.69-.69h-7.32a.69.69,0,0,0-.69.69.68.68,0,0,0,.69.68H223A.68.68,0,0,0,223.72,429.79Zm0,3.18a.68.68,0,0,0-.69-.68h-7.32a.68.68,0,0,0-.69.68.69.69,0,0,0,.69.69H223A.69.69,0,0,0,223.72,433Zm8.76,3.19a.69.69,0,0,0-.69-.69h-7.32a.69.69,0,0,0,0,1.38h7.32A.69.69,0,0,0,232.48,436.16Zm0,3.19a.69.69,0,0,0-.69-.69h-7.32a.69.69,0,0,0,0,1.38h7.32A.69.69,0,0,0,232.48,439.35Zm0,3.19a.69.69,0,0,0-.69-.69h-7.32a.68.68,0,0,0-.68.69.67.67,0,0,0,.68.68h7.32A.68.68,0,0,0,232.48,442.54Zm-5.54-22.32a.79.79,0,0,0-.8-.79.79.79,0,0,0-.79.79.79.79,0,0,0,.79.8A.8.8,0,0,0,226.94,420.22Zm2.39,0a.79.79,0,0,0-.8-.79.79.79,0,0,0-.79.79.79.79,0,0,0,.79.8A.8.8,0,0,0,229.33,420.22Zm2.39,0a.79.79,0,0,0-.8-.79.79.79,0,0,0-.79.79.79.79,0,0,0,.79.8A.8.8,0,0,0,231.72,420.22Zm2.39,0a.79.79,0,0,0-.8-.79.79.79,0,0,0-.79.79.79.79,0,0,0,.79.8A.8.8,0,0,0,234.11,420.22Zm2.39,0a.79.79,0,0,0-.8-.79.79.79,0,0,0-.79.79.79.79,0,0,0,.79.8A.8.8,0,0,0,236.5,420.22Zm2.39,0a.79.79,0,0,0-.8-.79.79.79,0,0,0-.79.79.79.79,0,0,0,.79.8A.8.8,0,0,0,238.89,420.22Zm-11.95,6.38a.8.8,0,0,0-.8-.8.8.8,0,0,0,0,1.6A.8.8,0,0,0,226.94,426.6Zm2.39,0a.8.8,0,0,0-.8-.8.8.8,0,0,0,0,1.6A.8.8,0,0,0,229.33,426.6Zm2.39,0a.8.8,0,0,0-.8-.8.8.8,0,0,0,0,1.6A.8.8,0,0,0,231.72,426.6Zm2.39,0a.8.8,0,0,0-.8-.8.8.8,0,0,0,0,1.6A.8.8,0,0,0,234.11,426.6Zm2.39,0a.8.8,0,0,0-.8-.8.8.8,0,0,0,0,1.6A.8.8,0,0,0,236.5,426.6Zm2.39,0a.8.8,0,0,0-.8-.8.8.8,0,0,0,0,1.6A.8.8,0,0,0,238.89,426.6Zm-3.78,9.16a.8.8,0,0,0-1.6,0,.8.8,0,0,0,1.6,0Zm2.39,0a.8.8,0,0,0-1.6,0,.8.8,0,0,0,1.6,0Zm2.39,0a.8.8,0,0,0-1.6,0,.8.8,0,1,0,1.6,0Zm2.39,0a.8.8,0,0,0-1.6,0,.8.8,0,0,0,1.6,0Zm2.39,0a.8.8,0,0,0-1.6,0,.8.8,0,1,0,1.6,0Zm2.39,0a.79.79,0,0,0-.8-.79.79.79,0,0,0-.79.79.79.79,0,0,0,.79.8A.8.8,0,0,0,247.06,435.76Zm-11.95,6.58a.8.8,0,1,0-1.6,0,.8.8,0,0,0,1.6,0Zm2.39,0a.8.8,0,1,0-1.6,0,.8.8,0,0,0,1.6,0Zm2.39,0a.8.8,0,0,0-1.6,0,.8.8,0,0,0,1.6,0Zm2.39,0a.8.8,0,1,0-1.6,0,.8.8,0,0,0,1.6,0Zm2.39,0a.8.8,0,0,0-1.6,0,.8.8,0,0,0,1.6,0Zm2.39,0a.8.8,0,0,0-.8-.8.79.79,0,0,0-.79.8.79.79,0,0,0,.79.79A.79.79,0,0,0,247.06,442.34Z"></path><path d="M254.12,410.24h-2.79a.68.68,0,0,1-.69-.68.69.69,0,0,1,.69-.69h2.79a.69.69,0,0,1,.69.69A.68.68,0,0,1,254.12,410.24Zm.69,2.5a.69.69,0,0,0-.69-.69h-2.79a.69.69,0,0,0,0,1.38h2.79A.69.69,0,0,0,254.81,412.74Zm0,3.19a.69.69,0,0,0-.69-.69h-2.79a.69.69,0,0,0,0,1.38h2.79A.69.69,0,0,0,254.81,415.93Zm0,3.19a.69.69,0,0,0-.69-.69h-2.79a.69.69,0,0,0-.69.69.68.68,0,0,0,.69.68h2.79A.68.68,0,0,0,254.81,419.12Zm0,3.18a.68.68,0,0,0-.69-.68h-2.79a.68.68,0,0,0-.69.68.69.69,0,0,0,.69.69h2.79A.69.69,0,0,0,254.81,422.3Zm0,3.19a.69.69,0,0,0-.69-.69h-2.79a.69.69,0,0,0,0,1.38h2.79A.69.69,0,0,0,254.81,425.49Zm0,3.19a.69.69,0,0,0-.69-.69h-2.79a.69.69,0,0,0,0,1.38h2.79A.69.69,0,0,0,254.81,428.68Zm0,3.19a.69.69,0,0,0-.69-.69h-2.79a.69.69,0,0,0-.69.69.68.68,0,0,0,.69.68h2.79A.68.68,0,0,0,254.81,431.87Zm10.43-22.31a.69.69,0,0,0-.69-.69h-7.32a.69.69,0,0,0-.69.69.68.68,0,0,0,.69.68h7.32A.68.68,0,0,0,265.24,409.56Zm0,3.18a.69.69,0,0,0-.69-.69h-7.32a.69.69,0,0,0,0,1.38h7.32A.69.69,0,0,0,265.24,412.74Zm0,3.19a.69.69,0,0,0-.69-.69h-7.32a.69.69,0,1,0,0,1.38h7.32A.69.69,0,0,0,265.24,415.93Zm0,3.19a.69.69,0,0,0-.69-.69h-7.32a.69.69,0,0,0-.69.69.68.68,0,0,0,.69.68h7.32A.68.68,0,0,0,265.24,419.12Zm0,3.18a.68.68,0,0,0-.69-.68h-7.32a.68.68,0,0,0-.69.68.69.69,0,0,0,.69.69h7.32A.69.69,0,0,0,265.24,422.3Zm8.76,3.19a.68.68,0,0,0-.68-.69H266a.69.69,0,0,0,0,1.38h7.32A.68.68,0,0,0,274,425.49Zm0,3.19a.68.68,0,0,0-.68-.69H266a.69.69,0,1,0,0,1.38h7.32A.68.68,0,0,0,274,428.68Zm0,3.19a.68.68,0,0,0-.68-.69H266a.69.69,0,0,0-.69.69.68.68,0,0,0,.69.68h7.32A.67.67,0,0,0,274,431.87Zm-5.54-22.31a.8.8,0,0,0-.8-.8.79.79,0,0,0-.79.8.79.79,0,0,0,.79.79A.79.79,0,0,0,268.46,409.56Zm2.39,0a.8.8,0,0,0-.8-.8.79.79,0,0,0-.79.8.79.79,0,0,0,.79.79A.79.79,0,0,0,270.85,409.56Zm2.39,0a.79.79,0,0,0-.79-.8.8.8,0,0,0-.8.8.79.79,0,0,0,.8.79A.79.79,0,0,0,273.24,409.56Zm2.39,0a.79.79,0,0,0-.79-.8.8.8,0,0,0-.8.8.79.79,0,0,0,.8.79A.79.79,0,0,0,275.63,409.56Zm2.39,0a.79.79,0,0,0-.79-.8.8.8,0,0,0-.8.8.79.79,0,0,0,.8.79A.79.79,0,0,0,278,409.56Zm2.39,0a.79.79,0,0,0-.79-.8.8.8,0,0,0-.8.8.79.79,0,0,0,.8.79A.79.79,0,0,0,280.41,409.56Zm-12,6.37a.8.8,0,0,0-.8-.8.8.8,0,0,0,0,1.6A.8.8,0,0,0,268.46,415.93Zm2.39,0a.8.8,0,0,0-.8-.8.8.8,0,0,0,0,1.6A.8.8,0,0,0,270.85,415.93Zm2.39,0a.79.79,0,0,0-.79-.8.8.8,0,0,0,0,1.6A.79.79,0,0,0,273.24,415.93Zm2.39,0a.79.79,0,0,0-.79-.8.8.8,0,0,0,0,1.6A.79.79,0,0,0,275.63,415.93Zm2.39,0a.79.79,0,0,0-.79-.8.8.8,0,0,0,0,1.6A.79.79,0,0,0,278,415.93Zm2.39,0a.79.79,0,0,0-.79-.8.8.8,0,0,0,0,1.6A.79.79,0,0,0,280.41,415.93Zm-3.78,9.16a.8.8,0,0,0-1.6,0,.8.8,0,0,0,1.6,0Zm2.39,0a.79.79,0,0,0-.8-.79.79.79,0,0,0-.79.79.79.79,0,0,0,.79.8A.8.8,0,0,0,279,425.09Zm2.39,0a.79.79,0,0,0-.8-.79.79.79,0,0,0-.79.79.79.79,0,0,0,.79.8A.8.8,0,0,0,281.41,425.09Zm2.39,0a.79.79,0,0,0-.8-.79.79.79,0,0,0-.79.79.79.79,0,0,0,.79.8A.8.8,0,0,0,283.8,425.09Zm2.39,0a.79.79,0,0,0-.8-.79.79.79,0,0,0-.79.79.79.79,0,0,0,.79.8A.8.8,0,0,0,286.19,425.09Zm2.39,0a.79.79,0,0,0-.8-.79.79.79,0,0,0-.79.79.79.79,0,0,0,.79.8A.8.8,0,0,0,288.58,425.09Zm-11.95,6.58a.8.8,0,0,0-1.6,0,.8.8,0,0,0,1.6,0Zm2.39,0a.8.8,0,0,0-.8-.8.79.79,0,0,0-.79.8.79.79,0,0,0,.79.79A.79.79,0,0,0,279,431.67Zm2.39,0a.8.8,0,0,0-.8-.8.79.79,0,0,0-.79.8.79.79,0,0,0,.79.79A.79.79,0,0,0,281.41,431.67Zm2.39,0a.8.8,0,0,0-.8-.8.79.79,0,0,0-.79.8.79.79,0,0,0,.79.79A.79.79,0,0,0,283.8,431.67Zm2.39,0a.8.8,0,0,0-.8-.8.79.79,0,0,0-.79.8.79.79,0,0,0,.79.79A.79.79,0,0,0,286.19,431.67Zm2.39,0a.8.8,0,0,0-.8-.8.79.79,0,0,0-.79.8.79.79,0,0,0,.79.79A.79.79,0,0,0,288.58,431.67Zm1.71-22.11a.69.69,0,0,0-.69-.69h-7.32a.69.69,0,0,0-.69.69.68.68,0,0,0,.69.68h7.32A.68.68,0,0,0,290.29,409.56Zm0,3.18a.69.69,0,0,0-.69-.69h-7.32a.69.69,0,0,0,0,1.38h7.32A.69.69,0,0,0,290.29,412.74Zm0,3.19a.69.69,0,0,0-.69-.69h-7.32a.69.69,0,1,0,0,1.38h7.32A.69.69,0,0,0,290.29,415.93Zm0,3.19a.69.69,0,0,0-.69-.69h-7.32a.69.69,0,0,0-.69.69.68.68,0,0,0,.69.68h7.32A.68.68,0,0,0,290.29,419.12Zm0,3.18a.68.68,0,0,0-.69-.68h-7.32a.68.68,0,0,0-.69.68.69.69,0,0,0,.69.69h7.32A.69.69,0,0,0,290.29,422.3Zm8.76,3.19a.69.69,0,0,0-.69-.69H291a.69.69,0,0,0,0,1.38h7.32A.69.69,0,0,0,299.05,425.49Zm0,3.19a.69.69,0,0,0-.69-.69H291a.69.69,0,0,0,0,1.38h7.32A.69.69,0,0,0,299.05,428.68Zm0,3.19a.69.69,0,0,0-.69-.69H291a.68.68,0,0,0-.68.69.67.67,0,0,0,.68.68h7.32A.68.68,0,0,0,299.05,431.87Zm-5.54-22.31a.8.8,0,1,0-1.6,0,.8.8,0,0,0,1.6,0Zm2.39,0a.8.8,0,0,0-.8-.8.79.79,0,0,0-.79.8.79.79,0,0,0,.79.79A.79.79,0,0,0,295.9,409.56Zm2.39,0a.8.8,0,0,0-.8-.8.79.79,0,0,0-.79.8.79.79,0,0,0,.79.79A.79.79,0,0,0,298.29,409.56Zm2.39,0a.8.8,0,0,0-.8-.8.79.79,0,0,0-.79.8.79.79,0,0,0,.79.79A.79.79,0,0,0,300.68,409.56Zm2.39,0a.8.8,0,0,0-.8-.8.79.79,0,0,0-.79.8.79.79,0,0,0,.79.79A.79.79,0,0,0,303.07,409.56Zm2.39,0a.8.8,0,0,0-.8-.8.79.79,0,0,0-.79.8.79.79,0,0,0,.79.79A.79.79,0,0,0,305.46,409.56Zm-11.95,6.37a.8.8,0,1,0-.8.8A.8.8,0,0,0,293.51,415.93Zm2.39,0a.8.8,0,0,0-.8-.8.8.8,0,0,0,0,1.6A.8.8,0,0,0,295.9,415.93Zm2.39,0a.8.8,0,0,0-.8-.8.8.8,0,0,0,0,1.6A.8.8,0,0,0,298.29,415.93Zm2.39,0a.8.8,0,0,0-.8-.8.8.8,0,0,0,0,1.6A.8.8,0,0,0,300.68,415.93Zm2.39,0a.8.8,0,0,0-.8-.8.8.8,0,0,0,0,1.6A.8.8,0,0,0,303.07,415.93Zm2.39,0a.8.8,0,0,0-.8-.8.8.8,0,0,0,0,1.6A.8.8,0,0,0,305.46,415.93Zm-3.78,9.16a.8.8,0,0,0-1.6,0,.8.8,0,1,0,1.6,0Zm2.39,0a.8.8,0,0,0-1.6,0,.8.8,0,1,0,1.6,0Zm2.39,0a.8.8,0,0,0-1.6,0,.8.8,0,1,0,1.6,0Zm2.39,0a.8.8,0,0,0-1.6,0,.8.8,0,0,0,1.6,0Zm2.39,0a.8.8,0,0,0-1.6,0,.8.8,0,0,0,1.6,0Zm2.39,0a.8.8,0,0,0-1.6,0,.8.8,0,0,0,1.6,0Zm-11.95,6.58a.8.8,0,1,0-1.6,0,.8.8,0,0,0,1.6,0Zm2.39,0a.8.8,0,0,0-1.6,0,.8.8,0,0,0,1.6,0Zm2.39,0a.8.8,0,0,0-1.6,0,.8.8,0,0,0,1.6,0Zm2.39,0a.8.8,0,0,0-1.6,0,.8.8,0,0,0,1.6,0Zm2.39,0a.8.8,0,0,0-1.6,0,.8.8,0,0,0,1.6,0Zm2.39,0a.8.8,0,0,0-1.6,0,.8.8,0,0,0,1.6,0Zm1.7-22.11a.68.68,0,0,0-.68-.69h-7.32a.69.69,0,0,0-.69.69.68.68,0,0,0,.69.68h7.32A.67.67,0,0,0,315.33,409.56Zm0,3.18a.68.68,0,0,0-.68-.69h-7.32a.69.69,0,0,0,0,1.38h7.32A.68.68,0,0,0,315.33,412.74Zm0,3.19a.68.68,0,0,0-.68-.69h-7.32a.69.69,0,0,0,0,1.38h7.32A.68.68,0,0,0,315.33,415.93Zm0,3.19a.68.68,0,0,0-.68-.69h-7.32a.69.69,0,0,0-.69.69.68.68,0,0,0,.69.68h7.32A.67.67,0,0,0,315.33,419.12Zm0,3.18a.67.67,0,0,0-.68-.68h-7.32a.68.68,0,0,0-.69.68.69.69,0,0,0,.69.69h7.32A.68.68,0,0,0,315.33,422.3Zm8.77,3.19a.69.69,0,0,0-.69-.69h-7.32a.69.69,0,0,0,0,1.38h7.32A.69.69,0,0,0,324.1,425.49Zm0,3.19a.69.69,0,0,0-.69-.69h-7.32a.69.69,0,0,0,0,1.38h7.32A.69.69,0,0,0,324.1,428.68Zm0,3.19a.69.69,0,0,0-.69-.69h-7.32a.69.69,0,0,0-.69.69.68.68,0,0,0,.69.68h7.32A.68.68,0,0,0,324.1,431.87Zm-5.54-22.31a.8.8,0,1,0-1.6,0,.8.8,0,0,0,1.6,0Zm2.39,0a.8.8,0,1,0-1.6,0,.8.8,0,0,0,1.6,0Zm2.39,0a.8.8,0,0,0-1.6,0,.8.8,0,0,0,1.6,0Zm2.39,0a.8.8,0,0,0-1.6,0,.8.8,0,0,0,1.6,0Zm2.39,0a.8.8,0,0,0-1.6,0,.8.8,0,0,0,1.6,0Zm2.39,0a.8.8,0,1,0-1.6,0,.8.8,0,0,0,1.6,0Zm-11.95,6.37a.8.8,0,1,0-.8.8A.8.8,0,0,0,318.56,415.93Zm2.39,0a.8.8,0,1,0-.8.8A.8.8,0,0,0,321,415.93Zm2.39,0a.8.8,0,1,0-.8.8A.8.8,0,0,0,323.34,415.93Zm2.39,0a.8.8,0,1,0-.8.8A.8.8,0,0,0,325.73,415.93Zm2.39,0a.8.8,0,1,0-.8.8A.8.8,0,0,0,328.12,415.93Zm2.39,0a.8.8,0,1,0-.8.8A.8.8,0,0,0,330.51,415.93Zm-3.79,9.16a.79.79,0,0,0-.79-.79.79.79,0,0,0-.8.79.8.8,0,0,0,.8.8A.79.79,0,0,0,326.72,425.09Zm2.39,0a.79.79,0,0,0-.79-.79.79.79,0,0,0-.8.79.8.8,0,0,0,.8.8A.79.79,0,0,0,329.11,425.09Zm2.39,0a.79.79,0,0,0-.79-.79.79.79,0,0,0-.8.79.8.8,0,0,0,.8.8A.79.79,0,0,0,331.5,425.09Zm2.39,0a.79.79,0,0,0-.79-.79.79.79,0,0,0-.8.79.8.8,0,0,0,.8.8A.79.79,0,0,0,333.89,425.09Zm2.39,0a.79.79,0,0,0-.79-.79.79.79,0,0,0-.8.79.8.8,0,0,0,.8.8A.79.79,0,0,0,336.28,425.09Zm2.4,0a.8.8,0,0,0-1.6,0,.8.8,0,1,0,1.6,0Zm-12,6.58a.79.79,0,0,0-.79-.8.8.8,0,0,0-.8.8.79.79,0,0,0,.8.79A.79.79,0,0,0,326.72,431.67Zm2.39,0a.79.79,0,0,0-.79-.8.8.8,0,0,0-.8.8.79.79,0,0,0,.8.79A.79.79,0,0,0,329.11,431.67Zm2.39,0a.79.79,0,0,0-.79-.8.8.8,0,0,0-.8.8.79.79,0,0,0,.8.79A.79.79,0,0,0,331.5,431.67Zm2.39,0a.79.79,0,0,0-.79-.8.8.8,0,0,0-.8.8.79.79,0,0,0,.8.79A.79.79,0,0,0,333.89,431.67Zm2.39,0a.79.79,0,0,0-.79-.8.8.8,0,0,0-.8.8.79.79,0,0,0,.8.79A.79.79,0,0,0,336.28,431.67Zm2.4,0a.8.8,0,1,0-1.6,0,.8.8,0,0,0,1.6,0Zm1.7-22.11a.69.69,0,0,0-.69-.69h-7.32a.69.69,0,0,0-.69.69.68.68,0,0,0,.69.68h7.32A.68.68,0,0,0,340.38,409.56Zm0,3.18a.69.69,0,0,0-.69-.69h-7.32a.69.69,0,0,0,0,1.38h7.32A.69.69,0,0,0,340.38,412.74Zm0,3.19a.69.69,0,0,0-.69-.69h-7.32a.69.69,0,1,0,0,1.38h7.32A.69.69,0,0,0,340.38,415.93Zm0,3.19a.69.69,0,0,0-.69-.69h-7.32a.69.69,0,0,0-.69.69.68.68,0,0,0,.69.68h7.32A.68.68,0,0,0,340.38,419.12Zm0,3.18a.68.68,0,0,0-.69-.68h-7.32a.68.68,0,0,0-.69.68.69.69,0,0,0,.69.69h7.32A.69.69,0,0,0,340.38,422.3Zm8.77,3.19a.69.69,0,0,0-.69-.69h-7.32a.69.69,0,0,0,0,1.38h7.32A.69.69,0,0,0,349.15,425.49Zm0,3.19a.69.69,0,0,0-.69-.69h-7.32a.69.69,0,1,0,0,1.38h7.32A.69.69,0,0,0,349.15,428.68Zm0,3.19a.69.69,0,0,0-.69-.69h-7.32a.69.69,0,0,0-.69.69.68.68,0,0,0,.69.68h7.32A.68.68,0,0,0,349.15,431.87Zm-5.55-22.31a.79.79,0,0,0-.79-.8.8.8,0,0,0-.8.8.79.79,0,0,0,.8.79A.79.79,0,0,0,343.6,409.56Zm2.39,0a.79.79,0,0,0-.79-.8.8.8,0,0,0-.8.8.79.79,0,0,0,.8.79A.79.79,0,0,0,346,409.56Zm2.39,0a.79.79,0,0,0-.79-.8.8.8,0,0,0-.8.8.79.79,0,0,0,.8.79A.79.79,0,0,0,348.38,409.56Zm2.39,0a.79.79,0,0,0-.79-.8.8.8,0,0,0-.8.8.79.79,0,0,0,.8.79A.79.79,0,0,0,350.77,409.56Zm2.39,0a.79.79,0,0,0-.79-.8.8.8,0,0,0-.8.8.79.79,0,0,0,.8.79A.79.79,0,0,0,353.16,409.56Zm2.4,0a.8.8,0,1,0-1.6,0,.8.8,0,0,0,1.6,0Zm-12,6.37a.79.79,0,0,0-.79-.8.8.8,0,0,0,0,1.6A.79.79,0,0,0,343.6,415.93Zm2.39,0a.79.79,0,0,0-.79-.8.8.8,0,0,0,0,1.6A.79.79,0,0,0,346,415.93Zm2.39,0a.79.79,0,0,0-.79-.8.8.8,0,0,0,0,1.6A.79.79,0,0,0,348.38,415.93Zm2.39,0a.79.79,0,0,0-.79-.8.8.8,0,0,0,0,1.6A.79.79,0,0,0,350.77,415.93Zm2.39,0a.79.79,0,0,0-.79-.8.8.8,0,0,0,0,1.6A.79.79,0,0,0,353.16,415.93Zm2.4,0a.8.8,0,1,0-.8.8A.8.8,0,0,0,355.56,415.93Zm-3.79,9.16a.79.79,0,0,0-.8-.79.79.79,0,0,0-.79.79.79.79,0,0,0,.79.8A.8.8,0,0,0,351.77,425.09Zm2.39,0a.79.79,0,0,0-.8-.79.79.79,0,0,0-.79.79.79.79,0,0,0,.79.8A.8.8,0,0,0,354.16,425.09Zm2.39,0a.79.79,0,0,0-.8-.79.79.79,0,0,0-.79.79.79.79,0,0,0,.79.8A.8.8,0,0,0,356.55,425.09Zm2.39,0a.79.79,0,0,0-.8-.79.79.79,0,0,0-.79.79.79.79,0,0,0,.79.8A.8.8,0,0,0,358.94,425.09Zm2.39,0a.8.8,0,0,0-1.59,0,.8.8,0,1,0,1.59,0Zm2.39,0a.79.79,0,0,0-.79-.79.79.79,0,0,0-.8.79.8.8,0,0,0,.8.8A.79.79,0,0,0,363.72,425.09Zm-12,6.58a.8.8,0,0,0-.8-.8.79.79,0,0,0-.79.8.79.79,0,0,0,.79.79A.79.79,0,0,0,351.77,431.67Zm2.39,0a.8.8,0,0,0-.8-.8.79.79,0,0,0-.79.8.79.79,0,0,0,.79.79A.79.79,0,0,0,354.16,431.67Zm2.39,0a.8.8,0,0,0-.8-.8.79.79,0,0,0-.79.8.79.79,0,0,0,.79.79A.79.79,0,0,0,356.55,431.67Zm2.39,0a.8.8,0,0,0-.8-.8.79.79,0,0,0-.79.8.79.79,0,0,0,.79.79A.79.79,0,0,0,358.94,431.67Zm2.39,0a.8.8,0,1,0-.79.79A.79.79,0,0,0,361.33,431.67Zm2.39,0a.79.79,0,0,0-.79-.8.8.8,0,0,0-.8.8.79.79,0,0,0,.8.79A.79.79,0,0,0,363.72,431.67Z"></path></g><g style="opacity:0.1"><path d="M285.46,26.8h-2.79a.69.69,0,0,1-.69-.69.68.68,0,0,1,.69-.68h2.79a.68.68,0,0,1,.69.68A.69.69,0,0,1,285.46,26.8Zm.69,2.5a.69.69,0,0,0-.69-.69h-2.79a.69.69,0,1,0,0,1.38h2.79A.69.69,0,0,0,286.15,29.3Zm0,3.19a.69.69,0,0,0-.69-.69h-2.79a.69.69,0,1,0,0,1.38h2.79A.69.69,0,0,0,286.15,32.49Zm0,3.19a.69.69,0,0,0-.69-.69h-2.79a.69.69,0,0,0-.69.69.68.68,0,0,0,.69.68h2.79A.68.68,0,0,0,286.15,35.68Zm0,3.18a.68.68,0,0,0-.69-.68h-2.79a.68.68,0,0,0-.69.68.69.69,0,0,0,.69.69h2.79A.69.69,0,0,0,286.15,38.86Zm0,3.19a.69.69,0,0,0-.69-.69h-2.79a.69.69,0,1,0,0,1.38h2.79A.69.69,0,0,0,286.15,42.05Zm0,3.19a.69.69,0,0,0-.69-.69h-2.79a.69.69,0,1,0,0,1.38h2.79A.69.69,0,0,0,286.15,45.24Zm0,3.19a.69.69,0,0,0-.69-.69h-2.79a.69.69,0,0,0-.69.69.68.68,0,0,0,.69.68h2.79A.68.68,0,0,0,286.15,48.43Zm10.43-22.32a.68.68,0,0,0-.69-.68h-7.32a.68.68,0,0,0-.69.68.69.69,0,0,0,.69.69h7.32A.69.69,0,0,0,296.58,26.11Zm0,3.19a.69.69,0,0,0-.69-.69h-7.32a.69.69,0,1,0,0,1.38h7.32A.69.69,0,0,0,296.58,29.3Zm0,3.19a.69.69,0,0,0-.69-.69h-7.32a.69.69,0,1,0,0,1.38h7.32A.69.69,0,0,0,296.58,32.49Zm0,3.19a.69.69,0,0,0-.69-.69h-7.32a.69.69,0,0,0-.69.69.68.68,0,0,0,.69.68h7.32A.68.68,0,0,0,296.58,35.68Zm0,3.18a.68.68,0,0,0-.69-.68h-7.32a.68.68,0,0,0-.69.68.69.69,0,0,0,.69.69h7.32A.69.69,0,0,0,296.58,38.86Zm8.76,3.19a.68.68,0,0,0-.68-.69h-7.32a.69.69,0,1,0,0,1.38h7.32A.68.68,0,0,0,305.34,42.05Zm0,3.19a.68.68,0,0,0-.68-.69h-7.32a.69.69,0,1,0,0,1.38h7.32A.68.68,0,0,0,305.34,45.24Zm0,3.19a.68.68,0,0,0-.68-.69h-7.32a.69.69,0,0,0-.69.69.68.68,0,0,0,.69.68h7.32A.67.67,0,0,0,305.34,48.43ZM299.8,26.11a.79.79,0,0,0-.8-.79.79.79,0,0,0-.79.79.79.79,0,0,0,.79.8A.8.8,0,0,0,299.8,26.11Zm2.39,0a.79.79,0,0,0-.79-.79.79.79,0,0,0-.8.79.8.8,0,0,0,.8.8A.79.79,0,0,0,302.19,26.11Zm2.39,0a.79.79,0,0,0-.79-.79.79.79,0,0,0-.8.79.8.8,0,0,0,.8.8A.79.79,0,0,0,304.58,26.11Zm2.39,0a.79.79,0,0,0-.79-.79.79.79,0,0,0-.8.79.8.8,0,0,0,.8.8A.79.79,0,0,0,307,26.11Zm2.39,0a.79.79,0,0,0-.79-.79.79.79,0,0,0-.8.79.8.8,0,0,0,.8.8A.79.79,0,0,0,309.36,26.11Zm2.39,0a.79.79,0,0,0-.79-.79.79.79,0,0,0-.8.79.8.8,0,0,0,.8.8A.79.79,0,0,0,311.75,26.11ZM299.8,32.49a.8.8,0,0,0-.8-.8.8.8,0,0,0,0,1.6A.8.8,0,0,0,299.8,32.49Zm2.39,0a.79.79,0,0,0-.79-.8.8.8,0,0,0,0,1.6A.79.79,0,0,0,302.19,32.49Zm2.39,0a.79.79,0,0,0-.79-.8.8.8,0,0,0,0,1.6A.79.79,0,0,0,304.58,32.49Zm2.39,0a.79.79,0,0,0-.79-.8.8.8,0,0,0,0,1.6A.79.79,0,0,0,307,32.49Zm2.39,0a.79.79,0,0,0-.79-.8.8.8,0,0,0,0,1.6A.79.79,0,0,0,309.36,32.49Zm2.39,0a.79.79,0,0,0-.79-.8.8.8,0,0,0,0,1.6A.79.79,0,0,0,311.75,32.49ZM308,41.65a.79.79,0,0,0-.8-.79.79.79,0,0,0-.79.79.79.79,0,0,0,.79.8A.8.8,0,0,0,308,41.65Zm2.39,0a.79.79,0,0,0-.8-.79.79.79,0,0,0-.79.79.79.79,0,0,0,.79.8A.8.8,0,0,0,310.36,41.65Zm2.39,0a.79.79,0,0,0-.8-.79.79.79,0,0,0-.79.79.79.79,0,0,0,.79.8A.8.8,0,0,0,312.75,41.65Zm2.39,0a.79.79,0,0,0-.8-.79.79.79,0,0,0-.79.79.79.79,0,0,0,.79.8A.8.8,0,0,0,315.14,41.65Zm2.39,0a.79.79,0,0,0-.8-.79.79.79,0,0,0-.79.79.79.79,0,0,0,.79.8A.8.8,0,0,0,317.53,41.65Zm2.39,0a.79.79,0,0,0-.8-.79.79.79,0,0,0-.79.79.79.79,0,0,0,.79.8A.8.8,0,0,0,319.92,41.65ZM308,48.23a.8.8,0,0,0-.8-.8.79.79,0,0,0-.79.8.79.79,0,0,0,.79.79A.79.79,0,0,0,308,48.23Zm2.39,0a.8.8,0,0,0-.8-.8.79.79,0,0,0-.79.8.79.79,0,0,0,.79.79A.79.79,0,0,0,310.36,48.23Zm2.39,0a.8.8,0,0,0-.8-.8.79.79,0,0,0-.79.8A.79.79,0,0,0,312,49,.79.79,0,0,0,312.75,48.23Zm2.39,0a.8.8,0,0,0-.8-.8.79.79,0,0,0-.79.8.79.79,0,0,0,.79.79A.79.79,0,0,0,315.14,48.23Zm2.39,0a.8.8,0,0,0-.8-.8.79.79,0,0,0-.79.8.79.79,0,0,0,.79.79A.79.79,0,0,0,317.53,48.23Zm2.39,0a.8.8,0,0,0-.8-.8.79.79,0,0,0-.79.8.79.79,0,0,0,.79.79A.79.79,0,0,0,319.92,48.23Z"></path><path d="M285.46,52.92h-2.79a.69.69,0,1,1,0-1.37h2.79a.69.69,0,1,1,0,1.37Zm.69,2.5a.69.69,0,0,0-.69-.69h-2.79a.69.69,0,1,0,0,1.38h2.79A.69.69,0,0,0,286.15,55.42Zm0,3.19a.69.69,0,0,0-.69-.69h-2.79a.69.69,0,0,0,0,1.38h2.79A.69.69,0,0,0,286.15,58.61Zm0,3.19a.69.69,0,0,0-.69-.69h-2.79a.69.69,0,0,0-.69.69.68.68,0,0,0,.69.68h2.79A.68.68,0,0,0,286.15,61.8Zm0,3.18a.68.68,0,0,0-.69-.68h-2.79A.68.68,0,0,0,282,65a.69.69,0,0,0,.69.69h2.79A.69.69,0,0,0,286.15,65Zm0,3.19a.69.69,0,0,0-.69-.69h-2.79a.69.69,0,0,0,0,1.38h2.79A.69.69,0,0,0,286.15,68.17Zm0,3.19a.69.69,0,0,0-.69-.69h-2.79a.69.69,0,0,0,0,1.38h2.79A.69.69,0,0,0,286.15,71.36Zm0,3.19a.69.69,0,0,0-.69-.69h-2.79a.69.69,0,0,0-.69.69.68.68,0,0,0,.69.68h2.79A.68.68,0,0,0,286.15,74.55Zm10.43-22.31a.69.69,0,0,0-.69-.69h-7.32a.69.69,0,1,0,0,1.37h7.32A.68.68,0,0,0,296.58,52.24Zm0,3.18a.69.69,0,0,0-.69-.69h-7.32a.69.69,0,1,0,0,1.38h7.32A.69.69,0,0,0,296.58,55.42Zm0,3.19a.69.69,0,0,0-.69-.69h-7.32a.69.69,0,0,0,0,1.38h7.32A.69.69,0,0,0,296.58,58.61Zm0,3.19a.69.69,0,0,0-.69-.69h-7.32a.69.69,0,0,0-.69.69.68.68,0,0,0,.69.68h7.32A.68.68,0,0,0,296.58,61.8Zm0,3.18a.68.68,0,0,0-.69-.68h-7.32a.68.68,0,0,0-.69.68.69.69,0,0,0,.69.69h7.32A.69.69,0,0,0,296.58,65Zm8.76,3.19a.68.68,0,0,0-.68-.69h-7.32a.69.69,0,0,0,0,1.38h7.32A.68.68,0,0,0,305.34,68.17Zm0,3.19a.68.68,0,0,0-.68-.69h-7.32a.69.69,0,0,0,0,1.38h7.32A.68.68,0,0,0,305.34,71.36Zm0,3.19a.68.68,0,0,0-.68-.69h-7.32a.69.69,0,0,0-.69.69.68.68,0,0,0,.69.68h7.32A.67.67,0,0,0,305.34,74.55ZM299.8,52.24a.8.8,0,0,0-.8-.8.79.79,0,0,0-.79.8A.79.79,0,0,0,299,53,.79.79,0,0,0,299.8,52.24Zm2.39,0a.79.79,0,0,0-.79-.8.8.8,0,0,0-.8.8.79.79,0,0,0,.8.79A.79.79,0,0,0,302.19,52.24Zm2.39,0a.79.79,0,0,0-.79-.8.8.8,0,0,0-.8.8.79.79,0,0,0,.8.79A.79.79,0,0,0,304.58,52.24Zm2.39,0a.79.79,0,0,0-.79-.8.8.8,0,0,0-.8.8.79.79,0,0,0,.8.79A.79.79,0,0,0,307,52.24Zm2.39,0a.79.79,0,0,0-.79-.8.8.8,0,0,0-.8.8.79.79,0,0,0,.8.79A.79.79,0,0,0,309.36,52.24Zm2.39,0a.79.79,0,0,0-.79-.8.8.8,0,0,0-.8.8.79.79,0,0,0,.8.79A.79.79,0,0,0,311.75,52.24ZM299.8,58.61a.8.8,0,0,0-.8-.8.8.8,0,0,0,0,1.6A.8.8,0,0,0,299.8,58.61Zm2.39,0a.79.79,0,0,0-.79-.8.8.8,0,0,0,0,1.6A.79.79,0,0,0,302.19,58.61Zm2.39,0a.79.79,0,0,0-.79-.8.8.8,0,0,0,0,1.6A.79.79,0,0,0,304.58,58.61Zm2.39,0a.79.79,0,0,0-.79-.8.8.8,0,0,0,0,1.6A.79.79,0,0,0,307,58.61Zm2.39,0a.79.79,0,0,0-.79-.8.8.8,0,0,0,0,1.6A.79.79,0,0,0,309.36,58.61Zm2.39,0a.79.79,0,0,0-.79-.8.8.8,0,0,0,0,1.6A.79.79,0,0,0,311.75,58.61ZM308,67.77a.79.79,0,0,0-.8-.79.79.79,0,0,0-.79.79.79.79,0,0,0,.79.8A.8.8,0,0,0,308,67.77Zm2.39,0a.79.79,0,0,0-.8-.79.79.79,0,0,0-.79.79.79.79,0,0,0,.79.8A.8.8,0,0,0,310.36,67.77Zm2.39,0A.79.79,0,0,0,312,67a.79.79,0,0,0-.79.79.79.79,0,0,0,.79.8A.8.8,0,0,0,312.75,67.77Zm2.39,0a.79.79,0,0,0-.8-.79.79.79,0,0,0-.79.79.79.79,0,0,0,.79.8A.8.8,0,0,0,315.14,67.77Zm2.39,0a.79.79,0,0,0-.8-.79.79.79,0,0,0-.79.79.79.79,0,0,0,.79.8A.8.8,0,0,0,317.53,67.77Zm2.39,0a.79.79,0,0,0-.8-.79.79.79,0,0,0-.79.79.79.79,0,0,0,.79.8A.8.8,0,0,0,319.92,67.77ZM308,74.35a.8.8,0,0,0-.8-.8.79.79,0,0,0-.79.8.79.79,0,0,0,.79.79A.79.79,0,0,0,308,74.35Zm2.39,0a.8.8,0,0,0-.8-.8.79.79,0,0,0-.79.8.79.79,0,0,0,.79.79A.79.79,0,0,0,310.36,74.35Zm2.39,0a.8.8,0,0,0-.8-.8.79.79,0,0,0-.79.8.79.79,0,0,0,.79.79A.79.79,0,0,0,312.75,74.35Zm2.39,0a.8.8,0,0,0-.8-.8.79.79,0,0,0-.79.8.79.79,0,0,0,.79.79A.79.79,0,0,0,315.14,74.35Zm2.39,0a.8.8,0,0,0-.8-.8.79.79,0,0,0-.79.8.79.79,0,0,0,.79.79A.79.79,0,0,0,317.53,74.35Zm2.39,0a.8.8,0,0,0-.8-.8.79.79,0,0,0-.79.8.79.79,0,0,0,.79.79A.79.79,0,0,0,319.92,74.35Z"></path><path d="M327,42.25h-2.79a.68.68,0,0,1-.69-.68.69.69,0,0,1,.69-.69H327a.69.69,0,0,1,.69.69A.68.68,0,0,1,327,42.25Zm.69,2.5a.68.68,0,0,0-.69-.68h-2.79a.68.68,0,0,0-.69.68.69.69,0,0,0,.69.69H327A.69.69,0,0,0,327.67,44.75Zm0,3.19a.69.69,0,0,0-.69-.69h-2.79a.69.69,0,1,0,0,1.38H327A.69.69,0,0,0,327.67,47.94Zm0,3.19a.69.69,0,0,0-.69-.69h-2.79a.69.69,0,1,0,0,1.38H327A.69.69,0,0,0,327.67,51.13Zm0,3.18a.68.68,0,0,0-.69-.68h-2.79a.68.68,0,0,0-.69.68.69.69,0,0,0,.69.69H327A.69.69,0,0,0,327.67,54.31Zm0,3.19a.69.69,0,0,0-.69-.69h-2.79a.69.69,0,0,0,0,1.38H327A.69.69,0,0,0,327.67,57.5Zm0,3.19A.69.69,0,0,0,327,60h-2.79a.69.69,0,1,0,0,1.38H327A.69.69,0,0,0,327.67,60.69Zm0,3.19a.69.69,0,0,0-.69-.69h-2.79a.69.69,0,0,0-.69.69.68.68,0,0,0,.69.68H327A.68.68,0,0,0,327.67,63.88ZM338.1,41.57a.69.69,0,0,0-.69-.69h-7.32a.68.68,0,0,0-.68.69.67.67,0,0,0,.68.68h7.32A.68.68,0,0,0,338.1,41.57Zm0,3.18a.68.68,0,0,0-.69-.68h-7.32a.67.67,0,0,0-.68.68.68.68,0,0,0,.68.69h7.32A.69.69,0,0,0,338.1,44.75Zm0,3.19a.69.69,0,0,0-.69-.69h-7.32a.69.69,0,0,0,0,1.38h7.32A.69.69,0,0,0,338.1,47.94Zm0,3.19a.69.69,0,0,0-.69-.69h-7.32a.69.69,0,0,0,0,1.38h7.32A.69.69,0,0,0,338.1,51.13Zm0,3.18a.68.68,0,0,0-.69-.68h-7.32a.67.67,0,0,0-.68.68.68.68,0,0,0,.68.69h7.32A.69.69,0,0,0,338.1,54.31Zm8.77,3.19a.69.69,0,0,0-.69-.69h-7.32a.69.69,0,0,0,0,1.38h7.32A.69.69,0,0,0,346.87,57.5Zm0,3.19a.69.69,0,0,0-.69-.69h-7.32a.69.69,0,1,0,0,1.38h7.32A.69.69,0,0,0,346.87,60.69Zm0,3.19a.69.69,0,0,0-.69-.69h-7.32a.69.69,0,0,0-.69.69.68.68,0,0,0,.69.68h7.32A.68.68,0,0,0,346.87,63.88Zm-5.55-22.31a.79.79,0,0,0-.79-.8.8.8,0,0,0-.8.8.79.79,0,0,0,.8.79A.79.79,0,0,0,341.32,41.57Zm2.39,0a.79.79,0,0,0-.79-.8.8.8,0,0,0-.8.8.79.79,0,0,0,.8.79A.79.79,0,0,0,343.71,41.57Zm2.39,0a.79.79,0,0,0-.79-.8.8.8,0,0,0-.8.8.79.79,0,0,0,.8.79A.79.79,0,0,0,346.1,41.57Zm2.4,0a.8.8,0,0,0-1.6,0,.8.8,0,0,0,1.6,0Zm2.39,0a.8.8,0,0,0-1.6,0,.8.8,0,0,0,1.6,0Zm2.39,0a.8.8,0,1,0-1.6,0,.8.8,0,0,0,1.6,0Zm-12,6.37a.79.79,0,0,0-.79-.8.8.8,0,1,0,0,1.6A.79.79,0,0,0,341.32,47.94Zm2.39,0a.79.79,0,0,0-.79-.8.8.8,0,0,0,0,1.6A.79.79,0,0,0,343.71,47.94Zm2.39,0a.79.79,0,0,0-.79-.8.8.8,0,0,0,0,1.6A.79.79,0,0,0,346.1,47.94Zm2.4,0a.8.8,0,1,0-.8.8A.8.8,0,0,0,348.5,47.94Zm2.39,0a.8.8,0,1,0-.8.8A.8.8,0,0,0,350.89,47.94Zm2.39,0a.8.8,0,1,0-.8.8A.8.8,0,0,0,353.28,47.94Zm-3.79,9.16a.79.79,0,0,0-.8-.79.79.79,0,0,0-.79.79.79.79,0,0,0,.79.8A.8.8,0,0,0,349.49,57.1Zm2.39,0a.79.79,0,0,0-.8-.79.79.79,0,0,0-.79.79.79.79,0,0,0,.79.8A.8.8,0,0,0,351.88,57.1Zm2.39,0a.8.8,0,0,0-1.59,0,.8.8,0,1,0,1.59,0Zm2.39,0a.79.79,0,0,0-.79-.79.79.79,0,0,0-.8.79.8.8,0,0,0,.8.8A.79.79,0,0,0,356.66,57.1Zm2.39,0a.79.79,0,0,0-.79-.79.79.79,0,0,0-.8.79.8.8,0,0,0,.8.8A.79.79,0,0,0,359.05,57.1Zm2.39,0a.79.79,0,0,0-.79-.79.79.79,0,0,0-.8.79.8.8,0,0,0,.8.8A.79.79,0,0,0,361.44,57.1Zm-11.95,6.58a.8.8,0,0,0-.8-.8.79.79,0,0,0-.79.8.79.79,0,0,0,.79.79A.79.79,0,0,0,349.49,63.68Zm2.39,0a.8.8,0,0,0-.8-.8.79.79,0,0,0-.79.8.79.79,0,0,0,.79.79A.79.79,0,0,0,351.88,63.68Zm2.39,0a.8.8,0,1,0-.79.79A.79.79,0,0,0,354.27,63.68Zm2.39,0a.79.79,0,0,0-.79-.8.8.8,0,0,0-.8.8.79.79,0,0,0,.8.79A.79.79,0,0,0,356.66,63.68Zm2.39,0a.79.79,0,0,0-.79-.8.8.8,0,0,0-.8.8.79.79,0,0,0,.8.79A.79.79,0,0,0,359.05,63.68Zm2.39,0a.79.79,0,0,0-.79-.8.8.8,0,0,0-.8.8.79.79,0,0,0,.8.79A.79.79,0,0,0,361.44,63.68Zm1.71-22.11a.69.69,0,0,0-.69-.69h-7.32a.69.69,0,0,0-.69.69.68.68,0,0,0,.69.68h7.32A.68.68,0,0,0,363.15,41.57Zm0,3.18a.68.68,0,0,0-.69-.68h-7.32a.68.68,0,0,0-.69.68.69.69,0,0,0,.69.69h7.32A.69.69,0,0,0,363.15,44.75Zm0,3.19a.69.69,0,0,0-.69-.69h-7.32a.69.69,0,1,0,0,1.38h7.32A.69.69,0,0,0,363.15,47.94Zm0,3.19a.69.69,0,0,0-.69-.69h-7.32a.69.69,0,1,0,0,1.38h7.32A.69.69,0,0,0,363.15,51.13Zm0,3.18a.68.68,0,0,0-.69-.68h-7.32a.68.68,0,0,0-.69.68.69.69,0,0,0,.69.69h7.32A.69.69,0,0,0,363.15,54.31Zm8.76,3.19a.68.68,0,0,0-.68-.69h-7.32a.69.69,0,0,0,0,1.38h7.32A.68.68,0,0,0,371.91,57.5Zm0,3.19a.68.68,0,0,0-.68-.69h-7.32a.69.69,0,1,0,0,1.38h7.32A.68.68,0,0,0,371.91,60.69Zm0,3.19a.68.68,0,0,0-.68-.69h-7.32a.69.69,0,0,0-.69.69.68.68,0,0,0,.69.68h7.32A.67.67,0,0,0,371.91,63.88Zm-5.54-22.31a.8.8,0,0,0-.8-.8.79.79,0,0,0-.79.8.79.79,0,0,0,.79.79A.79.79,0,0,0,366.37,41.57Zm2.39,0a.8.8,0,0,0-.8-.8.79.79,0,0,0-.79.8.79.79,0,0,0,.79.79A.79.79,0,0,0,368.76,41.57Zm2.39,0a.8.8,0,1,0-1.59,0,.8.8,0,0,0,1.59,0Zm2.39,0a.79.79,0,0,0-.79-.8.8.8,0,0,0-.8.8.79.79,0,0,0,.8.79A.79.79,0,0,0,373.54,41.57Zm2.39,0a.79.79,0,0,0-.79-.8.8.8,0,0,0-.8.8.79.79,0,0,0,.8.79A.79.79,0,0,0,375.93,41.57Zm2.39,0a.79.79,0,0,0-.79-.8.8.8,0,0,0-.8.8.79.79,0,0,0,.8.79A.79.79,0,0,0,378.32,41.57Zm-11.95,6.37a.8.8,0,0,0-.8-.8.8.8,0,0,0,0,1.6A.8.8,0,0,0,366.37,47.94Zm2.39,0a.8.8,0,0,0-.8-.8.8.8,0,0,0,0,1.6A.8.8,0,0,0,368.76,47.94Zm2.39,0a.8.8,0,1,0-.8.8A.8.8,0,0,0,371.15,47.94Zm2.39,0a.79.79,0,0,0-.79-.8.8.8,0,0,0,0,1.6A.79.79,0,0,0,373.54,47.94Zm2.39,0a.79.79,0,0,0-.79-.8.8.8,0,0,0,0,1.6A.79.79,0,0,0,375.93,47.94Zm2.39,0a.79.79,0,0,0-.79-.8.8.8,0,1,0,0,1.6A.79.79,0,0,0,378.32,47.94Zm-3.78,9.16a.8.8,0,0,0-1.6,0,.8.8,0,1,0,1.6,0Zm2.39,0a.8.8,0,0,0-1.6,0,.8.8,0,0,0,1.6,0Zm2.39,0a.79.79,0,0,0-.8-.79.79.79,0,0,0-.79.79.79.79,0,0,0,.79.8A.8.8,0,0,0,379.32,57.1Zm2.39,0a.79.79,0,0,0-.8-.79.79.79,0,0,0-.79.79.79.79,0,0,0,.79.8A.8.8,0,0,0,381.71,57.1Zm2.39,0a.79.79,0,0,0-.8-.79.79.79,0,0,0-.79.79.79.79,0,0,0,.79.8A.8.8,0,0,0,384.1,57.1Zm2.39,0a.79.79,0,0,0-.8-.79.79.79,0,0,0-.79.79.79.79,0,0,0,.79.8A.8.8,0,0,0,386.49,57.1Zm-11.95,6.58a.8.8,0,0,0-1.6,0,.8.8,0,0,0,1.6,0Zm2.39,0a.8.8,0,0,0-1.6,0,.8.8,0,0,0,1.6,0Zm2.39,0a.8.8,0,0,0-.8-.8.79.79,0,0,0-.79.8.79.79,0,0,0,.79.79A.79.79,0,0,0,379.32,63.68Zm2.39,0a.8.8,0,0,0-.8-.8.79.79,0,0,0-.79.8.79.79,0,0,0,.79.79A.79.79,0,0,0,381.71,63.68Zm2.39,0a.8.8,0,0,0-.8-.8.79.79,0,0,0-.79.8.79.79,0,0,0,.79.79A.79.79,0,0,0,384.1,63.68Zm2.39,0a.8.8,0,0,0-.8-.8.79.79,0,0,0-.79.8.79.79,0,0,0,.79.79A.79.79,0,0,0,386.49,63.68Zm1.71-22.11a.69.69,0,0,0-.69-.69h-7.32a.69.69,0,0,0-.69.69.68.68,0,0,0,.69.68h7.32A.68.68,0,0,0,388.2,41.57Zm0,3.18a.68.68,0,0,0-.69-.68h-7.32a.68.68,0,0,0-.69.68.69.69,0,0,0,.69.69h7.32A.69.69,0,0,0,388.2,44.75Zm0,3.19a.69.69,0,0,0-.69-.69h-7.32a.69.69,0,1,0,0,1.38h7.32A.69.69,0,0,0,388.2,47.94Zm0,3.19a.69.69,0,0,0-.69-.69h-7.32a.69.69,0,1,0,0,1.38h7.32A.69.69,0,0,0,388.2,51.13Zm0,3.18a.68.68,0,0,0-.69-.68h-7.32a.68.68,0,0,0-.69.68.69.69,0,0,0,.69.69h7.32A.69.69,0,0,0,388.2,54.31ZM397,57.5a.69.69,0,0,0-.69-.69H389a.69.69,0,0,0,0,1.38h7.32A.69.69,0,0,0,397,57.5Zm0,3.19a.69.69,0,0,0-.69-.69H389a.69.69,0,1,0,0,1.38h7.32A.69.69,0,0,0,397,60.69Zm0,3.19a.69.69,0,0,0-.69-.69H389a.69.69,0,0,0-.69.69.68.68,0,0,0,.69.68h7.32A.68.68,0,0,0,397,63.88Zm-5.54-22.31a.8.8,0,1,0-1.6,0,.8.8,0,0,0,1.6,0Zm2.39,0a.8.8,0,0,0-.8-.8.79.79,0,0,0-.79.8.79.79,0,0,0,.79.79A.79.79,0,0,0,393.81,41.57Zm2.39,0a.8.8,0,0,0-.8-.8.79.79,0,0,0-.79.8.79.79,0,0,0,.79.79A.79.79,0,0,0,396.2,41.57Zm2.39,0a.8.8,0,0,0-.8-.8.79.79,0,0,0-.79.8.79.79,0,0,0,.79.79A.79.79,0,0,0,398.59,41.57Zm2.39,0a.8.8,0,0,0-.8-.8.79.79,0,0,0-.79.8.79.79,0,0,0,.79.79A.79.79,0,0,0,401,41.57Zm2.39,0a.8.8,0,0,0-.8-.8.79.79,0,0,0-.79.8.79.79,0,0,0,.79.79A.79.79,0,0,0,403.37,41.57Zm-11.95,6.37a.8.8,0,1,0-.8.8A.8.8,0,0,0,391.42,47.94Zm2.39,0a.8.8,0,0,0-.8-.8.8.8,0,0,0,0,1.6A.8.8,0,0,0,393.81,47.94Zm2.39,0a.8.8,0,0,0-.8-.8.8.8,0,0,0,0,1.6A.8.8,0,0,0,396.2,47.94Zm2.39,0a.8.8,0,0,0-.8-.8.8.8,0,0,0,0,1.6A.8.8,0,0,0,398.59,47.94Zm2.39,0a.8.8,0,0,0-.8-.8.8.8,0,0,0,0,1.6A.8.8,0,0,0,401,47.94Zm2.39,0a.8.8,0,0,0-.8-.8.8.8,0,0,0,0,1.6A.8.8,0,0,0,403.37,47.94Zm-3.78,9.16a.8.8,0,0,0-1.6,0,.8.8,0,1,0,1.6,0Zm2.39,0a.8.8,0,0,0-1.6,0,.8.8,0,0,0,1.6,0Zm2.39,0a.8.8,0,0,0-1.6,0,.8.8,0,0,0,1.6,0Zm2.39,0a.8.8,0,0,0-1.6,0,.8.8,0,0,0,1.6,0Zm2.39,0a.8.8,0,0,0-1.6,0,.8.8,0,1,0,1.6,0Zm2.39,0a.8.8,0,0,0-1.6,0,.8.8,0,1,0,1.6,0Zm-12,6.58a.8.8,0,1,0-1.6,0,.8.8,0,0,0,1.6,0Zm2.39,0a.8.8,0,0,0-1.6,0,.8.8,0,0,0,1.6,0Zm2.39,0a.8.8,0,0,0-1.6,0,.8.8,0,0,0,1.6,0Zm2.39,0a.8.8,0,0,0-1.6,0,.8.8,0,0,0,1.6,0Zm2.39,0a.8.8,0,1,0-1.6,0,.8.8,0,0,0,1.6,0Zm2.39,0a.8.8,0,1,0-1.6,0,.8.8,0,0,0,1.6,0Zm1.7-22.11a.68.68,0,0,0-.68-.69h-7.32a.69.69,0,0,0-.69.69.68.68,0,0,0,.69.68h7.32A.67.67,0,0,0,413.24,41.57Zm0,3.18a.67.67,0,0,0-.68-.68h-7.32a.68.68,0,0,0-.69.68.69.69,0,0,0,.69.69h7.32A.68.68,0,0,0,413.24,44.75Zm0,3.19a.68.68,0,0,0-.68-.69h-7.32a.69.69,0,1,0,0,1.38h7.32A.68.68,0,0,0,413.24,47.94Zm0,3.19a.68.68,0,0,0-.68-.69h-7.32a.69.69,0,1,0,0,1.38h7.32A.68.68,0,0,0,413.24,51.13Zm0,3.18a.67.67,0,0,0-.68-.68h-7.32a.68.68,0,0,0-.69.68.69.69,0,0,0,.69.69h7.32A.68.68,0,0,0,413.24,54.31ZM422,57.5a.69.69,0,0,0-.69-.69H414a.69.69,0,0,0,0,1.38h7.32A.69.69,0,0,0,422,57.5Zm0,3.19a.69.69,0,0,0-.69-.69H414a.69.69,0,1,0,0,1.38h7.32A.69.69,0,0,0,422,60.69Zm0,3.19a.69.69,0,0,0-.69-.69H414a.69.69,0,0,0-.69.69.68.68,0,0,0,.69.68h7.32A.68.68,0,0,0,422,63.88Zm-5.54-22.31a.8.8,0,0,0-1.6,0,.8.8,0,0,0,1.6,0Zm2.39,0a.8.8,0,0,0-1.6,0,.8.8,0,0,0,1.6,0Zm2.39,0a.8.8,0,0,0-1.6,0,.8.8,0,0,0,1.6,0Zm2.39,0a.8.8,0,0,0-1.6,0,.8.8,0,0,0,1.6,0Zm2.39,0a.8.8,0,1,0-1.6,0,.8.8,0,0,0,1.6,0Zm2.39,0a.8.8,0,1,0-1.6,0,.8.8,0,0,0,1.6,0Zm-11.95,6.37a.8.8,0,1,0-.8.8A.8.8,0,0,0,416.47,47.94Zm2.39,0a.8.8,0,1,0-.8.8A.8.8,0,0,0,418.86,47.94Zm2.39,0a.8.8,0,1,0-.8.8A.8.8,0,0,0,421.25,47.94Zm2.39,0a.8.8,0,1,0-.8.8A.8.8,0,0,0,423.64,47.94Zm2.39,0a.8.8,0,1,0-.8.8A.8.8,0,0,0,426,47.94Zm2.39,0a.8.8,0,1,0-.8.8A.8.8,0,0,0,428.42,47.94Zm-3.79,9.16a.79.79,0,0,0-.79-.79.79.79,0,0,0-.8.79.8.8,0,0,0,.8.8A.79.79,0,0,0,424.63,57.1Zm2.39,0a.79.79,0,0,0-.79-.79.79.79,0,0,0-.8.79.8.8,0,0,0,.8.8A.79.79,0,0,0,427,57.1Zm2.39,0a.79.79,0,0,0-.79-.79.79.79,0,0,0-.8.79.8.8,0,0,0,.8.8A.79.79,0,0,0,429.41,57.1Zm2.39,0a.79.79,0,0,0-.79-.79.79.79,0,0,0-.8.79.8.8,0,0,0,.8.8A.79.79,0,0,0,431.8,57.1Zm2.39,0a.79.79,0,0,0-.79-.79.79.79,0,0,0-.8.79.8.8,0,0,0,.8.8A.79.79,0,0,0,434.19,57.1Zm2.39,0a.79.79,0,0,0-.79-.79.79.79,0,0,0-.8.79.8.8,0,0,0,.8.8A.79.79,0,0,0,436.58,57.1Zm-11.95,6.58a.79.79,0,0,0-.79-.8.8.8,0,0,0-.8.8.79.79,0,0,0,.8.79A.79.79,0,0,0,424.63,63.68Zm2.39,0a.79.79,0,0,0-.79-.8.8.8,0,0,0-.8.8.79.79,0,0,0,.8.79A.79.79,0,0,0,427,63.68Zm2.39,0a.79.79,0,0,0-.79-.8.8.8,0,0,0-.8.8.79.79,0,0,0,.8.79A.79.79,0,0,0,429.41,63.68Zm2.39,0a.79.79,0,0,0-.79-.8.8.8,0,0,0-.8.8.79.79,0,0,0,.8.79A.79.79,0,0,0,431.8,63.68Zm2.39,0a.79.79,0,0,0-.79-.8.8.8,0,0,0-.8.8.79.79,0,0,0,.8.79A.79.79,0,0,0,434.19,63.68Zm2.39,0a.79.79,0,0,0-.79-.8.8.8,0,0,0-.8.8.79.79,0,0,0,.8.79A.79.79,0,0,0,436.58,63.68Z"></path></g><g style="opacity:0.1"><path d="M438.33,205.49h-2.79a.69.69,0,0,1,0-1.38h2.79a.69.69,0,0,1,0,1.38ZM439,208a.68.68,0,0,0-.68-.69h-2.79a.69.69,0,0,0,0,1.38h2.79A.68.68,0,0,0,439,208Zm0,3.19a.68.68,0,0,0-.68-.69h-2.79a.69.69,0,0,0-.69.69.68.68,0,0,0,.69.68h2.79A.67.67,0,0,0,439,211.18Zm0,3.18a.67.67,0,0,0-.68-.68h-2.79a.68.68,0,0,0-.69.68.69.69,0,0,0,.69.69h2.79A.68.68,0,0,0,439,214.36Zm0,3.19a.68.68,0,0,0-.68-.69h-2.79a.69.69,0,0,0,0,1.38h2.79A.68.68,0,0,0,439,217.55Zm0,3.19a.68.68,0,0,0-.68-.69h-2.79a.69.69,0,0,0,0,1.38h2.79A.68.68,0,0,0,439,220.74Zm0,3.19a.68.68,0,0,0-.68-.69h-2.79a.69.69,0,0,0-.69.69.68.68,0,0,0,.69.68h2.79A.67.67,0,0,0,439,223.93Zm0,3.18a.67.67,0,0,0-.68-.68h-2.79a.68.68,0,0,0-.69.68.69.69,0,0,0,.69.69h2.79A.68.68,0,0,0,439,227.11Zm10.44-22.31a.69.69,0,0,0-.69-.69h-7.32a.69.69,0,0,0,0,1.38h7.32A.69.69,0,0,0,449.45,204.8Zm0,3.19a.69.69,0,0,0-.69-.69h-7.32a.69.69,0,0,0,0,1.38h7.32A.69.69,0,0,0,449.45,208Zm0,3.19a.69.69,0,0,0-.69-.69h-7.32a.69.69,0,0,0-.69.69.68.68,0,0,0,.69.68h7.32A.68.68,0,0,0,449.45,211.18Zm0,3.18a.68.68,0,0,0-.69-.68h-7.32a.68.68,0,0,0-.69.68.69.69,0,0,0,.69.69h7.32A.69.69,0,0,0,449.45,214.36Zm0,3.19a.69.69,0,0,0-.69-.69h-7.32a.69.69,0,0,0,0,1.38h7.32A.69.69,0,0,0,449.45,217.55Zm8.76,3.19a.69.69,0,0,0-.69-.69H450.2a.69.69,0,0,0,0,1.38h7.32A.69.69,0,0,0,458.21,220.74Zm0,3.19a.69.69,0,0,0-.69-.69H450.2a.68.68,0,0,0-.68.69.67.67,0,0,0,.68.68h7.32A.68.68,0,0,0,458.21,223.93Zm0,3.18a.68.68,0,0,0-.69-.68H450.2a.67.67,0,0,0-.68.68.68.68,0,0,0,.68.69h7.32A.69.69,0,0,0,458.21,227.11Zm-5.54-22.31a.79.79,0,0,0-.8-.79.79.79,0,0,0-.79.79.79.79,0,0,0,.79.8A.8.8,0,0,0,452.67,204.8Zm2.39,0a.79.79,0,0,0-.8-.79.79.79,0,0,0-.79.79.79.79,0,0,0,.79.8A.8.8,0,0,0,455.06,204.8Zm2.39,0a.79.79,0,0,0-.8-.79.79.79,0,0,0-.79.79.79.79,0,0,0,.79.8A.8.8,0,0,0,457.45,204.8Zm2.39,0a.79.79,0,0,0-.8-.79.79.79,0,0,0-.79.79.79.79,0,0,0,.79.8A.8.8,0,0,0,459.84,204.8Zm2.39,0a.79.79,0,0,0-.8-.79.79.79,0,0,0-.79.79.79.79,0,0,0,.79.8A.8.8,0,0,0,462.23,204.8Zm2.39,0a.79.79,0,0,0-.8-.79.79.79,0,0,0-.79.79.79.79,0,0,0,.79.8A.8.8,0,0,0,464.62,204.8Zm-11.95,6.38a.8.8,0,0,0-.8-.8.79.79,0,0,0-.79.8.79.79,0,0,0,.79.79A.79.79,0,0,0,452.67,211.18Zm2.39,0a.8.8,0,0,0-.8-.8.79.79,0,0,0-.79.8.79.79,0,0,0,.79.79A.79.79,0,0,0,455.06,211.18Zm2.39,0a.8.8,0,0,0-.8-.8.79.79,0,0,0-.79.8.79.79,0,0,0,.79.79A.79.79,0,0,0,457.45,211.18Zm2.39,0a.8.8,0,0,0-.8-.8.79.79,0,0,0-.79.8.79.79,0,0,0,.79.79A.79.79,0,0,0,459.84,211.18Zm2.39,0a.8.8,0,0,0-.8-.8.79.79,0,0,0-.79.8.79.79,0,0,0,.79.79A.79.79,0,0,0,462.23,211.18Zm2.39,0a.8.8,0,0,0-.8-.8.79.79,0,0,0-.79.8.79.79,0,0,0,.79.79A.79.79,0,0,0,464.62,211.18Zm-3.78,9.16a.8.8,0,1,0-.8.8A.8.8,0,0,0,460.84,220.34Zm2.39,0a.8.8,0,1,0-.8.8A.8.8,0,0,0,463.23,220.34Zm2.39,0a.8.8,0,1,0-.8.8A.8.8,0,0,0,465.62,220.34Zm2.39,0a.8.8,0,1,0-.8.8A.8.8,0,0,0,468,220.34Zm2.39,0a.8.8,0,1,0-.8.8A.8.8,0,0,0,470.4,220.34Zm2.39,0a.8.8,0,0,0-.8-.8.8.8,0,0,0,0,1.6A.8.8,0,0,0,472.79,220.34Zm-12,6.57a.8.8,0,0,0-1.6,0,.8.8,0,1,0,1.6,0Zm2.39,0a.8.8,0,0,0-1.6,0,.8.8,0,0,0,1.6,0Zm2.39,0a.8.8,0,0,0-1.6,0,.8.8,0,0,0,1.6,0Zm2.39,0a.8.8,0,0,0-1.6,0,.8.8,0,1,0,1.6,0Zm2.39,0a.8.8,0,0,0-1.6,0,.8.8,0,1,0,1.6,0Zm2.39,0a.79.79,0,0,0-.8-.79.79.79,0,0,0-.79.79.79.79,0,0,0,.79.8A.8.8,0,0,0,472.79,226.91Z"></path><path d="M438.33,231.61h-2.79a.69.69,0,0,1-.69-.69.68.68,0,0,1,.69-.68h2.79a.67.67,0,0,1,.68.68A.68.68,0,0,1,438.33,231.61Zm.68,2.5a.68.68,0,0,0-.68-.69h-2.79a.69.69,0,1,0,0,1.38h2.79A.68.68,0,0,0,439,234.11Zm0,3.19a.68.68,0,0,0-.68-.69h-2.79a.69.69,0,0,0,0,1.38h2.79A.68.68,0,0,0,439,237.3Zm0,3.18a.67.67,0,0,0-.68-.68h-2.79a.68.68,0,0,0-.69.68.69.69,0,0,0,.69.69h2.79A.68.68,0,0,0,439,240.48Zm0,3.19a.68.68,0,0,0-.68-.69h-2.79a.69.69,0,1,0,0,1.38h2.79A.68.68,0,0,0,439,243.67Zm0,3.19a.68.68,0,0,0-.68-.69h-2.79a.69.69,0,1,0,0,1.38h2.79A.68.68,0,0,0,439,246.86Zm0,3.19a.68.68,0,0,0-.68-.69h-2.79a.69.69,0,0,0-.69.69.68.68,0,0,0,.69.68h2.79A.67.67,0,0,0,439,250.05Zm0,3.18a.67.67,0,0,0-.68-.68h-2.79a.68.68,0,0,0-.69.68.69.69,0,0,0,.69.69h2.79A.68.68,0,0,0,439,253.23Zm10.44-22.31a.68.68,0,0,0-.69-.68h-7.32a.68.68,0,0,0-.69.68.69.69,0,0,0,.69.69h7.32A.69.69,0,0,0,449.45,230.92Zm0,3.19a.69.69,0,0,0-.69-.69h-7.32a.69.69,0,1,0,0,1.38h7.32A.69.69,0,0,0,449.45,234.11Zm0,3.19a.69.69,0,0,0-.69-.69h-7.32a.69.69,0,0,0,0,1.38h7.32A.69.69,0,0,0,449.45,237.3Zm0,3.18a.68.68,0,0,0-.69-.68h-7.32a.68.68,0,0,0-.69.68.69.69,0,0,0,.69.69h7.32A.69.69,0,0,0,449.45,240.48Zm0,3.19a.69.69,0,0,0-.69-.69h-7.32a.69.69,0,1,0,0,1.38h7.32A.69.69,0,0,0,449.45,243.67Zm8.76,3.19a.69.69,0,0,0-.69-.69H450.2a.69.69,0,0,0,0,1.38h7.32A.69.69,0,0,0,458.21,246.86Zm0,3.19a.69.69,0,0,0-.69-.69H450.2a.68.68,0,0,0-.68.69.67.67,0,0,0,.68.68h7.32A.68.68,0,0,0,458.21,250.05Zm0,3.18a.68.68,0,0,0-.69-.68H450.2a.67.67,0,0,0-.68.68.68.68,0,0,0,.68.69h7.32A.69.69,0,0,0,458.21,253.23Zm-5.54-22.31a.79.79,0,0,0-.8-.79.79.79,0,0,0-.79.79.79.79,0,0,0,.79.8A.8.8,0,0,0,452.67,230.92Zm2.39,0a.79.79,0,0,0-.8-.79.79.79,0,0,0-.79.79.79.79,0,0,0,.79.8A.8.8,0,0,0,455.06,230.92Zm2.39,0a.79.79,0,0,0-.8-.79.79.79,0,0,0-.79.79.79.79,0,0,0,.79.8A.8.8,0,0,0,457.45,230.92Zm2.39,0a.79.79,0,0,0-.8-.79.79.79,0,0,0-.79.79.79.79,0,0,0,.79.8A.8.8,0,0,0,459.84,230.92Zm2.39,0a.79.79,0,0,0-.8-.79.79.79,0,0,0-.79.79.79.79,0,0,0,.79.8A.8.8,0,0,0,462.23,230.92Zm2.39,0a.79.79,0,0,0-.8-.79.79.79,0,0,0-.79.79.79.79,0,0,0,.79.8A.8.8,0,0,0,464.62,230.92Zm-11.95,6.38a.8.8,0,0,0-.8-.8.79.79,0,0,0-.79.8.79.79,0,0,0,.79.79A.79.79,0,0,0,452.67,237.3Zm2.39,0a.8.8,0,0,0-.8-.8.79.79,0,0,0-.79.8.79.79,0,0,0,.79.79A.79.79,0,0,0,455.06,237.3Zm2.39,0a.8.8,0,0,0-.8-.8.79.79,0,0,0-.79.8.79.79,0,0,0,.79.79A.79.79,0,0,0,457.45,237.3Zm2.39,0a.8.8,0,0,0-.8-.8.79.79,0,0,0-.79.8.79.79,0,0,0,.79.79A.79.79,0,0,0,459.84,237.3Zm2.39,0a.8.8,0,0,0-.8-.8.79.79,0,0,0-.79.8.79.79,0,0,0,.79.79A.79.79,0,0,0,462.23,237.3Zm2.39,0a.8.8,0,0,0-.8-.8.79.79,0,0,0-.79.8.79.79,0,0,0,.79.79A.79.79,0,0,0,464.62,237.3Zm-3.78,9.16a.8.8,0,1,0-.8.8A.8.8,0,0,0,460.84,246.46Zm2.39,0a.8.8,0,1,0-.8.8A.8.8,0,0,0,463.23,246.46Zm2.39,0a.8.8,0,1,0-.8.8A.8.8,0,0,0,465.62,246.46Zm2.39,0a.8.8,0,1,0-.8.8A.8.8,0,0,0,468,246.46Zm2.39,0a.8.8,0,1,0-.8.8A.8.8,0,0,0,470.4,246.46Zm2.39,0a.8.8,0,0,0-.8-.8.8.8,0,0,0,0,1.6A.8.8,0,0,0,472.79,246.46Zm-12,6.57a.8.8,0,0,0-1.6,0,.8.8,0,1,0,1.6,0Zm2.39,0a.8.8,0,0,0-1.6,0,.8.8,0,0,0,1.6,0Zm2.39,0a.8.8,0,0,0-1.6,0,.8.8,0,0,0,1.6,0Zm2.39,0a.8.8,0,0,0-1.6,0,.8.8,0,1,0,1.6,0Zm2.39,0a.8.8,0,0,0-1.6,0,.8.8,0,1,0,1.6,0Zm2.39,0a.79.79,0,0,0-.8-.79.79.79,0,0,0-.79.79.79.79,0,0,0,.79.8A.8.8,0,0,0,472.79,253Z"></path></g><g style="opacity:0.1"><path d="M81.89,67.2H79.1a.69.69,0,0,1,0-1.38h2.79a.69.69,0,1,1,0,1.38Zm.69,2.49a.68.68,0,0,0-.69-.68H79.1a.69.69,0,1,0,0,1.37h2.79A.69.69,0,0,0,82.58,69.69Zm0,3.19a.69.69,0,0,0-.69-.69H79.1a.69.69,0,0,0,0,1.38h2.79A.69.69,0,0,0,82.58,72.88Zm0,3.19a.69.69,0,0,0-.69-.69H79.1a.69.69,0,0,0,0,1.38h2.79A.69.69,0,0,0,82.58,76.07Zm0,3.19a.69.69,0,0,0-.69-.69H79.1a.69.69,0,0,0-.69.69.68.68,0,0,0,.69.68h2.79A.68.68,0,0,0,82.58,79.26Zm0,3.18a.68.68,0,0,0-.69-.68H79.1a.68.68,0,0,0-.69.68.69.69,0,0,0,.69.69h2.79A.69.69,0,0,0,82.58,82.44Zm0,3.19a.69.69,0,0,0-.69-.69H79.1a.69.69,0,0,0,0,1.38h2.79A.69.69,0,0,0,82.58,85.63Zm0,3.19a.69.69,0,0,0-.69-.69H79.1a.69.69,0,0,0,0,1.38h2.79A.69.69,0,0,0,82.58,88.82ZM93,66.51a.69.69,0,0,0-.69-.69H85a.69.69,0,0,0,0,1.38h7.32A.69.69,0,0,0,93,66.51Zm0,3.18a.68.68,0,0,0-.69-.68H85a.69.69,0,1,0,0,1.37h7.32A.69.69,0,0,0,93,69.69Zm0,3.19a.69.69,0,0,0-.69-.69H85a.69.69,0,0,0,0,1.38h7.32A.69.69,0,0,0,93,72.88Zm0,3.19a.69.69,0,0,0-.69-.69H85a.69.69,0,0,0,0,1.38h7.32A.69.69,0,0,0,93,76.07Zm0,3.19a.69.69,0,0,0-.69-.69H85a.69.69,0,0,0-.69.69.68.68,0,0,0,.69.68h7.32A.68.68,0,0,0,93,79.26Zm8.76,3.18a.67.67,0,0,0-.68-.68H93.76a.67.67,0,0,0-.68.68.68.68,0,0,0,.68.69h7.33A.68.68,0,0,0,101.77,82.44Zm0,3.19a.68.68,0,0,0-.68-.69H93.76a.69.69,0,0,0,0,1.38h7.33A.68.68,0,0,0,101.77,85.63Zm0,3.19a.68.68,0,0,0-.68-.69H93.76a.69.69,0,0,0,0,1.38h7.33A.68.68,0,0,0,101.77,88.82ZM96.23,66.51a.8.8,0,0,0-.8-.8.79.79,0,0,0-.79.8.79.79,0,0,0,.79.79A.79.79,0,0,0,96.23,66.51Zm2.39,0a.8.8,0,0,0-.8-.8.79.79,0,0,0-.79.8.79.79,0,0,0,.79.79A.79.79,0,0,0,98.62,66.51Zm2.39,0a.8.8,0,0,0-.8-.8.79.79,0,0,0-.79.8.79.79,0,0,0,.79.79A.79.79,0,0,0,101,66.51Zm2.39,0a.8.8,0,0,0-.8-.8.79.79,0,0,0-.79.8.79.79,0,0,0,.79.79A.79.79,0,0,0,103.4,66.51Zm2.39,0a.79.79,0,0,0-.79-.8.8.8,0,0,0-.8.8.79.79,0,0,0,.8.79A.79.79,0,0,0,105.79,66.51Zm2.39,0a.79.79,0,0,0-.79-.8.8.8,0,0,0-.8.8.79.79,0,0,0,.8.79A.79.79,0,0,0,108.18,66.51Zm-12,6.37a.79.79,0,0,0-.8-.79.79.79,0,0,0-.79.79.79.79,0,0,0,.79.8A.8.8,0,0,0,96.23,72.88Zm2.39,0a.79.79,0,0,0-.8-.79.79.79,0,0,0-.79.79.79.79,0,0,0,.79.8A.8.8,0,0,0,98.62,72.88Zm2.39,0a.79.79,0,0,0-.8-.79.79.79,0,0,0-.79.79.79.79,0,0,0,.79.8A.8.8,0,0,0,101,72.88Zm2.39,0a.79.79,0,0,0-.8-.79.79.79,0,0,0-.79.79.79.79,0,0,0,.79.8A.8.8,0,0,0,103.4,72.88Zm2.39,0a.79.79,0,0,0-.79-.79.79.79,0,0,0-.8.79.8.8,0,0,0,.8.8A.79.79,0,0,0,105.79,72.88Zm2.39,0a.79.79,0,0,0-.79-.79.79.79,0,0,0-.8.79.8.8,0,0,0,.8.8A.79.79,0,0,0,108.18,72.88Zm-3.78,9.17a.8.8,0,1,0-1.6,0,.8.8,0,0,0,1.6,0Zm2.39,0a.8.8,0,1,0-1.6,0,.8.8,0,0,0,1.6,0Zm2.39,0a.8.8,0,1,0-1.6,0,.8.8,0,0,0,1.6,0Zm2.39,0a.8.8,0,0,0-.8-.8.79.79,0,0,0-.79.8.79.79,0,0,0,.79.79A.79.79,0,0,0,111.57,82.05Zm2.39,0a.8.8,0,0,0-.8-.8.79.79,0,0,0-.79.8.79.79,0,0,0,.79.79A.79.79,0,0,0,114,82.05Zm2.39,0a.8.8,0,0,0-.8-.8.79.79,0,0,0-.79.8.79.79,0,0,0,.79.79A.79.79,0,0,0,116.35,82.05ZM104.4,88.62a.8.8,0,1,0-.8.8A.8.8,0,0,0,104.4,88.62Zm2.39,0a.8.8,0,1,0-.8.8A.8.8,0,0,0,106.79,88.62Zm2.39,0a.8.8,0,1,0-.8.8A.8.8,0,0,0,109.18,88.62Zm2.39,0a.8.8,0,0,0-.8-.8.8.8,0,0,0,0,1.6A.8.8,0,0,0,111.57,88.62Zm2.39,0a.8.8,0,0,0-.8-.8.8.8,0,0,0,0,1.6A.8.8,0,0,0,114,88.62Zm2.39,0a.8.8,0,0,0-.8-.8.8.8,0,0,0,0,1.6A.8.8,0,0,0,116.35,88.62Z"></path><path d="M81.89,93.32H79.1a.69.69,0,0,1,0-1.38h2.79a.69.69,0,0,1,0,1.38Zm.69,2.5a.69.69,0,0,0-.69-.69H79.1a.69.69,0,0,0-.69.69.68.68,0,0,0,.69.68h2.79A.68.68,0,0,0,82.58,95.82Zm0,3.18a.69.69,0,0,0-.69-.69H79.1a.69.69,0,0,0,0,1.38h2.79A.69.69,0,0,0,82.58,99Zm0,3.19a.69.69,0,0,0-.69-.69H79.1a.69.69,0,0,0,0,1.38h2.79A.69.69,0,0,0,82.58,102.19Zm0,3.19a.69.69,0,0,0-.69-.69H79.1a.69.69,0,0,0-.69.69.68.68,0,0,0,.69.68h2.79A.68.68,0,0,0,82.58,105.38Zm0,3.18a.68.68,0,0,0-.69-.68H79.1a.68.68,0,0,0-.69.68.69.69,0,0,0,.69.69h2.79A.69.69,0,0,0,82.58,108.56Zm0,3.19a.69.69,0,0,0-.69-.69H79.1a.69.69,0,0,0,0,1.38h2.79A.69.69,0,0,0,82.58,111.75Zm0,3.19a.69.69,0,0,0-.69-.69H79.1a.69.69,0,0,0,0,1.38h2.79A.69.69,0,0,0,82.58,114.94ZM93,92.63a.69.69,0,0,0-.69-.69H85a.69.69,0,0,0,0,1.38h7.32A.69.69,0,0,0,93,92.63Zm0,3.19a.69.69,0,0,0-.69-.69H85a.69.69,0,0,0-.69.69.68.68,0,0,0,.69.68h7.32A.68.68,0,0,0,93,95.82ZM93,99a.69.69,0,0,0-.69-.69H85a.69.69,0,0,0,0,1.38h7.32A.69.69,0,0,0,93,99Zm0,3.19a.69.69,0,0,0-.69-.69H85a.69.69,0,0,0,0,1.38h7.32A.69.69,0,0,0,93,102.19Zm0,3.19a.69.69,0,0,0-.69-.69H85a.69.69,0,0,0-.69.69.68.68,0,0,0,.69.68h7.32A.68.68,0,0,0,93,105.38Zm8.76,3.18a.67.67,0,0,0-.68-.68H93.76a.67.67,0,0,0-.68.68.68.68,0,0,0,.68.69h7.33A.68.68,0,0,0,101.77,108.56Zm0,3.19a.68.68,0,0,0-.68-.69H93.76a.69.69,0,0,0,0,1.38h7.33A.68.68,0,0,0,101.77,111.75Zm0,3.19a.68.68,0,0,0-.68-.69H93.76a.69.69,0,0,0,0,1.38h7.33A.68.68,0,0,0,101.77,114.94ZM96.23,92.63a.8.8,0,0,0-.8-.8.8.8,0,0,0,0,1.6A.8.8,0,0,0,96.23,92.63Zm2.39,0a.8.8,0,0,0-.8-.8.8.8,0,0,0,0,1.6A.8.8,0,0,0,98.62,92.63Zm2.39,0a.8.8,0,0,0-.8-.8.8.8,0,0,0,0,1.6A.8.8,0,0,0,101,92.63Zm2.39,0a.8.8,0,0,0-.8-.8.8.8,0,0,0,0,1.6A.8.8,0,0,0,103.4,92.63Zm2.39,0a.79.79,0,0,0-.79-.8.8.8,0,0,0,0,1.6A.79.79,0,0,0,105.79,92.63Zm2.39,0a.79.79,0,0,0-.79-.8.8.8,0,0,0,0,1.6A.79.79,0,0,0,108.18,92.63ZM96.23,99a.79.79,0,0,0-.8-.79.79.79,0,0,0-.79.79.79.79,0,0,0,.79.8A.8.8,0,0,0,96.23,99Zm2.39,0a.79.79,0,0,0-.8-.79A.79.79,0,0,0,97,99a.79.79,0,0,0,.79.8A.8.8,0,0,0,98.62,99ZM101,99a.79.79,0,0,0-.8-.79.79.79,0,0,0-.79.79.79.79,0,0,0,.79.8A.8.8,0,0,0,101,99Zm2.39,0a.79.79,0,0,0-.8-.79.79.79,0,0,0-.79.79.79.79,0,0,0,.79.8A.8.8,0,0,0,103.4,99Zm2.39,0a.79.79,0,0,0-.79-.79.79.79,0,0,0-.8.79.8.8,0,0,0,.8.8A.79.79,0,0,0,105.79,99Zm2.39,0a.79.79,0,0,0-.79-.79.79.79,0,0,0-.8.79.8.8,0,0,0,.8.8A.79.79,0,0,0,108.18,99Zm-3.78,9.17a.8.8,0,1,0-1.6,0,.8.8,0,0,0,1.6,0Zm2.39,0a.8.8,0,1,0-1.6,0,.8.8,0,0,0,1.6,0Zm2.39,0a.8.8,0,1,0-1.6,0,.8.8,0,0,0,1.6,0Zm2.39,0a.8.8,0,0,0-.8-.8.79.79,0,0,0-.79.8.79.79,0,0,0,.79.79A.79.79,0,0,0,111.57,108.17Zm2.39,0a.8.8,0,0,0-.8-.8.79.79,0,0,0-.79.8.79.79,0,0,0,.79.79A.79.79,0,0,0,114,108.17Zm2.39,0a.8.8,0,0,0-.8-.8.79.79,0,0,0-.79.8.79.79,0,0,0,.79.79A.79.79,0,0,0,116.35,108.17Zm-11.95,6.57a.8.8,0,1,0-.8.8A.8.8,0,0,0,104.4,114.74Zm2.39,0a.8.8,0,1,0-.8.8A.8.8,0,0,0,106.79,114.74Zm2.39,0a.8.8,0,1,0-.8.8A.8.8,0,0,0,109.18,114.74Zm2.39,0a.8.8,0,0,0-.8-.8.8.8,0,0,0,0,1.6A.8.8,0,0,0,111.57,114.74Zm2.39,0a.8.8,0,0,0-.8-.8.8.8,0,0,0,0,1.6A.8.8,0,0,0,114,114.74Zm2.39,0a.8.8,0,0,0-.8-.8.8.8,0,0,0,0,1.6A.8.8,0,0,0,116.35,114.74Z"></path></g><path d="M267.46,49.55H244.15L263.28,35a.5.5,0,0,0-.1-.86l-1-.67a7.69,7.69,0,0,0-8.27-.3,5.13,5.13,0,0,0-.59.41l-21,15.94h-3.61a7.49,7.49,0,1,0-6.18,3.26l8.87-.07.47,1.89c-.84.65-6.08,4.76-6.34,4.95a7.48,7.48,0,1,0,6.89-1.14l2.31-1.75H260.4a5.79,5.79,0,0,0,.72,0,7.65,7.65,0,0,0,6.4-5.24l.38-1.11A.51.51,0,0,0,267.46,49.55Zm-44.91-.07a4.16,4.16,0,1,1,4.16-4.16A4.16,4.16,0,0,1,222.55,49.48ZM233.39,63a4.16,4.16,0,1,1-5.83-.79A4.17,4.17,0,0,1,233.39,63Z" style="fill:none;stroke:#000;stroke-miterlimit:10;opacity:0.1"></path><path d="M64.18,103.22l-13.69-8,16.21-2a.35.35,0,0,0,.24-.55L66.59,92a5.2,5.2,0,0,0-4.75-3,3.91,3.91,0,0,0-.49,0l-17.8,2.19L41.43,90a5.09,5.09,0,1,0-4.75-.2l5.24,3L41.55,94l-5.42.75a5.09,5.09,0,1,0,4.43,1.68l2-.24L57.6,105l.43.22a5.21,5.21,0,0,0,5.56-.89l.6-.52A.34.34,0,0,0,64.18,103.22ZM37.82,87.82a2.83,2.83,0,1,1,3.87-1A2.84,2.84,0,0,1,37.82,87.82Zm1.73,11.66A2.83,2.83,0,1,1,36.4,97,2.83,2.83,0,0,1,39.55,99.48Z" style="fill:none;stroke:#000;stroke-miterlimit:10;opacity:0.1"></path><path d="M469.18,191.22l-13.69-8,16.21-2a.35.35,0,0,0,.24-.55l-.35-.72a5.2,5.2,0,0,0-4.75-3,3.91,3.91,0,0,0-.49,0l-17.8,2.19L446.43,178a5.09,5.09,0,1,0-4.75-.2l5.24,3-.37,1.27-5.42.75a5.09,5.09,0,1,0,4.43,1.68l2-.24L462.6,193l.43.22a5.21,5.21,0,0,0,5.56-.89l.6-.52A.34.34,0,0,0,469.18,191.22Zm-26.36-15.4a2.83,2.83,0,1,1,3.87-1A2.84,2.84,0,0,1,442.82,175.82Zm1.73,11.66A2.83,2.83,0,1,1,441.4,185,2.83,2.83,0,0,1,444.55,187.48Z" style="fill:none;stroke:#000;stroke-miterlimit:10;opacity:0.1"></path></g><g id="freepik--Plants--inject-215"><path d="M77.55,443.63a66.91,66.91,0,0,0,8.08,12.46h.73A62.56,62.56,0,0,1,78,443.29c3.58,0,6.4.29,10.19-.24,5.06-.71,12-3.74,12-10.16,0-4.74-4-5.5-7.49-4.24-4.47,1.61-7,5.24-10.31,9.23-.76.91-3.08,4.26-4.46,5.09-1.83-4.28-1.79-9-1.87-13.7a71,71,0,0,0,10-.19c5-.6,11.75-4.18,11.72-10.53,0-4.69-3.8-5.9-7.25-4.5-4.36,1.76-6.19,5.34-9.46,9.31-.78.94-3.4,4.87-5,5.67,0-3.86.31-8,.41-11.9-.31.08-.56.11.55-.37,1.94-.82,6-1.94,9.74-4.05s9.6-8.76,6.76-14.56c-2.1-4.29-6-3.9-8.6-.85C81.68,401.15,81.91,405,80.2,410c-.45,1.32-1.79,6-3.57,7,0,0,0,0,0,0,0-2.92.51-6.15.24-9s-1.29-5.31-1.91-8c3.18-1.77,5.21-2.5,8.43-5.05,4.45-3.52,7.65-10.29,4.42-15.88-2.39-4.13-6.49-3.79-9.12-.51-3.32,4.15-2.66,8.42-3.22,13.82-.11,1.11-.08,5.34-.72,6.86-.09-.16-.17-.5-.27-.76a105.16,105.16,0,0,0-6.34-13.79,100.43,100.43,0,0,0,6.38-8.23c3.2-4.9,4.63-12.9.14-17.29-3.32-3.24-7.1-1.77-9,2.07-2.45,4.87-.3,9.68.73,15.11.21,1.11,1.42,5.77,1.36,7.49-1.79-3.07-3.73-6.29-5.83-9.31-.92-4-2.25-8.85-3.41-12.54-1.64-5.23-4.79-12.42-10.24-10.83-4,1.17-4.34,5.18-2.81,8.69,1.92,4.43,5.88,6.82,10,10a48.54,48.54,0,0,1,5.62,4.6c.17.2,1,1.37,1.1,1.55l.05.07h0c1.5,2.2,2.95,4.54,4.27,6.84-2.31-2.74-5.52-6.17-7.94-8.51-3.94-3.81-11.28-8.23-14.66-2.33-2.5,4.36,1.29,7.67,4.42,9.73,4,2.59,7.63,2.33,12.59,2.35,1.1,0,5-.26,6.46.38.11,0,.26.36.3.45a.68.68,0,0,1,0,.26.56.56,0,0,0,.13-.09,107.29,107.29,0,0,1,6.17,13.52c.13.36.25.74.37,1.09-3.1-2.67-6.46-5.47-9.72-7.87-4.15-3.05-11.93-5.94-14.41.21-1.83,4.54,1.89,7.25,5.15,8.74,4.12,1.87,7.72,1,12.44.08,1.14-.22,5-1.5,6.57-.92,0,0,.09,0,.07.1a1,1,0,0,1-.12.19.53.53,0,0,0,.18,0c.58,2.59,1.57,5.1,1.84,7.78s-.16,5.49-.16,8.2a36.94,36.94,0,0,0-6.46-7.5c-3.71-3.3-11-7-14.58-1.95-2.65,3.76.2,6.95,3.09,8.79,3.65,2.33,7.29,1.76,11.82,1.46,1-.06,4.65-.68,6-.21-.07,4.11-.43,8.23-.42,12.36-2.46-2.49-4.11-4.47-7.22-6.49-4-2.58-10.86-3.57-13.7,1.48-2.11,3.74.41,6.52,3.47,7.73,3.87,1.52,7,.19,11.26-1.08,1-.3,4.64-1.85,6.13-1.43.1,4.81.17,9.42,1.87,13.91-.06,0-.13,0-.16,0s.11,0,.15,0,.32.33.11.23c-3.14-1.41-5.2-3.42-8.6-5.17-4.1-2.11-10.78-2.09-13,3.37-1.62,4,1.87,6.37,5.07,6.94,4,.73,6.77-.77,10.73-2.72C72.74,445.44,76,443.42,77.55,443.63Z" style="fill:#92E3A9"></path><path d="M116.55,445.49a56.76,56.76,0,0,1-6.89,10.6h-.61a53.35,53.35,0,0,0,7.08-10.89,61.85,61.85,0,0,1-8.67-.21c-4.31-.6-10.21-3.18-10.21-8.65,0-4,3.37-4.68,6.38-3.6,3.8,1.36,5.91,4.46,8.77,7.85.65.77,2.63,3.62,3.8,4.33,1.55-3.64,1.52-7.65,1.59-11.66a60.25,60.25,0,0,1-8.55-.16c-4.28-.51-10-3.56-10-9,0-4,3.23-5,6.17-3.83,3.71,1.5,5.27,4.55,8,7.92.67.8,2.89,4.15,4.24,4.83,0-3.29-.26-6.78-.35-10.13.26.07.47.1-.47-.31a63.94,63.94,0,0,1-8.29-3.45c-3.2-1.8-8.17-7.45-5.75-12.39,1.79-3.65,5.07-3.32,7.31-.73,2.85,3.28,2.66,6.54,4.11,10.78.38,1.13,1.52,5.08,3,5.93h0c0-2.49-.43-5.23-.2-7.65s1.1-4.52,1.63-6.79c-2.71-1.5-4.44-2.13-7.18-4.29-3.78-3-6.51-8.76-3.76-13.51,2-3.52,5.52-3.24,7.76-.44,2.83,3.53,2.27,7.17,2.74,11.76.1.95.07,4.55.61,5.84.08-.14.15-.42.24-.65a89.22,89.22,0,0,1,5.39-11.74,84.61,84.61,0,0,1-5.43-7c-2.73-4.17-3.94-11-.12-14.71,2.83-2.76,6-1.51,7.7,1.76,2.08,4.14.25,8.24-.63,12.86-.17.94-1.2,4.91-1.16,6.38,1.53-2.62,3.19-5.36,5-7.93.78-3.37,1.92-7.54,2.9-10.67,1.39-4.46,4.07-10.57,8.72-9.22,3.43,1,3.69,4.41,2.39,7.39-1.64,3.77-5,5.81-8.55,8.48a40.35,40.35,0,0,0-4.78,3.92c-.15.17-.83,1.16-.94,1.31l0,.07h0c-1.27,1.87-2.51,3.86-3.63,5.82,2-2.34,4.69-5.26,6.75-7.24,3.36-3.25,9.6-7,12.48-2,2.13,3.71-1.1,6.53-3.76,8.28-3.36,2.21-6.5,2-10.72,2-.93,0-4.23-.22-5.49.32-.1,0-.22.31-.26.39a.64.64,0,0,0,0,.22l-.1-.08a89.26,89.26,0,0,0-5.25,11.51c-.12.3-.22.63-.32.93,2.64-2.28,5.5-4.66,8.27-6.7,3.53-2.6,10.16-5.06,12.27.17,1.56,3.87-1.61,6.18-4.39,7.44-3.5,1.6-6.57.84-10.58.07-1-.18-4.22-1.27-5.6-.78a.07.07,0,0,0-.05.09,1,1,0,0,0,.09.16.34.34,0,0,1-.14,0,55.54,55.54,0,0,0-1.57,6.63c-.23,2.27.14,4.66.13,7a31.57,31.57,0,0,1,5.51-6.38c3.15-2.8,9.34-6,12.4-1.66,2.26,3.2-.17,5.92-2.63,7.49-3.11,2-6.2,1.49-10.06,1.24-.86-.06-4-.58-5.13-.18.06,3.49.36,7,.35,10.51a34.69,34.69,0,0,1,6.15-5.52c3.37-2.19,9.24-3,11.66,1.26,1.79,3.18-.35,5.56-2.95,6.58-3.3,1.29-6,.16-9.59-.92-.87-.26-3.94-1.57-5.21-1.21-.09,4.09-.15,8-1.6,11.83,0,0,.11,0,.14,0s-.09,0-.13,0-.27.28-.09.2c2.67-1.2,4.43-2.92,7.32-4.41,3.49-1.79,9.17-1.77,11,2.87,1.38,3.43-1.59,5.42-4.32,5.91-3.44.62-5.76-.66-9.13-2.32C120.64,447,117.89,445.31,116.55,445.49Z" style="fill:#92E3A9"></path><path d="M408.55,443.63a66.91,66.91,0,0,0,8.08,12.46h.73a62.56,62.56,0,0,1-8.32-12.8c3.58,0,6.4.29,10.19-.24,5.06-.71,12-3.74,12-10.16,0-4.74-4-5.5-7.49-4.24-4.47,1.61-7,5.24-10.31,9.23-.76.91-3.08,4.26-4.46,5.09-1.83-4.28-1.79-9-1.87-13.7a71,71,0,0,0,10-.19c5-.6,11.75-4.18,11.72-10.53,0-4.69-3.8-5.9-7.25-4.5-4.36,1.76-6.19,5.34-9.46,9.31-.78.94-3.4,4.87-5,5.67,0-3.86.31-8,.41-11.9-.31.08-.56.11.55-.37,1.94-.82,6-1.94,9.74-4.05s9.6-8.76,6.76-14.56c-2.1-4.29-5.95-3.9-8.6-.85-3.34,3.85-3.11,7.68-4.82,12.66-.45,1.32-1.79,6-3.57,7,0,0,0,0,0,0,0-2.92.51-6.15.24-9s-1.29-5.31-1.91-8c3.18-1.77,5.21-2.5,8.43-5.05,4.45-3.52,7.65-10.29,4.42-15.88-2.39-4.13-6.49-3.79-9.12-.51-3.32,4.15-2.66,8.42-3.22,13.82-.11,1.11-.08,5.34-.72,6.86-.09-.16-.17-.5-.27-.76a105.16,105.16,0,0,0-6.34-13.79,100.43,100.43,0,0,0,6.38-8.23c3.2-4.9,4.63-12.9.14-17.29-3.32-3.24-7.1-1.77-9,2.07-2.45,4.87-.3,9.68.73,15.11.21,1.11,1.42,5.77,1.36,7.49-1.79-3.07-3.73-6.29-5.83-9.31-.92-4-2.25-8.85-3.41-12.54-1.64-5.23-4.79-12.42-10.24-10.83-4,1.17-4.34,5.18-2.81,8.69,1.92,4.43,5.88,6.82,10,10a48.54,48.54,0,0,1,5.62,4.6c.17.2,1,1.37,1.1,1.55l0,.07h0c1.5,2.2,3,4.54,4.27,6.84-2.31-2.74-5.52-6.17-7.94-8.51-3.94-3.81-11.28-8.23-14.66-2.33-2.5,4.36,1.29,7.67,4.42,9.73,3.95,2.59,7.63,2.33,12.59,2.35,1.1,0,5-.26,6.46.38.11,0,.26.36.3.45a.68.68,0,0,1,0,.26.56.56,0,0,0,.13-.09,107.29,107.29,0,0,1,6.17,13.52c.13.36.25.74.37,1.09-3.1-2.67-6.46-5.47-9.72-7.87-4.15-3.05-11.93-5.94-14.41.21-1.83,4.54,1.89,7.25,5.15,8.74,4.12,1.87,7.72,1,12.44.08,1.14-.22,5-1.5,6.57-.92,0,0,.09,0,.07.1a1,1,0,0,1-.12.19.53.53,0,0,0,.18,0c.58,2.59,1.57,5.1,1.84,7.78s-.16,5.49-.16,8.2a36.94,36.94,0,0,0-6.46-7.5c-3.71-3.3-11-7-14.58-1.95-2.65,3.76.2,6.95,3.09,8.79,3.65,2.33,7.29,1.76,11.82,1.46,1-.06,4.65-.68,6-.21-.07,4.11-.43,8.23-.42,12.36-2.46-2.49-4.11-4.47-7.22-6.49-4-2.58-10.86-3.57-13.7,1.48-2.11,3.74.41,6.52,3.47,7.73,3.87,1.52,7,.19,11.26-1.08,1-.3,4.64-1.85,6.13-1.43.1,4.81.17,9.42,1.87,13.91-.06,0-.13,0-.16,0s.11,0,.15,0,.32.33.11.23c-3.14-1.41-5.2-3.42-8.6-5.17-4.1-2.11-10.78-2.09-13,3.37-1.62,4,1.87,6.37,5.07,6.94,4,.73,6.77-.77,10.73-2.72C403.74,445.44,407,443.42,408.55,443.63Z" style="fill:#92E3A9"></path><path d="M447.55,445.49a56.76,56.76,0,0,1-6.89,10.6h-.61a53.35,53.35,0,0,0,7.08-10.89,61.85,61.85,0,0,1-8.67-.21c-4.31-.6-10.21-3.18-10.21-8.65,0-4,3.37-4.68,6.38-3.6,3.8,1.36,5.91,4.46,8.77,7.85.65.77,2.63,3.62,3.8,4.33,1.55-3.64,1.52-7.65,1.59-11.66a60.25,60.25,0,0,1-8.55-.16c-4.28-.51-10-3.56-10-9,0-4,3.23-5,6.17-3.83,3.71,1.5,5.27,4.55,8.05,7.92.67.8,2.89,4.15,4.24,4.83,0-3.29-.26-6.78-.35-10.13.26.07.47.1-.47-.31a63.94,63.94,0,0,1-8.29-3.45c-3.2-1.8-8.17-7.45-5.75-12.39,1.79-3.65,5.07-3.32,7.31-.73,2.85,3.28,2.66,6.54,4.11,10.78.38,1.13,1.52,5.08,3,5.93h0c0-2.49-.43-5.23-.2-7.65s1.1-4.52,1.63-6.79c-2.71-1.5-4.44-2.13-7.18-4.29-3.78-3-6.51-8.76-3.76-13.51,2-3.52,5.52-3.24,7.76-.44,2.83,3.53,2.27,7.17,2.74,11.76.1.95.07,4.55.61,5.84.08-.14.15-.42.24-.65a89.22,89.22,0,0,1,5.39-11.74,84.61,84.61,0,0,1-5.43-7c-2.73-4.17-3.94-11-.12-14.71,2.83-2.76,6.05-1.51,7.7,1.76,2.08,4.14.25,8.24-.63,12.86-.17.94-1.2,4.91-1.16,6.38,1.53-2.62,3.19-5.36,5-7.93.78-3.37,1.92-7.54,2.9-10.67,1.39-4.46,4.07-10.57,8.72-9.22,3.43,1,3.69,4.41,2.39,7.39-1.64,3.77-5,5.81-8.55,8.48a40.35,40.35,0,0,0-4.78,3.92c-.15.17-.83,1.16-.94,1.31l0,.07h0c-1.27,1.87-2.51,3.86-3.63,5.82,2-2.34,4.69-5.26,6.75-7.24,3.36-3.25,9.6-7,12.48-2,2.13,3.71-1.1,6.53-3.76,8.28-3.36,2.21-6.5,2-10.72,2-.93,0-4.23-.22-5.49.32-.1,0-.22.31-.26.39a.64.64,0,0,0,0,.22l-.1-.08a89.26,89.26,0,0,0-5.25,11.51c-.12.3-.22.63-.32.93,2.64-2.28,5.5-4.66,8.27-6.7,3.53-2.6,10.16-5.06,12.27.17,1.56,3.87-1.61,6.18-4.39,7.44-3.5,1.6-6.57.84-10.58.07-1-.18-4.22-1.27-5.6-.78a.07.07,0,0,0-.05.09,1,1,0,0,0,.09.16.34.34,0,0,1-.14,0,55.54,55.54,0,0,0-1.57,6.63c-.23,2.27.14,4.66.13,7a31.57,31.57,0,0,1,5.51-6.38c3.15-2.8,9.34-6,12.4-1.66,2.26,3.2-.17,5.92-2.63,7.49-3.11,2-6.2,1.49-10.06,1.24-.86-.06-4-.58-5.13-.18.06,3.49.36,7,.35,10.51a34.69,34.69,0,0,1,6.15-5.52c3.37-2.19,9.24-3,11.66,1.26,1.79,3.18-.35,5.56-2.95,6.58-3.3,1.29-6,.16-9.59-.92-.87-.26-3.94-1.57-5.21-1.21-.09,4.09-.15,8-1.6,11.83.05,0,.11,0,.14,0s-.09,0-.13,0-.27.28-.09.2c2.67-1.2,4.43-2.92,7.32-4.41,3.49-1.79,9.17-1.77,11.05,2.87,1.38,3.43-1.59,5.42-4.32,5.91-3.44.62-5.76-.66-9.13-2.32C451.64,447,448.89,445.31,447.55,445.49Z" style="fill:#92E3A9"></path></g><g id="freepik--Window--inject-215"><polygon points="184.01 80.08 178.28 70.94 127.82 70.94 127.82 80.08 127.82 83.37 127.82 386.13 429.49 386.13 429.49 80.08 184.01 80.08" style="fill:#263238"></polygon><rect x="129.37" y="84.27" width="298.75" height="298.55" style="fill:#fff"></rect><g style="clip-path:url(#freepik--clip-path--inject-215)"><rect x="424.37" y="83.01" width="4.75" height="300.93" style="opacity:0.17"></rect><rect x="424.37" y="173.86" width="4.75" height="208.86" style="opacity:0.17"></rect><rect x="128.56" y="82.27" width="299.84" height="8.04" style="fill:#92E3A9;stroke:#263238;stroke-linecap:round;stroke-linejoin:round"></rect></g><rect x="129.37" y="84.27" width="298.75" height="298.55" style="fill:none;stroke:#263238;stroke-linecap:round;stroke-linejoin:round"></rect><rect x="129.47" y="100.71" width="294.52" height="281.63" style="fill:#263238"></rect><rect x="129.47" y="100.71" width="294.52" height="281.63" style="fill:#fff;opacity:0.5"></rect><rect x="168.98" y="115.19" width="255.01" height="267.15" style="fill:#ebebeb"></rect><line x1="206.41" y1="264.93" x2="255.58" y2="264.93" style="fill:none;stroke:#d4d4d4;stroke-linecap:round;stroke-linejoin:round"></line><path d="M201.19,265.31a2.93,2.93,0,1,0-2.93,2.93A2.93,2.93,0,0,0,201.19,265.31Z" style="fill:none;stroke:#d4d4d4;stroke-linecap:round;stroke-linejoin:round"></path><line x1="285.3" y1="264.93" x2="334.47" y2="264.93" style="fill:none;stroke:#d4d4d4;stroke-linecap:round;stroke-linejoin:round"></line><path d="M280.08,265.31a2.94,2.94,0,1,0-2.94,2.93A2.94,2.94,0,0,0,280.08,265.31Z" style="fill:none;stroke:#d4d4d4;stroke-linecap:round;stroke-linejoin:round"></path><line x1="364.18" y1="264.93" x2="413.35" y2="264.93" style="fill:none;stroke:#d4d4d4;stroke-linecap:round;stroke-linejoin:round"></line><path d="M359,265.31a2.93,2.93,0,1,0-2.93,2.93A2.93,2.93,0,0,0,359,265.31Z" style="fill:none;stroke:#d4d4d4;stroke-linecap:round;stroke-linejoin:round"></path><rect x="192.27" y="136.82" width="223.63" height="14.14" style="fill:#fff"></rect><rect x="192.27" y="348.82" width="223.63" height="14.14" style="fill:#fff"></rect><rect x="192.27" y="175.09" width="223.63" height="82.36" style="fill:#fff"></rect><rect x="192.27" y="279.91" width="223.63" height="53.24" style="fill:#fff"></rect><rect x="192.27" y="279.91" width="223.63" height="13.31" style="fill:#d9d9d9"></rect><rect x="129.47" y="100.71" width="294.52" height="281.63" style="fill:none;stroke:#263238;stroke-linecap:round;stroke-linejoin:round"></rect><path d="M199.69,130.16l-.37,1.88h-1l1.79-9.36h1.52l1.79,9.36h-1l-.37-1.88Zm.13-.9h2.09l-1.06-5.41Z" style="fill:#263238"></path><path d="M206.47,122.68c1.46,0,2.13.88,2.13,2.32v4.73c0,1.43-.67,2.31-2.13,2.31h-2.2v-9.36Zm0,8.41c.74,0,1.11-.46,1.11-1.32V125c0-.85-.37-1.32-1.13-1.32h-1.12v7.46Z" style="fill:#263238"></path><path d="M211.77,122.68c1.45,0,2.12.88,2.12,2.32v4.73c0,1.43-.67,2.31-2.12,2.31h-2.2v-9.36Zm0,8.41c.75,0,1.11-.46,1.11-1.32V125c0-.85-.36-1.32-1.12-1.32h-1.12v7.46Z" style="fill:#263238"></path><path d="M217.87,132h-.94v-9.36h1.32l2.17,6.77v-6.77h.92V132h-1.08l-2.39-7.57Z" style="fill:#263238"></path><path d="M225.75,126.83v.93h-2.29v3.33h2.81V132h-3.86v-9.36h3.86v.95h-2.81v3.2Z" style="fill:#263238"></path><path d="M229.72,132h-1.43L227,122.68h1l1.1,8,1-8h1l1,8,1.06-8h.91L232.92,132h-1.38l-.9-6.35Z" style="fill:#263238"></path><path d="M241.16,124.92v.26h-1v-.31c0-.84-.33-1.34-1.08-1.34s-1.07.5-1.07,1.33c0,2.1,3.15,2.3,3.15,4.94,0,1.41-.68,2.34-2.12,2.34s-2.1-.93-2.1-2.34v-.54h1v.59c0,.84.35,1.34,1.1,1.34s1.1-.5,1.1-1.34c0-2.09-3.14-2.29-3.14-4.93,0-1.44.67-2.34,2.08-2.34S241.16,123.51,241.16,124.92Z" style="fill:#263238"></path><path d="M243,132h-.94v-9.36h1.33l2.17,6.77v-6.77h.92V132H245.4l-2.4-7.57Z" style="fill:#263238"></path><path d="M248.59,122.68V132h-1v-9.36Z" style="fill:#263238"></path><path d="M251.71,122.68c1.47,0,2.1.87,2.1,2.28v1.13c0,1.48-.7,2.26-2.18,2.26h-.92V132h-1.05v-9.36Zm-.08,4.73c.78,0,1.15-.36,1.15-1.25v-1.25c0-.86-.31-1.28-1.07-1.28h-1v3.78Z" style="fill:#263238"></path><path d="M256.71,122.68c1.47,0,2.1.87,2.1,2.28v1.13c0,1.48-.69,2.26-2.18,2.26h-.92V132h-1.05v-9.36Zm-.08,4.73c.78,0,1.15-.36,1.15-1.25v-1.25c0-.86-.3-1.28-1.07-1.28h-1v3.78Z" style="fill:#263238"></path><path d="M263,126.83v.93h-2.29v3.33h2.81V132h-3.85v-9.36h3.85v.95h-2.81v3.2Z" style="fill:#263238"></path><path d="M265.85,132v-8.41h-1.73v-.95h4.5v.95h-1.73V132Z" style="fill:#263238"></path><path d="M202.76,161.54v.84h-1v-.89c0-.85-.33-1.35-1.09-1.35s-1.1.5-1.1,1.35v4.95c0,.84.35,1.35,1.1,1.35s1.09-.51,1.09-1.35v-1.22h1v1.16c0,1.42-.67,2.36-2.11,2.36s-2.1-.94-2.1-2.36v-4.84c0-1.42.67-2.35,2.1-2.35S202.76,160.12,202.76,161.54Z" style="fill:#263238"></path><path d="M203.63,161.54c0-1.43.71-2.35,2.14-2.35s2.16.92,2.16,2.35v4.84c0,1.42-.71,2.36-2.16,2.36s-2.14-.94-2.14-2.36Zm1,4.9c0,.85.36,1.35,1.11,1.35s1.11-.5,1.11-1.35v-4.95c0-.85-.34-1.35-1.11-1.35s-1.11.5-1.11,1.35Z" style="fill:#263238"></path><path d="M211.11,159.28c1.46,0,2.13.88,2.13,2.33v4.72c0,1.43-.67,2.32-2.13,2.32h-2.19v-9.37Zm0,8.42c.75,0,1.11-.47,1.11-1.33v-4.82c0-.85-.36-1.32-1.13-1.32H210v7.47Z" style="fill:#263238"></path><path d="M217.55,163.43v.93h-2.29v3.34h2.81v1h-3.86v-9.37h3.86v.95h-2.81v3.2Z" style="fill:#263238"></path><path d="M218.3,184.62h-2.79a.68.68,0,0,1-.68-.69.67.67,0,0,1,.68-.68h2.79a.68.68,0,0,1,.69.68A.69.69,0,0,1,218.3,184.62Zm.69,2.5a.69.69,0,0,0-.69-.69h-2.79a.69.69,0,0,0,0,1.38h2.79A.69.69,0,0,0,219,187.12Zm0,3.19a.69.69,0,0,0-.69-.69h-2.79a.69.69,0,0,0,0,1.38h2.79A.69.69,0,0,0,219,190.31Zm0,3.19a.69.69,0,0,0-.69-.69h-2.79a.68.68,0,0,0-.68.69.67.67,0,0,0,.68.68h2.79A.68.68,0,0,0,219,193.5Zm0,3.18a.69.69,0,0,0-.69-.69h-2.79a.69.69,0,0,0,0,1.38h2.79A.69.69,0,0,0,219,196.68Zm0,3.19a.69.69,0,0,0-.69-.69h-2.79a.69.69,0,0,0,0,1.38h2.79A.69.69,0,0,0,219,199.87Zm0,3.19a.69.69,0,0,0-.69-.69h-2.79a.69.69,0,0,0,0,1.38h2.79A.69.69,0,0,0,219,203.06Zm0,3.18a.68.68,0,0,0-.69-.68h-2.79a.69.69,0,0,0,0,1.37h2.79A.69.69,0,0,0,219,206.24Zm10.43-22.31a.67.67,0,0,0-.68-.68h-7.33a.67.67,0,0,0-.68.68.68.68,0,0,0,.68.69h7.33A.68.68,0,0,0,229.42,183.93Zm0,3.19a.68.68,0,0,0-.68-.69h-7.33a.69.69,0,0,0,0,1.38h7.33A.68.68,0,0,0,229.42,187.12Zm0,3.19a.68.68,0,0,0-.68-.69h-7.33a.69.69,0,0,0,0,1.38h7.33A.68.68,0,0,0,229.42,190.31Zm0,3.19a.68.68,0,0,0-.68-.69h-7.33a.68.68,0,0,0-.68.69.67.67,0,0,0,.68.68h7.33A.67.67,0,0,0,229.42,193.5Zm0,3.18a.68.68,0,0,0-.68-.69h-7.33a.69.69,0,0,0,0,1.38h7.33A.68.68,0,0,0,229.42,196.68Zm8.77,3.19a.69.69,0,0,0-.69-.69h-7.32a.69.69,0,0,0,0,1.38h7.32A.69.69,0,0,0,238.19,199.87Zm0,3.19a.69.69,0,0,0-.69-.69h-7.32a.69.69,0,0,0,0,1.38h7.32A.69.69,0,0,0,238.19,203.06Zm0,3.18a.68.68,0,0,0-.69-.68h-7.32a.69.69,0,1,0,0,1.37h7.32A.69.69,0,0,0,238.19,206.24Zm-5.54-22.31a.8.8,0,0,0-1.6,0,.8.8,0,0,0,1.6,0Zm2.39,0a.8.8,0,0,0-1.6,0,.8.8,0,0,0,1.6,0Zm2.39,0a.8.8,0,0,0-1.6,0,.8.8,0,0,0,1.6,0Zm2.39,0a.8.8,0,0,0-1.6,0,.8.8,0,0,0,1.6,0Zm2.39,0a.8.8,0,0,0-1.6,0,.8.8,0,0,0,1.6,0Zm2.39,0a.8.8,0,0,0-1.6,0,.8.8,0,0,0,1.6,0Zm-11.95,6.38a.8.8,0,1,0-.8.8A.8.8,0,0,0,232.65,190.31Zm2.39,0a.8.8,0,1,0-.8.8A.8.8,0,0,0,235,190.31Zm2.39,0a.8.8,0,1,0-.8.8A.8.8,0,0,0,237.43,190.31Zm2.39,0a.8.8,0,1,0-.8.8A.8.8,0,0,0,239.82,190.31Zm2.39,0a.8.8,0,1,0-.8.8A.8.8,0,0,0,242.21,190.31Zm2.39,0a.8.8,0,1,0-.8.8A.8.8,0,0,0,244.6,190.31Zm-3.79,9.16a.79.79,0,0,0-.79-.8.8.8,0,0,0,0,1.6A.79.79,0,0,0,240.81,199.47Zm2.39,0a.79.79,0,0,0-.79-.8.8.8,0,0,0,0,1.6A.79.79,0,0,0,243.2,199.47Zm2.39,0a.79.79,0,0,0-.79-.8.8.8,0,0,0,0,1.6A.79.79,0,0,0,245.59,199.47Zm2.39,0a.79.79,0,0,0-.79-.8.8.8,0,0,0,0,1.6A.79.79,0,0,0,248,199.47Zm2.39,0a.79.79,0,0,0-.79-.8.8.8,0,0,0,0,1.6A.79.79,0,0,0,250.37,199.47Zm2.39,0a.79.79,0,0,0-.79-.8.8.8,0,0,0,0,1.6A.79.79,0,0,0,252.76,199.47Zm-11.95,6.58a.79.79,0,0,0-.79-.8.8.8,0,0,0-.8.8.79.79,0,0,0,.8.79A.79.79,0,0,0,240.81,206.05Zm2.39,0a.79.79,0,0,0-.79-.8.8.8,0,0,0-.8.8.79.79,0,0,0,.8.79A.79.79,0,0,0,243.2,206.05Zm2.39,0a.79.79,0,0,0-.79-.8.8.8,0,0,0-.8.8.79.79,0,0,0,.8.79A.79.79,0,0,0,245.59,206.05Zm2.39,0a.79.79,0,0,0-.79-.8.8.8,0,0,0-.8.8.79.79,0,0,0,.8.79A.79.79,0,0,0,248,206.05Zm2.39,0a.79.79,0,0,0-.79-.8.8.8,0,0,0-.8.8.79.79,0,0,0,.8.79A.79.79,0,0,0,250.37,206.05Zm2.39,0a.79.79,0,0,0-.79-.8.8.8,0,0,0-.8.8.79.79,0,0,0,.8.79A.79.79,0,0,0,252.76,206.05Z" style="fill:#263238"></path><path d="M218.3,210.74h-2.79a.68.68,0,0,1-.68-.69.67.67,0,0,1,.68-.68h2.79a.68.68,0,0,1,.69.68A.69.69,0,0,1,218.3,210.74Zm.69,2.5a.69.69,0,0,0-.69-.69h-2.79a.69.69,0,0,0,0,1.38h2.79A.69.69,0,0,0,219,213.24Zm0,3.19a.69.69,0,0,0-.69-.69h-2.79a.69.69,0,0,0,0,1.38h2.79A.69.69,0,0,0,219,216.43Zm0,3.19a.69.69,0,0,0-.69-.69h-2.79a.68.68,0,0,0-.68.69.67.67,0,0,0,.68.68h2.79A.68.68,0,0,0,219,219.62Zm0,3.18a.68.68,0,0,0-.69-.68h-2.79a.67.67,0,0,0-.68.68.68.68,0,0,0,.68.69h2.79A.69.69,0,0,0,219,222.8Zm0,3.19a.69.69,0,0,0-.69-.69h-2.79a.69.69,0,0,0,0,1.38h2.79A.69.69,0,0,0,219,226Zm0,3.19a.69.69,0,0,0-.69-.69h-2.79a.69.69,0,0,0,0,1.38h2.79A.69.69,0,0,0,219,229.18Zm0,3.19a.69.69,0,0,0-.69-.69h-2.79a.68.68,0,0,0-.68.69.67.67,0,0,0,.68.68h2.79A.68.68,0,0,0,219,232.37Zm10.43-22.32a.67.67,0,0,0-.68-.68h-7.33a.67.67,0,0,0-.68.68.68.68,0,0,0,.68.69h7.33A.68.68,0,0,0,229.42,210.05Zm0,3.19a.68.68,0,0,0-.68-.69h-7.33a.69.69,0,0,0,0,1.38h7.33A.68.68,0,0,0,229.42,213.24Zm0,3.19a.68.68,0,0,0-.68-.69h-7.33a.69.69,0,0,0,0,1.38h7.33A.68.68,0,0,0,229.42,216.43Zm0,3.19a.68.68,0,0,0-.68-.69h-7.33a.68.68,0,0,0-.68.69.67.67,0,0,0,.68.68h7.33A.67.67,0,0,0,229.42,219.62Zm0,3.18a.67.67,0,0,0-.68-.68h-7.33a.67.67,0,0,0-.68.68.68.68,0,0,0,.68.69h7.33A.68.68,0,0,0,229.42,222.8Zm8.77,3.19a.69.69,0,0,0-.69-.69h-7.32a.69.69,0,0,0,0,1.38h7.32A.69.69,0,0,0,238.19,226Zm0,3.19a.69.69,0,0,0-.69-.69h-7.32a.69.69,0,0,0,0,1.38h7.32A.69.69,0,0,0,238.19,229.18Zm0,3.19a.69.69,0,0,0-.69-.69h-7.32a.69.69,0,0,0-.69.69.68.68,0,0,0,.69.68h7.32A.68.68,0,0,0,238.19,232.37Zm-5.54-22.32a.8.8,0,0,0-1.6,0,.8.8,0,0,0,1.6,0Zm2.39,0a.8.8,0,0,0-1.6,0,.8.8,0,0,0,1.6,0Zm2.39,0a.8.8,0,0,0-1.6,0,.8.8,0,0,0,1.6,0Zm2.39,0a.8.8,0,0,0-1.6,0,.8.8,0,0,0,1.6,0Zm2.39,0a.8.8,0,0,0-1.6,0,.8.8,0,0,0,1.6,0Zm2.39,0a.8.8,0,0,0-1.6,0,.8.8,0,0,0,1.6,0Zm-11.95,6.38a.8.8,0,1,0-.8.8A.8.8,0,0,0,232.65,216.43Zm2.39,0a.8.8,0,1,0-.8.8A.8.8,0,0,0,235,216.43Zm2.39,0a.8.8,0,1,0-.8.8A.8.8,0,0,0,237.43,216.43Zm2.39,0a.8.8,0,1,0-.8.8A.8.8,0,0,0,239.82,216.43Zm2.39,0a.8.8,0,1,0-.8.8A.8.8,0,0,0,242.21,216.43Zm2.39,0a.8.8,0,1,0-.8.8A.8.8,0,0,0,244.6,216.43Zm-3.79,9.16a.79.79,0,0,0-.79-.79.79.79,0,0,0-.8.79.8.8,0,0,0,.8.8A.79.79,0,0,0,240.81,225.59Zm2.39,0a.79.79,0,0,0-.79-.79.79.79,0,0,0-.8.79.8.8,0,0,0,.8.8A.79.79,0,0,0,243.2,225.59Zm2.39,0a.79.79,0,0,0-.79-.79.79.79,0,0,0-.8.79.8.8,0,0,0,.8.8A.79.79,0,0,0,245.59,225.59Zm2.39,0a.79.79,0,0,0-.79-.79.79.79,0,0,0-.8.79.8.8,0,0,0,.8.8A.79.79,0,0,0,248,225.59Zm2.39,0a.79.79,0,0,0-.79-.79.79.79,0,0,0-.8.79.8.8,0,0,0,.8.8A.79.79,0,0,0,250.37,225.59Zm2.39,0a.79.79,0,0,0-.79-.79.79.79,0,0,0-.8.79.8.8,0,0,0,.8.8A.79.79,0,0,0,252.76,225.59Zm-11.95,6.58a.79.79,0,0,0-.79-.8.8.8,0,0,0-.8.8.79.79,0,0,0,.8.79A.79.79,0,0,0,240.81,232.17Zm2.39,0a.79.79,0,0,0-.79-.8.8.8,0,0,0-.8.8.79.79,0,0,0,.8.79A.79.79,0,0,0,243.2,232.17Zm2.39,0a.79.79,0,0,0-.79-.8.8.8,0,0,0-.8.8.79.79,0,0,0,.8.79A.79.79,0,0,0,245.59,232.17Zm2.39,0a.79.79,0,0,0-.79-.8.8.8,0,0,0-.8.8.79.79,0,0,0,.8.79A.79.79,0,0,0,248,232.17Zm2.39,0a.79.79,0,0,0-.79-.8.8.8,0,0,0-.8.8.79.79,0,0,0,.8.79A.79.79,0,0,0,250.37,232.17Zm2.39,0a.79.79,0,0,0-.79-.8.8.8,0,0,0-.8.8.79.79,0,0,0,.8.79A.79.79,0,0,0,252.76,232.17Z" style="fill:#263238"></path><path d="M259.82,200.07H257a.68.68,0,0,1-.69-.68.69.69,0,0,1,.69-.69h2.78a.69.69,0,0,1,.69.69A.68.68,0,0,1,259.82,200.07Zm.69,2.5a.69.69,0,0,0-.69-.69H257a.69.69,0,0,0,0,1.38h2.78A.69.69,0,0,0,260.51,202.57Zm0,3.19a.69.69,0,0,0-.69-.69H257a.69.69,0,0,0,0,1.38h2.78A.69.69,0,0,0,260.51,205.76Zm0,3.19a.69.69,0,0,0-.69-.69H257a.69.69,0,0,0-.69.69.68.68,0,0,0,.69.68h2.78A.68.68,0,0,0,260.51,209Zm0,3.18a.68.68,0,0,0-.69-.68H257a.68.68,0,0,0-.69.68.69.69,0,0,0,.69.69h2.78A.69.69,0,0,0,260.51,212.13Zm0,3.19a.69.69,0,0,0-.69-.69H257a.69.69,0,0,0,0,1.38h2.78A.69.69,0,0,0,260.51,215.32Zm0,3.19a.69.69,0,0,0-.69-.69H257a.69.69,0,0,0,0,1.38h2.78A.69.69,0,0,0,260.51,218.51Zm0,3.19a.69.69,0,0,0-.69-.69H257a.69.69,0,0,0-.69.69.68.68,0,0,0,.69.68h2.78A.68.68,0,0,0,260.51,221.7ZM271,199.39a.69.69,0,0,0-.69-.69h-7.32a.69.69,0,0,0-.69.69.68.68,0,0,0,.69.68h7.32A.68.68,0,0,0,271,199.39Zm0,3.18a.69.69,0,0,0-.69-.69h-7.32a.69.69,0,0,0,0,1.38h7.32A.69.69,0,0,0,271,202.57Zm0,3.19a.69.69,0,0,0-.69-.69h-7.32a.69.69,0,0,0,0,1.38h7.32A.69.69,0,0,0,271,205.76Zm0,3.19a.69.69,0,0,0-.69-.69h-7.32a.69.69,0,0,0-.69.69.68.68,0,0,0,.69.68h7.32A.68.68,0,0,0,271,209Zm0,3.18a.68.68,0,0,0-.69-.68h-7.32a.68.68,0,0,0-.69.68.69.69,0,0,0,.69.69h7.32A.69.69,0,0,0,271,212.13Zm8.76,3.19a.69.69,0,0,0-.69-.69H271.7a.69.69,0,0,0,0,1.38H279A.69.69,0,0,0,279.71,215.32Zm0,3.19a.69.69,0,0,0-.69-.69H271.7a.69.69,0,0,0,0,1.38H279A.69.69,0,0,0,279.71,218.51Zm0,3.19A.69.69,0,0,0,279,221H271.7a.69.69,0,0,0-.69.69.68.68,0,0,0,.69.68H279A.68.68,0,0,0,279.71,221.7Zm-5.54-22.31a.8.8,0,1,0-1.6,0,.8.8,0,0,0,1.6,0Zm2.39,0a.8.8,0,1,0-1.6,0,.8.8,0,0,0,1.6,0Zm2.39,0a.8.8,0,1,0-1.6,0,.8.8,0,0,0,1.6,0Zm2.39,0a.8.8,0,0,0-1.6,0,.8.8,0,0,0,1.6,0Zm2.39,0a.8.8,0,0,0-.8-.8.79.79,0,0,0-.79.8.79.79,0,0,0,.79.79A.79.79,0,0,0,283.73,199.39Zm2.39,0a.8.8,0,0,0-.8-.8.79.79,0,0,0-.79.8.79.79,0,0,0,.79.79A.79.79,0,0,0,286.12,199.39Zm-11.95,6.37a.8.8,0,1,0-.8.8A.8.8,0,0,0,274.17,205.76Zm2.39,0a.8.8,0,1,0-.8.8A.8.8,0,0,0,276.56,205.76Zm2.39,0a.8.8,0,1,0-.8.8A.8.8,0,0,0,279,205.76Zm2.39,0a.8.8,0,1,0-.8.8A.8.8,0,0,0,281.34,205.76Zm2.39,0a.8.8,0,0,0-.8-.8.8.8,0,0,0,0,1.6A.8.8,0,0,0,283.73,205.76Zm2.39,0a.8.8,0,0,0-.8-.8.8.8,0,0,0,0,1.6A.8.8,0,0,0,286.12,205.76Zm-3.79,9.16a.79.79,0,0,0-.79-.79.79.79,0,0,0-.8.79.8.8,0,0,0,.8.8A.79.79,0,0,0,282.33,214.92Zm2.39,0a.79.79,0,0,0-.79-.79.79.79,0,0,0-.8.79.8.8,0,0,0,.8.8A.79.79,0,0,0,284.72,214.92Zm2.4,0a.8.8,0,0,0-1.6,0,.8.8,0,0,0,1.6,0Zm2.39,0a.8.8,0,0,0-1.6,0,.8.8,0,0,0,1.6,0Zm2.39,0a.8.8,0,0,0-1.6,0,.8.8,0,1,0,1.6,0Zm2.39,0a.8.8,0,0,0-1.6,0,.8.8,0,1,0,1.6,0Zm-12,6.58a.79.79,0,0,0-.79-.8.8.8,0,0,0-.8.8.79.79,0,0,0,.8.79A.79.79,0,0,0,282.33,221.5Zm2.39,0a.79.79,0,0,0-.79-.8.8.8,0,0,0-.8.8.79.79,0,0,0,.8.79A.79.79,0,0,0,284.72,221.5Zm2.4,0a.8.8,0,0,0-1.6,0,.8.8,0,0,0,1.6,0Zm2.39,0a.8.8,0,1,0-1.6,0,.8.8,0,0,0,1.6,0Zm2.39,0a.8.8,0,1,0-1.6,0,.8.8,0,0,0,1.6,0Zm2.39,0a.8.8,0,0,0-1.6,0,.8.8,0,0,0,1.6,0Zm1.7-22.11a.69.69,0,0,0-.69-.69H288a.68.68,0,0,0-.68.69.67.67,0,0,0,.68.68h7.32A.68.68,0,0,0,296,199.39Zm0,3.18a.69.69,0,0,0-.69-.69H288a.69.69,0,0,0,0,1.38h7.32A.69.69,0,0,0,296,202.57Zm0,3.19a.69.69,0,0,0-.69-.69H288a.69.69,0,0,0,0,1.38h7.32A.69.69,0,0,0,296,205.76Zm0,3.19a.69.69,0,0,0-.69-.69H288a.68.68,0,0,0-.68.69.67.67,0,0,0,.68.68h7.32A.68.68,0,0,0,296,209Zm0,3.18a.68.68,0,0,0-.69-.68H288a.67.67,0,0,0-.68.68.68.68,0,0,0,.68.69h7.32A.69.69,0,0,0,296,212.13Zm8.77,3.19a.69.69,0,0,0-.69-.69h-7.32a.69.69,0,1,0,0,1.38h7.32A.69.69,0,0,0,304.76,215.32Zm0,3.19a.69.69,0,0,0-.69-.69h-7.32a.69.69,0,0,0,0,1.38h7.32A.69.69,0,0,0,304.76,218.51Zm0,3.19a.69.69,0,0,0-.69-.69h-7.32a.69.69,0,0,0-.69.69.68.68,0,0,0,.69.68h7.32A.68.68,0,0,0,304.76,221.7Zm-5.55-22.31a.79.79,0,0,0-.79-.8.8.8,0,0,0-.8.8.79.79,0,0,0,.8.79A.79.79,0,0,0,299.21,199.39Zm2.39,0a.79.79,0,0,0-.79-.8.8.8,0,0,0-.8.8.79.79,0,0,0,.8.79A.79.79,0,0,0,301.6,199.39Zm2.4,0a.8.8,0,1,0-1.6,0,.8.8,0,0,0,1.6,0Zm2.39,0a.8.8,0,1,0-1.6,0,.8.8,0,0,0,1.6,0Zm2.39,0a.8.8,0,0,0-1.6,0,.8.8,0,0,0,1.6,0Zm2.39,0a.8.8,0,1,0-1.6,0,.8.8,0,0,0,1.6,0Zm-12,6.37a.79.79,0,0,0-.79-.8.8.8,0,0,0,0,1.6A.79.79,0,0,0,299.21,205.76Zm2.39,0a.79.79,0,0,0-.79-.8.8.8,0,0,0,0,1.6A.79.79,0,0,0,301.6,205.76Zm2.4,0a.8.8,0,1,0-.8.8A.8.8,0,0,0,304,205.76Zm2.39,0a.8.8,0,1,0-.8.8A.8.8,0,0,0,306.39,205.76Zm2.39,0a.8.8,0,1,0-.8.8A.8.8,0,0,0,308.78,205.76Zm2.39,0a.8.8,0,1,0-.8.8A.8.8,0,0,0,311.17,205.76Zm-3.79,9.16a.79.79,0,0,0-.8-.79.79.79,0,0,0-.79.79.79.79,0,0,0,.79.8A.8.8,0,0,0,307.38,214.92Zm2.39,0a.79.79,0,0,0-.79-.79.79.79,0,0,0-.8.79.8.8,0,0,0,.8.8A.79.79,0,0,0,309.77,214.92Zm2.39,0a.79.79,0,0,0-.79-.79.79.79,0,0,0-.8.79.8.8,0,0,0,.8.8A.79.79,0,0,0,312.16,214.92Zm2.39,0a.79.79,0,0,0-.79-.79.79.79,0,0,0-.8.79.8.8,0,0,0,.8.8A.79.79,0,0,0,314.55,214.92Zm2.39,0a.79.79,0,0,0-.79-.79.79.79,0,0,0-.8.79.8.8,0,0,0,.8.8A.79.79,0,0,0,316.94,214.92Zm2.39,0a.79.79,0,0,0-.79-.79.79.79,0,0,0-.8.79.8.8,0,0,0,.8.8A.79.79,0,0,0,319.33,214.92Zm-11.95,6.58a.8.8,0,0,0-.8-.8.79.79,0,0,0-.79.8.79.79,0,0,0,.79.79A.79.79,0,0,0,307.38,221.5Zm2.39,0a.79.79,0,0,0-.79-.8.8.8,0,0,0-.8.8.79.79,0,0,0,.8.79A.79.79,0,0,0,309.77,221.5Zm2.39,0a.79.79,0,0,0-.79-.8.8.8,0,0,0-.8.8.79.79,0,0,0,.8.79A.79.79,0,0,0,312.16,221.5Zm2.39,0a.79.79,0,0,0-.79-.8.8.8,0,0,0-.8.8.79.79,0,0,0,.8.79A.79.79,0,0,0,314.55,221.5Zm2.39,0a.79.79,0,0,0-.79-.8.8.8,0,0,0-.8.8.79.79,0,0,0,.8.79A.79.79,0,0,0,316.94,221.5Zm2.39,0a.79.79,0,0,0-.79-.8.8.8,0,0,0-.8.8.79.79,0,0,0,.8.79A.79.79,0,0,0,319.33,221.5ZM321,199.39a.69.69,0,0,0-.69-.69H313a.69.69,0,0,0-.69.69.68.68,0,0,0,.69.68h7.32A.68.68,0,0,0,321,199.39Zm0,3.18a.69.69,0,0,0-.69-.69H313a.69.69,0,1,0,0,1.38h7.32A.69.69,0,0,0,321,202.57Zm0,3.19a.69.69,0,0,0-.69-.69H313a.69.69,0,0,0,0,1.38h7.32A.69.69,0,0,0,321,205.76Zm0,3.19a.69.69,0,0,0-.69-.69H313a.69.69,0,0,0-.69.69.68.68,0,0,0,.69.68h7.32A.68.68,0,0,0,321,209Zm0,3.18a.68.68,0,0,0-.69-.68H313a.68.68,0,0,0-.69.68.69.69,0,0,0,.69.69h7.32A.69.69,0,0,0,321,212.13Zm8.76,3.19a.68.68,0,0,0-.68-.69H321.8a.69.69,0,0,0,0,1.38h7.32A.68.68,0,0,0,329.8,215.32Zm0,3.19a.68.68,0,0,0-.68-.69H321.8a.69.69,0,0,0,0,1.38h7.32A.68.68,0,0,0,329.8,218.51Zm0,3.19a.68.68,0,0,0-.68-.69H321.8a.69.69,0,0,0-.69.69.68.68,0,0,0,.69.68h7.32A.67.67,0,0,0,329.8,221.7Zm-5.54-22.31a.8.8,0,0,0-.8-.8.79.79,0,0,0-.79.8.79.79,0,0,0,.79.79A.79.79,0,0,0,324.26,199.39Zm2.39,0a.79.79,0,0,0-.79-.8.8.8,0,0,0-.8.8.79.79,0,0,0,.8.79A.79.79,0,0,0,326.65,199.39Zm2.39,0a.79.79,0,0,0-.79-.8.8.8,0,0,0-.8.8.79.79,0,0,0,.8.79A.79.79,0,0,0,329,199.39Zm2.39,0a.79.79,0,0,0-.79-.8.8.8,0,0,0-.8.8.79.79,0,0,0,.8.79A.79.79,0,0,0,331.43,199.39Zm2.39,0a.79.79,0,0,0-.79-.8.8.8,0,0,0-.8.8.79.79,0,0,0,.8.79A.79.79,0,0,0,333.82,199.39Zm2.39,0a.79.79,0,0,0-.79-.8.8.8,0,0,0-.8.8.79.79,0,0,0,.8.79A.79.79,0,0,0,336.21,199.39Zm-11.95,6.37a.8.8,0,0,0-.8-.8.8.8,0,0,0,0,1.6A.8.8,0,0,0,324.26,205.76Zm2.39,0a.79.79,0,0,0-.79-.8.8.8,0,0,0,0,1.6A.79.79,0,0,0,326.65,205.76Zm2.39,0a.79.79,0,0,0-.79-.8.8.8,0,0,0,0,1.6A.79.79,0,0,0,329,205.76Zm2.39,0a.79.79,0,0,0-.79-.8.8.8,0,0,0,0,1.6A.79.79,0,0,0,331.43,205.76Zm2.39,0a.79.79,0,0,0-.79-.8.8.8,0,0,0,0,1.6A.79.79,0,0,0,333.82,205.76Zm2.39,0a.79.79,0,0,0-.79-.8.8.8,0,0,0,0,1.6A.79.79,0,0,0,336.21,205.76Zm-3.78,9.16a.79.79,0,0,0-.8-.79.79.79,0,0,0-.79.79.79.79,0,0,0,.79.8A.8.8,0,0,0,332.43,214.92Zm2.39,0a.79.79,0,0,0-.8-.79.79.79,0,0,0-.79.79.79.79,0,0,0,.79.8A.8.8,0,0,0,334.82,214.92Zm2.39,0a.79.79,0,0,0-.8-.79.79.79,0,0,0-.79.79.79.79,0,0,0,.79.8A.8.8,0,0,0,337.21,214.92Zm2.39,0a.79.79,0,0,0-.8-.79.79.79,0,0,0-.79.79.79.79,0,0,0,.79.8A.8.8,0,0,0,339.6,214.92Zm2.39,0a.79.79,0,0,0-.8-.79.79.79,0,0,0-.79.79.79.79,0,0,0,.79.8A.8.8,0,0,0,342,214.92Zm2.39,0a.79.79,0,0,0-.8-.79.79.79,0,0,0-.79.79.79.79,0,0,0,.79.8A.8.8,0,0,0,344.38,214.92Zm-11.95,6.58a.8.8,0,0,0-.8-.8.79.79,0,0,0-.79.8.79.79,0,0,0,.79.79A.79.79,0,0,0,332.43,221.5Zm2.39,0a.8.8,0,0,0-.8-.8.79.79,0,0,0-.79.8.79.79,0,0,0,.79.79A.79.79,0,0,0,334.82,221.5Zm2.39,0a.8.8,0,0,0-.8-.8.79.79,0,0,0-.79.8.79.79,0,0,0,.79.79A.79.79,0,0,0,337.21,221.5Zm2.39,0a.8.8,0,0,0-.8-.8.79.79,0,0,0-.79.8.79.79,0,0,0,.79.79A.79.79,0,0,0,339.6,221.5Zm2.39,0a.8.8,0,0,0-.8-.8.79.79,0,0,0-.79.8.79.79,0,0,0,.79.79A.79.79,0,0,0,342,221.5Zm2.39,0a.8.8,0,0,0-.8-.8.79.79,0,0,0-.79.8.79.79,0,0,0,.79.79A.79.79,0,0,0,344.38,221.5Zm1.71-22.11a.69.69,0,0,0-.69-.69h-7.32a.69.69,0,0,0-.69.69.68.68,0,0,0,.69.68h7.32A.68.68,0,0,0,346.09,199.39Zm0,3.18a.69.69,0,0,0-.69-.69h-7.32a.69.69,0,0,0,0,1.38h7.32A.69.69,0,0,0,346.09,202.57Zm0,3.19a.69.69,0,0,0-.69-.69h-7.32a.69.69,0,0,0,0,1.38h7.32A.69.69,0,0,0,346.09,205.76Zm0,3.19a.69.69,0,0,0-.69-.69h-7.32a.69.69,0,0,0-.69.69.68.68,0,0,0,.69.68h7.32A.68.68,0,0,0,346.09,209Zm0,3.18a.68.68,0,0,0-.69-.68h-7.32a.68.68,0,0,0-.69.68.69.69,0,0,0,.69.69h7.32A.69.69,0,0,0,346.09,212.13Zm8.76,3.19a.69.69,0,0,0-.69-.69h-7.32a.69.69,0,0,0,0,1.38h7.32A.69.69,0,0,0,354.85,215.32Zm0,3.19a.69.69,0,0,0-.69-.69h-7.32a.69.69,0,0,0,0,1.38h7.32A.69.69,0,0,0,354.85,218.51Zm0,3.19a.69.69,0,0,0-.69-.69h-7.32a.68.68,0,0,0-.68.69.67.67,0,0,0,.68.68h7.32A.68.68,0,0,0,354.85,221.7Zm-5.54-22.31a.8.8,0,0,0-.8-.8.79.79,0,0,0-.79.8.79.79,0,0,0,.79.79A.79.79,0,0,0,349.31,199.39Zm2.39,0a.8.8,0,0,0-.8-.8.79.79,0,0,0-.79.8.79.79,0,0,0,.79.79A.79.79,0,0,0,351.7,199.39Zm2.39,0a.8.8,0,0,0-.8-.8.79.79,0,0,0-.79.8.79.79,0,0,0,.79.79A.79.79,0,0,0,354.09,199.39Zm2.39,0a.8.8,0,0,0-.8-.8.79.79,0,0,0-.79.8.79.79,0,0,0,.79.79A.79.79,0,0,0,356.48,199.39Zm2.39,0a.8.8,0,0,0-.8-.8.79.79,0,0,0-.79.8.79.79,0,0,0,.79.79A.79.79,0,0,0,358.87,199.39Zm2.39,0a.8.8,0,0,0-.8-.8.79.79,0,0,0-.79.8.79.79,0,0,0,.79.79A.79.79,0,0,0,361.26,199.39Zm-11.95,6.37a.8.8,0,0,0-.8-.8.8.8,0,0,0,0,1.6A.8.8,0,0,0,349.31,205.76Zm2.39,0a.8.8,0,0,0-.8-.8.8.8,0,0,0,0,1.6A.8.8,0,0,0,351.7,205.76Zm2.39,0a.8.8,0,0,0-.8-.8.8.8,0,0,0,0,1.6A.8.8,0,0,0,354.09,205.76Zm2.39,0a.8.8,0,0,0-.8-.8.8.8,0,0,0,0,1.6A.8.8,0,0,0,356.48,205.76Zm2.39,0a.8.8,0,0,0-.8-.8.8.8,0,0,0,0,1.6A.8.8,0,0,0,358.87,205.76Zm2.39,0a.8.8,0,0,0-.8-.8.8.8,0,0,0,0,1.6A.8.8,0,0,0,361.26,205.76Zm-3.78,9.16a.8.8,0,0,0-1.6,0,.8.8,0,0,0,1.6,0Zm2.39,0a.8.8,0,0,0-1.6,0,.8.8,0,0,0,1.6,0Zm2.39,0a.8.8,0,0,0-1.6,0,.8.8,0,1,0,1.6,0Zm2.39,0a.8.8,0,0,0-1.6,0,.8.8,0,1,0,1.6,0Zm2.39,0a.8.8,0,0,0-1.6,0,.8.8,0,1,0,1.6,0Zm2.39,0a.8.8,0,0,0-1.6,0,.8.8,0,0,0,1.6,0Zm-11.95,6.58a.8.8,0,0,0-1.6,0,.8.8,0,0,0,1.6,0Zm2.39,0a.8.8,0,0,0-1.6,0,.8.8,0,0,0,1.6,0Zm2.39,0a.8.8,0,1,0-1.6,0,.8.8,0,0,0,1.6,0Zm2.39,0a.8.8,0,0,0-1.6,0,.8.8,0,0,0,1.6,0Zm2.39,0a.8.8,0,0,0-1.6,0,.8.8,0,0,0,1.6,0Zm2.39,0a.8.8,0,0,0-1.6,0,.8.8,0,0,0,1.6,0Z" style="fill:#263238"></path><line x1="138" y1="125.94" x2="160" y2="125.94" style="fill:none;stroke:#fff;stroke-miterlimit:10"></line><line x1="138" y1="148.94" x2="160" y2="148.94" style="fill:none;stroke:#fff;stroke-miterlimit:10"></line><line x1="138" y1="171.94" x2="160" y2="171.94" style="fill:none;stroke:#fff;stroke-miterlimit:10"></line><line x1="138" y1="194.94" x2="160" y2="194.94" style="fill:none;stroke:#fff;stroke-miterlimit:10"></line><line x1="138" y1="217.94" x2="160" y2="217.94" style="fill:none;stroke:#fff;stroke-miterlimit:10"></line><line x1="138" y1="240.94" x2="160" y2="240.94" style="fill:none;stroke:#fff;stroke-miterlimit:10"></line><line x1="138" y1="263.94" x2="160" y2="263.94" style="fill:none;stroke:#fff;stroke-miterlimit:10"></line><line x1="138" y1="286.94" x2="160" y2="286.94" style="fill:none;stroke:#fff;stroke-miterlimit:10"></line><line x1="138" y1="309.94" x2="160" y2="309.94" style="fill:none;stroke:#fff;stroke-miterlimit:10"></line><line x1="138" y1="332.94" x2="160" y2="332.94" style="fill:none;stroke:#fff;stroke-miterlimit:10"></line><line x1="138" y1="355.94" x2="160" y2="355.94" style="fill:none;stroke:#fff;stroke-miterlimit:10"></line></g><g id="freepik--Character--inject-215"><path d="M132.77,230.37s4.79,1.26,6.31,4.54,9.84,35.84,9.84,35.84l16.91-1,7.83,3s-22.72,12.37-26.51,13.38-8.07,2-10.34-.25-5.81-48-5.81-48" style="fill:#92E3A9;stroke:#263238;stroke-linecap:round;stroke-linejoin:round"></path><path d="M95.17,300.19,91.31,319,71.1,382.74a56.75,56.75,0,0,1-2.58,7.85L53.4,434.82l6.25,4,30.12-45.4c1.76-2.66,3.6-4.64,5.06-7.48l27-53.71,2-1.67,29.67,55.16a21.89,21.89,0,0,1,3.22,5.35l21.5,50.77,11.93-.67L180.35,382a22.3,22.3,0,0,0-3.9-9.37l-33.28-64.74-1.42-10.17Z" style="fill:gray;stroke:#263238;stroke-linecap:round;stroke-linejoin:round"></path><line x1="136.71" y1="319.79" x2="138.42" y2="318.28" style="fill:none;stroke:#263238;stroke-linecap:round;stroke-linejoin:round"></line><line x1="126.13" y1="329.2" x2="134.89" y2="321.41" style="fill:none;stroke:#263238;stroke-linecap:round;stroke-linejoin:round"></line><path d="M95.5,225.94s-17.5.5-18.25,2S80,249.19,84,263.19s10.25,29.5,10.25,31-.75,6.25,1,7.5,27.5,1.75,34.75,2.25,11-3.5,11.75-6.25-2-11.75-2-11.75-2.25-42-2.5-46,0-5.25-2.25-8-22.5-6.5-26.5-6.5S95.5,225.94,95.5,225.94Z" style="fill:#92E3A9;stroke:#263238;stroke-linecap:round;stroke-linejoin:round"></path><polygon points="122.81 225.13 126.11 231.9 119.34 229.3 122.81 225.13" style="fill:#92E3A9;stroke:#263238;stroke-linecap:round;stroke-linejoin:round"></polygon><polygon points="116.91 233.64 122.81 225.13 115.52 221.65 116.91 233.64" style="fill:#92E3A9;stroke:#263238;stroke-linecap:round;stroke-linejoin:round"></polygon><polygon points="98.84 203.41 99.88 222.69 116.91 233.64 118.47 212.97 98.84 203.41" style="fill:#fff;stroke:#263238;stroke-linecap:round;stroke-linejoin:round"></polygon><polygon points="98.86 203.69 99.84 221.86 118.42 213.6 118.47 212.97 99.08 203.53 98.86 203.69" style="fill:#263238;stroke:#263238;stroke-linecap:round;stroke-linejoin:round"></polygon><path d="M118.82,180.49s4.16,6.77,3.47,8.33-1,2.44-.52,2.78,6.25,5.39,5.9,6.6-3.3,2.78-3.3,2.78,3,11.64,2.09,12.16-17.37,1.22-18.59.7-7-6.26-8.86-8.86-4.51-9.21-4.51-13,4-12,12-13.37S118.82,180.49,118.82,180.49Z" style="fill:#fff;stroke:#263238;stroke-linecap:round;stroke-linejoin:round"></path><path d="M115.86,201.68s1,2.95,6.43,1.91" style="fill:none;stroke:#263238;stroke-linecap:round;stroke-linejoin:round"></path><path d="M112.91,188.65a5.1,5.1,0,0,1,5.21-1.56" style="fill:none;stroke:#263238;stroke-linecap:round;stroke-linejoin:round"></path><path d="M118.12,193.43c0,.91-.43,1.65-1,1.65s-1-.74-1-1.65.43-1.65,1-1.65S118.12,192.52,118.12,193.43Z" style="fill:#263238"></path><path d="M99.19,200.11l2.43-.34s-3.3-3-1.74-4.52,6.26-3.82,5.73-5.73-5.55-5-2.43-6.43,22.41-1,24.49-1.74,2.78-6.07-2.78-8.33a30.06,30.06,0,0,0-10.24-2.26s3.82-2.08,2.08-2.95-14.07.87-21.19,4.17-10.25,8.16-9.73,12.33,7.12,16,7.82,16.5S99.19,200.11,99.19,200.11Z" style="fill:#263238;stroke:#263238;stroke-linecap:round;stroke-linejoin:round"></path><path d="M100.9,201s-.7-4.52-4.69-5.21-4.52,5.56-3.3,8,6.25,3,7.81,2.08,1.74-1.39,1.74-1.39" style="fill:#fff;stroke:#263238;stroke-linecap:round;stroke-linejoin:round"></path><path d="M97.62,219.74c.87,0,15.64,7.65,15.64,7.65l3.64,6.25-20.32-8.51Z" style="fill:#92E3A9;stroke:#263238;stroke-linecap:round;stroke-linejoin:round"></path><polygon points="97.62 219.74 93.28 226 108.74 235.03 113.26 227.38 97.62 219.74" style="fill:#92E3A9;stroke:#263238;stroke-linecap:round;stroke-linejoin:round"></polygon><path d="M80,226.94s-4.75,1.75-5.25,3-5,35-5,35l-17.23-10L47,259.19s11.75,14.25,15.75,19,11.5,10,13,9,10-23.5,10-23.5a21.51,21.51,0,0,0,2-9.5" style="fill:#92E3A9;stroke:#263238;stroke-linecap:round;stroke-linejoin:round"></path><path d="M41.21,257.07s-5.58-3.87-5.79-5.36S34.14,243,34.14,243l15.43,11.67Z" style="fill:#fff;stroke:#263238;stroke-linecap:round;stroke-linejoin:round"></path><path d="M179.65,276.19s6.62-1.51,7.37-2.82l4.44-7.66-18.66,5.1Z" style="fill:#fff;stroke:#263238;stroke-linecap:round;stroke-linejoin:round"></path><path d="M178.22,441.8l.68,14s14.72-.22,18.11.68,10.87.68,14.72.46a5,5,0,0,0,1.14-2.49c0-1.14-4.76-2.72-5.89-3.4s-9.51-3.17-10.42-4.08-7-6.11-7-6.11Z" style="fill:#263238;stroke:#263238;stroke-linecap:round;stroke-linejoin:round"></path><path d="M53.4,434.82l-2.33,3.59s-8.19,7.08-9.61,9.89-2.54,10.36-2.54,10.36a4.33,4.33,0,0,0,3.26,1.39c2.27.09,10.09-5.61,11.35-7.27s4-9.32,4.81-10.5a12,12,0,0,0,1.31-3.5Z" style="fill:#263238;stroke:#263238;stroke-linecap:round;stroke-linejoin:round"></path><path d="M218.18,244.44h-84l69-52.36a1.83,1.83,0,0,0-.36-3.12l-3.51-2.38a27.62,27.62,0,0,0-29.81-1.1c-.76.46-1.47,1-2.15,1.46l-75.74,57.5h-13a27,27,0,1,0-22.28,11.75c1.28,0,32-.25,32-.25l1.68,6.81c-3,2.36-21.93,17.17-22.86,17.88a27,27,0,1,0,24.85-4.11l8.33-6.33h92.52a23,23,0,0,0,2.59-.14,27.61,27.61,0,0,0,23.09-18.89l1.35-4A1.83,1.83,0,0,0,218.18,244.44Zm-161.93-.25a15,15,0,1,1,15-15A15,15,0,0,1,56.25,244.19Zm39.07,48.87a15,15,0,1,1-21-2.87A15,15,0,0,1,95.32,293.06Z" style="fill:#263238;stroke:#263238;stroke-miterlimit:10"></path><path d="M39.61,249.05l.89,7.1A2.06,2.06,0,0,0,42,257.88L52.58,261a2.08,2.08,0,0,0,2.65-2.17l-.53-5.94a.64.64,0,0,0-.46-.55l-13.82-4A.64.64,0,0,0,39.61,249.05Z" style="fill:#fff;stroke:#263238;stroke-linecap:round;stroke-linejoin:round"></path><line x1="43.07" y1="249.58" x2="44.21" y2="258.22" style="fill:none;stroke:#263238;stroke-linecap:round;stroke-linejoin:round"></line><line x1="47.63" y1="250.72" x2="48.61" y2="259.36" style="fill:none;stroke:#263238;stroke-linecap:round;stroke-linejoin:round"></line><line x1="51.54" y1="251.7" x2="52.58" y2="261.02" style="fill:none;stroke:#263238;stroke-linecap:round;stroke-linejoin:round"></line><path d="M184.11,269.34l-3.46,6.27a2.09,2.09,0,0,1-2,1.06l-11-1a2.06,2.06,0,0,1-1.65-3l2.7-5.32a.63.63,0,0,1,.63-.34l14.32,1.42A.64.64,0,0,1,184.11,269.34Z" style="fill:#fff;stroke:#263238;stroke-linecap:round;stroke-linejoin:round"></path><line x1="180.7" y1="268.55" x2="176.44" y2="276.15" style="fill:none;stroke:#263238;stroke-linecap:round;stroke-linejoin:round"></line><line x1="176.04" y1="267.92" x2="171.93" y2="275.57" style="fill:none;stroke:#263238;stroke-linecap:round;stroke-linejoin:round"></line><line x1="172.05" y1="267.37" x2="167.62" y2="275.63" style="fill:none;stroke:#263238;stroke-linecap:round;stroke-linejoin:round"></line></g><g id="freepik--Floor--inject-215"><line x1="24" y1="456.09" x2="477" y2="456.09" style="fill:none;stroke:#263238;stroke-linecap:round;stroke-linejoin:round"></line></g></svg>