<svg width="322" height="151" viewBox="0 0 322 151" fill="none"
    xmlns="http://www.w3.org/2000/svg">
    <path d="M52.3437 44.847L0.101807 150.5H49.568L69.78 109.565V33.8471C62.8454 33.9055 55.9388 37.5763 52.3437 44.847Z" fill="#00911E"/>
    <path d="M69.78 109.565L78.8222 91.2518V35.9452C75.9994 34.52 72.8869 33.821 69.78 33.8471V109.565Z" fill="#00911E"/>
    <path d="M78.8222 17.6519H69.78V33.8471C72.8869 33.821 75.9994 34.52 78.8222 35.9452V17.6519Z" fill="#00911E"/>
    <path d="M94.7142 59.0661L87.4811 44.7119C85.4345 40.6505 82.3553 37.729 78.8222 35.9452V91.2518L94.7142 59.0661Z" fill="#00911E"/>
    <path d="M70.4449 150.5L105.41 80.293L94.7142 59.0661L78.8222 91.2518L69.78 109.565L49.568 150.5H70.4449Z" fill="#005C30"/>
    <path d="M140.788 150.5H148.7L187.569 71.891L176.024 48.847L133.147 135.336L140.788 150.5Z" fill="#005C30"/>
    <path d="M125.629 150.5H140.788L133.147 135.336L125.629 150.5Z" fill="#005C30"/>
    <path d="M70.4449 150.5H125.629L133.147 135.336L105.41 80.293L70.4449 150.5Z" fill="#00C700"/>
    <path d="M321.898 150.5L252.568 11.3655C245.237 -3.18374 224.652 -3.10459 217.431 11.5006L208.737 29.0816L268.177 150.5H321.898Z" fill="#00C700"/>
    <path d="M166.053 28.9465C158.722 14.3972 138.137 14.4764 130.916 29.0816L105.41 80.293L133.147 135.336L176.024 48.847L166.053 28.9465Z" fill="#93DA33"/>
    <path d="M226.955 150.5H268.177L208.737 29.0816L187.569 71.891L226.955 150.5Z" fill="#93DA33"/>
    <path d="M148.7 150.5H226.955L187.569 71.891L148.7 150.5Z" fill="#00C700"/>
</svg>
