<svg xmlns="http://www.w3.org/2000/svg" viewBox="0 0 500 500"><g id="freepik--background-complete--inject-117"><path d="M45.34,88.83c-.14,0-.26-12.81-.26-28.61s.12-28.61.26-28.61.26,12.81.26,28.61S45.49,88.83,45.34,88.83Z" style="fill:#e0e0e0"></path><path d="M110.55,86.17c0,.15-15.19.26-33.93.26s-33.94-.11-33.94-.26,15.19-.26,33.94-.26S110.55,86,110.55,86.17Z" style="fill:#e0e0e0"></path><path d="M111.89,83.51c-.15,0-.27-11-.27-24.62s.12-24.62.27-24.62.26,11,.26,24.62S112,83.51,111.89,83.51Z" style="fill:#e0e0e0"></path><path d="M99.91,32.94c0,.14-11.92.26-26.62.26s-26.62-.12-26.62-.26,11.92-.26,26.62-.26S99.91,32.8,99.91,32.94Z" style="fill:#e0e0e0"></path><path d="M110,32.13c.09.11-14.38,12.22-32.33,27.05S45.11,85.93,45,85.82s14.38-12.22,32.33-27S109.92,32,110,32.13Z" style="fill:#e0e0e0"></path><path d="M112.22,82.05c-.09.12-15-10.36-33.22-23.39S46,35,46.08,34.84,61,45.2,79.3,58.24,112.3,81.94,112.22,82.05Z" style="fill:#e0e0e0"></path><path d="M290,122.08c-.14,0-.26-12.81-.26-28.61s.12-28.61.26-28.61.26,12.81.26,28.61S290.11,122.08,290,122.08Z" style="fill:#e0e0e0"></path><path d="M355.18,119.42c0,.15-15.2.26-33.94.26s-33.94-.11-33.94-.26,15.19-.26,33.94-.26S355.18,119.28,355.18,119.42Z" style="fill:#e0e0e0"></path><path d="M356.51,116.76c-.15,0-.26-11-.26-24.62s.11-24.62.26-24.62.26,11,.26,24.62S356.65,116.76,356.51,116.76Z" style="fill:#e0e0e0"></path><path d="M344.53,66.19c0,.14-11.92.26-26.62.26s-26.61-.12-26.61-.26,11.91-.26,26.61-.26S344.53,66,344.53,66.19Z" style="fill:#e0e0e0"></path><path d="M75.23,435.23c-.14,0-.26-12.81-.26-28.61s.12-28.62.26-28.62.26,12.81.26,28.62S75.37,435.23,75.23,435.23Z" style="fill:#e0e0e0"></path><path d="M170.62,432.57c0,.14-22.23.26-49.64.26s-49.64-.12-49.64-.26,22.22-.26,49.64-.26S170.62,432.42,170.62,432.57Z" style="fill:#e0e0e0"></path><path d="M172.57,429.9c-.15,0-.26-11-.26-24.62s.11-24.62.26-24.62.26,11,.26,24.62S172.71,429.9,172.57,429.9Z" style="fill:#e0e0e0"></path><path d="M155.05,379.33c0,.15-17.44.26-38.94.26s-38.93-.11-38.93-.26,17.43-.26,38.93-.26S155.05,379.19,155.05,379.33Z" style="fill:#e0e0e0"></path><path d="M414.71,424.47c0-.27.85-.49,1.89-.49l-.49.49h0v-.17c0-.06,0-.12,0-.19s0-.21,0-.35a4.57,4.57,0,0,1,.1-.61c.09-.34.22-.55.35-.55s.26.21.35.55c0,.18.08.38.11.61s0,.26,0,.35v.36h0c-.22.22.5-.49-.49.5C415.56,425,414.71,424.75,414.71,424.47Z" style="fill:#e0e0e0"></path><path d="M407.12,424.47c0-.27.85-.49,1.9-.49s1.9.22,1.9.49-.85.5-1.9.5S407.12,424.75,407.12,424.47Z" style="fill:#e0e0e0"></path><path d="M399.54,424.47c0-.27.85-.49,1.9-.49s1.89.22,1.89.49-.84.5-1.89.5S399.54,424.75,399.54,424.47Z" style="fill:#e0e0e0"></path><path d="M392,424.47c0-.27.85-.49,1.9-.49s1.89.22,1.89.49-.85.5-1.89.5S392,424.75,392,424.47Z" style="fill:#e0e0e0"></path><path d="M384.38,424.47c0-.27.85-.49,1.9-.49s1.89.22,1.89.49-.85.5-1.89.5S384.38,424.75,384.38,424.47Z" style="fill:#e0e0e0"></path><path d="M376.8,424.47c0-.27.85-.49,1.89-.49s1.9.22,1.9.49-.85.5-1.9.5S376.8,424.75,376.8,424.47Z" style="fill:#e0e0e0"></path><path d="M369.22,424.47c0-.27.85-.49,1.89-.49s1.9.22,1.9.49-.85.5-1.9.5S369.22,424.75,369.22,424.47Z" style="fill:#e0e0e0"></path><path d="M361.63,424.47c0-.27.85-.49,1.9-.49s1.9.22,1.9.49-.85.5-1.9.5S361.63,424.75,361.63,424.47Z" style="fill:#e0e0e0"></path><path d="M354.05,424.47c0-.27.85-.49,1.9-.49s1.89.22,1.89.49-.84.5-1.89.5S354.05,424.75,354.05,424.47Z" style="fill:#e0e0e0"></path><path d="M346.47,424.47c0-.27.85-.49,1.9-.49s1.89.22,1.89.49-.85.5-1.89.5S346.47,424.75,346.47,424.47Z" style="fill:#e0e0e0"></path><path d="M338.89,424.47c0-.27.85-.49,1.89-.49s1.9.22,1.9.49-.85.5-1.9.5S338.89,424.75,338.89,424.47Z" style="fill:#e0e0e0"></path><path d="M331.31,424.47c0-.27.85-.49,1.89-.49s1.9.22,1.9.49-.85.5-1.9.5S331.31,424.75,331.31,424.47Z" style="fill:#e0e0e0"></path><path d="M323.73,424.47c0-.27.84-.49,1.89-.49s1.9.22,1.9.49-.85.5-1.9.5S323.73,424.75,323.73,424.47Z" style="fill:#e0e0e0"></path><path d="M316.14,424.47c0-.27.85-.49,1.9-.49s1.9.22,1.9.49-.85.5-1.9.5S316.14,424.75,316.14,424.47Z" style="fill:#e0e0e0"></path><path d="M308.56,424.47c0-.27.85-.49,1.9-.49s1.89.22,1.89.49-.84.5-1.89.5S308.56,424.75,308.56,424.47Z" style="fill:#e0e0e0"></path><path d="M302.88,422.58c.27,0,.49.85.49,1.89l-.49-.49h.38l.35,0a4.31,4.31,0,0,1,.61.1c.34.09.55.22.55.35s-.21.26-.55.35a4.21,4.21,0,0,1-.61.11l-.35,0h-.38l-.5-.5C302.38,423.43,302.6,422.58,302.88,422.58Z" style="fill:#e0e0e0"></path><path d="M302.88,415c.27,0,.49.85.49,1.89s-.22,1.88-.49,1.88-.5-.84-.5-1.88S302.6,415,302.88,415Z" style="fill:#e0e0e0"></path><path d="M302.88,407.51c.27,0,.49.84.49,1.88s-.22,1.89-.49,1.89-.5-.85-.5-1.89S302.6,407.51,302.88,407.51Z" style="fill:#e0e0e0"></path><path d="M302.88,400c.27,0,.49.85.49,1.89s-.22,1.88-.49,1.88-.5-.84-.5-1.88S302.6,400,302.88,400Z" style="fill:#e0e0e0"></path><path d="M302.88,392.44c.27,0,.49.84.49,1.88s-.22,1.89-.49,1.89-.5-.85-.5-1.89S302.6,392.44,302.88,392.44Z" style="fill:#e0e0e0"></path><path d="M302.88,384.9c.27,0,.49.85.49,1.89s-.22,1.88-.49,1.88-.5-.84-.5-1.88S302.6,384.9,302.88,384.9Z" style="fill:#e0e0e0"></path><path d="M302.88,377.37c.27,0,.49.84.49,1.88s-.22,1.89-.49,1.89-.5-.85-.5-1.89S302.6,377.37,302.88,377.37Z" style="fill:#e0e0e0"></path><path d="M302.88,369.83c.27,0,.49.85.49,1.89s-.22,1.88-.49,1.88-.5-.84-.5-1.88S302.6,369.83,302.88,369.83Z" style="fill:#e0e0e0"></path><path d="M302.88,362.3c.27,0,.49.84.49,1.88s-.22,1.89-.49,1.89-.5-.85-.5-1.89S302.6,362.3,302.88,362.3Z" style="fill:#e0e0e0"></path><path d="M304.77,356.64c0,.27-.85.49-1.89.49l.49-.49h0V357q0,.14,0,.36a4.4,4.4,0,0,1-.1.6c-.09.34-.22.55-.35.55s-.26-.21-.35-.55a4.32,4.32,0,0,1-.11-.6q0-.22,0-.36v-.36h0l.5-.5C303.92,356.14,304.77,356.37,304.77,356.64Z" style="fill:#e0e0e0"></path><path d="M312.35,356.64c0,.27-.85.49-1.89.49s-1.9-.22-1.9-.49.85-.5,1.9-.5S312.35,356.37,312.35,356.64Z" style="fill:#e0e0e0"></path><path d="M319.94,356.64c0,.27-.85.49-1.9.49s-1.9-.22-1.9-.49.85-.5,1.9-.5S319.94,356.37,319.94,356.64Z" style="fill:#e0e0e0"></path><path d="M327.52,356.64c0,.27-.85.49-1.9.49s-1.89-.22-1.89-.49.84-.5,1.89-.5S327.52,356.37,327.52,356.64Z" style="fill:#e0e0e0"></path><path d="M335.1,356.64c0,.27-.85.49-1.9.49s-1.89-.22-1.89-.49.85-.5,1.89-.5S335.1,356.37,335.1,356.64Z" style="fill:#e0e0e0"></path><path d="M342.68,356.64c0,.27-.85.49-1.89.49s-1.9-.22-1.9-.49.85-.5,1.9-.5S342.68,356.37,342.68,356.64Z" style="fill:#e0e0e0"></path><path d="M350.26,356.64c0,.27-.85.49-1.89.49s-1.9-.22-1.9-.49.85-.5,1.9-.5S350.26,356.37,350.26,356.64Z" style="fill:#e0e0e0"></path><path d="M357.84,356.64c0,.27-.84.49-1.89.49s-1.9-.22-1.9-.49.85-.5,1.9-.5S357.84,356.37,357.84,356.64Z" style="fill:#e0e0e0"></path><path d="M365.43,356.64c0,.27-.85.49-1.9.49s-1.9-.22-1.9-.49.85-.5,1.9-.5S365.43,356.37,365.43,356.64Z" style="fill:#e0e0e0"></path><path d="M373,356.64c0,.27-.85.49-1.9.49s-1.89-.22-1.89-.49.84-.5,1.89-.5S373,356.37,373,356.64Z" style="fill:#e0e0e0"></path><path d="M380.59,356.64c0,.27-.85.49-1.9.49s-1.89-.22-1.89-.49.85-.5,1.89-.5S380.59,356.37,380.59,356.64Z" style="fill:#e0e0e0"></path><path d="M388.17,356.64c0,.27-.85.49-1.89.49s-1.9-.22-1.9-.49.85-.5,1.9-.5S388.17,356.37,388.17,356.64Z" style="fill:#e0e0e0"></path><path d="M395.75,356.64c0,.27-.85.49-1.89.49s-1.9-.22-1.9-.49.85-.5,1.9-.5S395.75,356.37,395.75,356.64Z" style="fill:#e0e0e0"></path><path d="M403.33,356.64c0,.27-.84.49-1.89.49s-1.9-.22-1.9-.49.85-.5,1.9-.5S403.33,356.37,403.33,356.64Z" style="fill:#e0e0e0"></path><path d="M410.92,356.64c0,.27-.85.49-1.9.49s-1.9-.22-1.9-.49.85-.5,1.9-.5S410.92,356.37,410.92,356.64Z" style="fill:#e0e0e0"></path><path d="M416.6,358.53c-.27,0-.49-.85-.49-1.89l.49.49h-.38l-.36,0a4.4,4.4,0,0,1-.6-.1c-.34-.09-.55-.22-.55-.35s.21-.26.55-.35a4.32,4.32,0,0,1,.6-.11l.36,0h.38c.22.22-.49-.49.49.5C417.09,357.68,416.87,358.53,416.6,358.53Z" style="fill:#e0e0e0"></path><path d="M416.6,366.07c-.27,0-.49-.85-.49-1.89s.22-1.88.49-1.88.49.84.49,1.88S416.87,366.07,416.6,366.07Z" style="fill:#e0e0e0"></path><path d="M416.6,373.6c-.27,0-.49-.84-.49-1.88s.22-1.89.49-1.89.49.85.49,1.89S416.87,373.6,416.6,373.6Z" style="fill:#e0e0e0"></path><path d="M416.6,381.14c-.27,0-.49-.85-.49-1.89s.22-1.88.49-1.88.49.84.49,1.88S416.87,381.14,416.6,381.14Z" style="fill:#e0e0e0"></path><path d="M416.6,388.67c-.27,0-.49-.84-.49-1.88s.22-1.89.49-1.89.49.85.49,1.89S416.87,388.67,416.6,388.67Z" style="fill:#e0e0e0"></path><path d="M416.6,396.21c-.27,0-.49-.85-.49-1.89s.22-1.88.49-1.88.49.84.49,1.88S416.87,396.21,416.6,396.21Z" style="fill:#e0e0e0"></path><path d="M416.6,403.74c-.27,0-.49-.84-.49-1.88s.22-1.89.49-1.89.49.85.49,1.89S416.87,403.74,416.6,403.74Z" style="fill:#e0e0e0"></path><path d="M416.6,411.28c-.27,0-.49-.85-.49-1.89s.22-1.88.49-1.88.49.84.49,1.88S416.87,411.28,416.6,411.28Z" style="fill:#e0e0e0"></path><path d="M416.6,418.81c-.27,0-.49-.84-.49-1.88s.22-1.89.49-1.89.49.85.49,1.89S416.87,418.81,416.6,418.81Z" style="fill:#e0e0e0"></path><rect x="300.17" y="421.21" width="5.42" height="5.42" style="fill:#e0e0e0"></rect><rect x="300.17" y="353.93" width="5.42" height="5.42" style="fill:#e0e0e0"></rect><rect x="413.89" y="353.93" width="5.42" height="5.42" style="fill:#e0e0e0"></rect><rect x="413.89" y="420.96" width="5.42" height="5.42" style="fill:#e0e0e0"></rect><rect x="357.03" y="420.96" width="5.42" height="5.42" style="fill:#e0e0e0"></rect><rect x="357.03" y="353.93" width="5.42" height="5.42" style="fill:#e0e0e0"></rect><rect x="300.17" y="387.84" width="5.42" height="5.42" style="fill:#e0e0e0"></rect><rect x="413.89" y="387.84" width="5.42" height="5.42" style="fill:#e0e0e0"></rect></g><g id="freepik--Screens--inject-117"><path d="M98.89,102.47a2.6,2.6,0,1,1-2.59-2.6A2.59,2.59,0,0,1,98.89,102.47Z" style="fill:#81E36A"></path><path d="M173.36,96.07a2.6,2.6,0,1,1-2.6-2.6A2.61,2.61,0,0,1,173.36,96.07Z" style="fill:#81E36A"></path><path d="M96.8,100.51h-1V79.08c0-9.65,6.29-17.49,14-17.49h23.8c7.74,0,14,7.84,14,17.49V89.15c0,3.54,2.25,6.42,5,6.42h17.83v1H152.68c-3.31,0-6-3.33-6-7.42V79.08c0-9.09-5.85-16.49-13-16.49h-23.8c-7.19,0-13,7.4-13,16.49Z" style="fill:#81E36A"></path><path d="M247.81,52.65a2.6,2.6,0,1,1-2.6-2.6A2.6,2.6,0,0,1,247.81,52.65Z" style="fill:#81E36A"></path><path d="M386.25,107.69a2.6,2.6,0,1,1-2.6-2.59A2.6,2.6,0,0,1,386.25,107.69Z" style="fill:#81E36A"></path><path d="M384.15,107.69h-1V48.26A20.78,20.78,0,0,0,362.4,27.51H266.46a20.78,20.78,0,0,0-20.75,20.75v4.39h-1V48.26a21.77,21.77,0,0,1,21.75-21.75H362.4a21.77,21.77,0,0,1,21.75,21.75Z" style="fill:#81E36A"></path><path d="M436.2,108.15l-19.36-.09a4.81,4.81,0,0,0-4.72,4.9l0,3.51a4.81,4.81,0,0,1-4.72,4.9l-37.75-.18a4.81,4.81,0,0,1-4.68-4.94v-3.51a4.82,4.82,0,0,0-4.68-4.94l-6.81,0-17-.08a15.25,15.25,0,0,0-15.31,15.18l-1,244.41a15.25,15.25,0,0,0,15.17,15.3L435,383a15.24,15.24,0,0,0,15.31-15.17l1-244.41A15.24,15.24,0,0,0,436.2,108.15Z" style="fill:#fafafa"></path><path d="M450.34,117.68a15.37,15.37,0,0,0-6.36-7.39,14.36,14.36,0,0,0-5.71-2,10.47,10.47,0,0,0-1.54-.12l-.53,0,.52,0a11.37,11.37,0,0,1,1.54.15,14.43,14.43,0,0,1,5.67,2,15.24,15.24,0,0,1,6.27,7.36c1.61,3.64.93,8.28,1,13.32-.11,20.31-.26,49.68-.45,86s-.37,79.52-.59,127.51q0,9-.08,18.22l0,4.62a15.74,15.74,0,0,1-.58,4.53,15.38,15.38,0,0,1-1.91,4.16,15.88,15.88,0,0,1-3.1,3.4,15,15,0,0,1-8.55,3.28c-3.14.08-6.35,0-9.55,0L407,382.66l-39.82-.19-20.37-.1-10.29,0a15.65,15.65,0,0,1-9.65-2.7,15.17,15.17,0,0,1-5.82-8.11,16.26,16.26,0,0,1-.59-5c0-1.72,0-3.43,0-5.14q0-10.26.08-20.38.09-20.22.17-39.83c.1-26.12.2-51.32.3-75.31s.18-46.81.26-68.15q.06-16,.12-30.89c.07-2.47-.18-5,.41-7.28a15.26,15.26,0,0,1,3.15-6.29,15.1,15.1,0,0,1,12.18-5.35l13.28.05,6.39,0h3.13a4.52,4.52,0,0,1,2.83.79,4.74,4.74,0,0,1,1.74,2.31,7.83,7.83,0,0,1,.29,2.91c0,1-.06,2,0,3a5.11,5.11,0,0,0,1.2,2.71,4.84,4.84,0,0,0,2.47,1.54,5.42,5.42,0,0,0,1.44.14h1.4l5.5,0,20.09.07,8.86,0c.71,0,1.39,0,2.1,0a4.61,4.61,0,0,0,2-.69,5,5,0,0,0,2.23-3.18,8.7,8.7,0,0,0,.12-1.89c0-.62,0-1.23,0-1.82a10,10,0,0,1,.08-1.75,5,5,0,0,1,.55-1.58,4.71,4.71,0,0,1,2.36-2.08,7.53,7.53,0,0,1,3-.31l9.88,0h6.08c1.37,0,2.07,0,2.07,0l-2.07,0-6.07-.06-9.89-.07a7.73,7.73,0,0,0-3,.31,4.83,4.83,0,0,0-2.45,2.15,5.35,5.35,0,0,0-.59,1.64,10.45,10.45,0,0,0-.08,1.77c0,.6,0,1.21,0,1.83a8.68,8.68,0,0,1-.13,1.84,4.78,4.78,0,0,1-2.14,3,4.41,4.41,0,0,1-1.86.65c-.66,0-1.38,0-2.08,0l-8.85-.06-20.1-.11-5.5,0a13.37,13.37,0,0,1-2.77-.15,4.44,4.44,0,0,1-2.31-1.45,4.81,4.81,0,0,1-1.12-2.54c-.09-.93,0-2,0-2.93a8.23,8.23,0,0,0-.3-3,5.07,5.07,0,0,0-1.86-2.47,5,5,0,0,0-3-.86h-3.13l-6.39,0-13.28-.07a16,16,0,0,0-6.79,1.26,15.74,15.74,0,0,0-5.68,4.21,15.54,15.54,0,0,0-3.24,6.46c-.16.59-.21,1.21-.32,1.81s-.08,1.24-.09,1.86c0,1.22,0,2.45,0,3.69q-.08,14.87-.15,30.89c-.1,21.34-.2,44.14-.31,68.14s-.22,49.2-.33,75.31q-.09,19.59-.18,39.84,0,10.13-.08,20.38l0,5.14a17.12,17.12,0,0,0,.62,5.17,15.69,15.69,0,0,0,6,8.39,16.17,16.17,0,0,0,9.94,2.79l10.28,0,20.37.1,39.83.18,19.41.08c3.21,0,6.38.08,9.58,0a15.56,15.56,0,0,0,8.84-3.39,16.41,16.41,0,0,0,3.19-3.52,15.36,15.36,0,0,0,2-4.3,16.4,16.4,0,0,0,.61-4.66c0-1.54,0-3.08,0-4.62q0-9.21.08-18.21c.18-48,.34-91.21.48-127.51s.21-65.67.28-86c0-2.54,0-4.93,0-7.18A15.78,15.78,0,0,0,450.34,117.68Z" style="fill:#263238"></path><path d="M432.78,383.66l-3,0h-3.4l-89.9-.41a16.47,16.47,0,0,1-10.15-2.85,15.94,15.94,0,0,1-6.17-8.6,17,17,0,0,1-.63-5.28l1.09-243.39c0-.48,0-1,.07-1.46l0-.41c0-.25.08-.46.11-.67a10.87,10.87,0,0,1,.23-1.22,16,16,0,0,1,3.31-6.6,15.82,15.82,0,0,1,12.77-5.6l22.8.12a5.3,5.3,0,0,1,3.22.92,5.51,5.51,0,0,1,2,2.66,6.82,6.82,0,0,1,.32,2.62c0,.17,0,.35,0,.52,0,.35,0,.7,0,1.06a15.67,15.67,0,0,0,0,1.83,4.34,4.34,0,0,0,1,2.34,4.15,4.15,0,0,0,2.11,1.33,7.57,7.57,0,0,0,1.81.13c.3,0,.59,0,.89,0l34.44.2h.75a11,11,0,0,0,1.29,0,3.94,3.94,0,0,0,1.69-.59,4.41,4.41,0,0,0,2-2.81,6.62,6.62,0,0,0,.12-1.49v-2.51a7.08,7.08,0,0,1,.1-1.44,5.66,5.66,0,0,1,.62-1.74A5.24,5.24,0,0,1,415,108a6.08,6.08,0,0,1,2.56-.33h.6l16,.12,2.07,0h.53a2.36,2.36,0,0,0,.38,0,7.59,7.59,0,0,1,1.22.11,14.77,14.77,0,0,1,5.84,2,15.73,15.73,0,0,1,6.51,7.57h0a16.18,16.18,0,0,1,1.14,6.34v7.18l-.36,105.81L451,367.38a16.64,16.64,0,0,1-.62,4.77,15.63,15.63,0,0,1-2,4.4,17,17,0,0,1-3.27,3.6,15.78,15.78,0,0,1-9.06,3.47C434.92,383.65,433.85,383.66,432.78,383.66Zm-6.1-1.29,3.1,0c2,0,4.13,0,6.16,0a14.58,14.58,0,0,0,8.33-3.19,15.9,15.9,0,0,0,3-3.32,14.75,14.75,0,0,0,1.86-4.06,15.52,15.52,0,0,0,.57-4.42l1.14-236.32c0-1.31,0-2.6,0-3.84.07-3.45.14-6.71-1-9.33a14.88,14.88,0,0,0-6.11-7.19,14.22,14.22,0,0,0-5.53-2,6.39,6.39,0,0,0-1.1-.12l-.43,0-.49,0-2.06,0-16,0c-.2,0-.41,0-.63,0a5.15,5.15,0,0,0-2.19.28,4.31,4.31,0,0,0-2.18,1.92,4.61,4.61,0,0,0-.51,1.46,6.52,6.52,0,0,0-.08,1.27V116a7.1,7.1,0,0,1-.14,1.7,5.31,5.31,0,0,1-2.39,3.42,5,5,0,0,1-2.11.74c-.48,0-.94,0-1.39,0h-.74L370,121.72a5.65,5.65,0,0,1-1.54-.16,5.23,5.23,0,0,1-2.66-1.66,5.44,5.44,0,0,1-1.28-2.9,16.51,16.51,0,0,1-.05-2c0-.35,0-.69,0-1,0-.19,0-.37,0-.55a6,6,0,0,0-.26-2.23,4.36,4.36,0,0,0-1.62-2.14,4.14,4.14,0,0,0-2.59-.73l-22.82-.08a15.32,15.32,0,0,0-6.49,1.2,15.12,15.12,0,0,0-5.4,4,14.84,14.84,0,0,0-3.07,6.14,20.16,20.16,0,0,0-.4,5.14c0,.68,0,1.37,0,2.06l-.95,239.69a16.05,16.05,0,0,0,.58,4.91,14.64,14.64,0,0,0,5.68,7.91,15.24,15.24,0,0,0,9.41,2.63l89.91.42Z" style="fill:#263238"></path><path d="M334.46,157.49a3.12,3.12,0,0,1-.76-.53c-.46-.37-1.13-.93-1.93-1.63-1.61-1.4-3.78-3.41-6.07-5.74l-.17-.18.16-.18.13-.14c2.2-2.47,4.21-4.68,5.68-6.27a23.92,23.92,0,0,1,2.47-2.5,24.2,24.2,0,0,1-2.19,2.74c-1.41,1.65-3.38,3.91-5.57,6.38l-.13.14v-.36c2.29,2.33,4.4,4.37,5.95,5.84A25.33,25.33,0,0,1,334.46,157.49Z" style="fill:#81E36A"></path><path d="M343.7,161.6a101.22,101.22,0,0,1-.05-10.26,96.91,96.91,0,0,1,.47-10.25,101.13,101.13,0,0,1,.05,10.26A97.13,97.13,0,0,1,343.7,161.6Z" style="fill:#81E36A"></path><path d="M430.47,141.1c0,.14-19.27.2-43,.14s-43-.24-43-.38,19.26-.21,43-.14S430.47,141,430.47,141.1Z" style="fill:#81E36A"></path><path d="M430.93,157.36a61.23,61.23,0,0,1-.49-8.13,63.78,63.78,0,0,1,0-8.13,65.1,65.1,0,0,1,.49,8.12A66.35,66.35,0,0,1,430.93,157.36Z" style="fill:#81E36A"></path><path d="M408.57,145.48a1.36,1.36,0,0,1,.69-.34,2.94,2.94,0,0,1,2.05.36,3.24,3.24,0,0,1,1.68,2.6,2.58,2.58,0,0,1-.64,1.79,3.57,3.57,0,0,1-1.72,1.08,3.69,3.69,0,0,1-2,0,2.81,2.81,0,0,1-1.51-1.16,3.53,3.53,0,0,1-.22-3.09,3.3,3.3,0,0,1,1.31-1.62,1.33,1.33,0,0,1,.72-.25c0,.05-.24.14-.6.42a3.28,3.28,0,0,0-1.08,1.58,3.13,3.13,0,0,0,.27,2.69,2.34,2.34,0,0,0,1.27.94,3.18,3.18,0,0,0,1.73,0,2.56,2.56,0,0,0,2-2.36,3.05,3.05,0,0,0-3.22-2.77C408.83,145.4,408.6,145.53,408.57,145.48Z" style="fill:#81E36A"></path><path d="M420.3,155.15a33.45,33.45,0,0,1-5-3,33.6,33.6,0,0,1-4.73-3.47,66.38,66.38,0,0,1,9.75,6.51Z" style="fill:#81E36A"></path><path d="M336.51,233.68c-.14,0-.45-12.87-.69-28.74s-.32-28.74-.17-28.74.45,12.86.69,28.74S336.66,233.68,336.51,233.68Z" style="fill:#81E36A"></path><path d="M406.1,178.33c0,.14-15.73.26-35.12.26s-35.13-.12-35.13-.26,15.73-.26,35.13-.26S406.1,178.18,406.1,178.33Z" style="fill:#81E36A"></path><path d="M404,232.61c-.14,0-.26-11.68-.26-26.08s.12-26.07.26-26.07.26,11.67.26,26.07S404.11,232.61,404,232.61Z" style="fill:#81E36A"></path><path d="M413.55,232.61c0,.14-17.63.26-39.38.26s-39.38-.12-39.38-.26,17.63-.26,39.38-.26S413.55,232.46,413.55,232.61Z" style="fill:#81E36A"></path><path d="M401.84,220.9c0,.14-12.39.26-27.67.26s-27.67-.12-27.67-.26,12.38-.26,27.67-.26S401.84,220.76,401.84,220.9Z" style="fill:#81E36A"></path><path d="M384.81,211.32c0,.14-7.62.26-17,.26s-17-.12-17-.26,7.63-.26,17-.26S384.81,211.18,384.81,211.32Z" style="fill:#81E36A"></path><path d="M343.15,186.66s.06-.08.2-.21a3.16,3.16,0,0,1,.7-.48,4.89,4.89,0,0,1,3.08-.39,5.23,5.23,0,0,1,3.71,2.68,4.21,4.21,0,0,1,.32,2.77,5.54,5.54,0,0,1-4,4.1,4.23,4.23,0,0,1-2.78-.28,5.25,5.25,0,0,1-2.73-3.68,4.8,4.8,0,0,1,.35-3.08,3,3,0,0,1,.47-.71c.12-.14.2-.21.21-.2s-.23.34-.5,1a5.09,5.09,0,0,0,2.4,6.24,3.68,3.68,0,0,0,2.46.22,5.09,5.09,0,0,0,3.66-3.71,3.71,3.71,0,0,0-.26-2.45,4.89,4.89,0,0,0-3.35-2.53,4.94,4.94,0,0,0-2.92.21C343.48,186.43,343.19,186.71,343.15,186.66Z" style="fill:#81E36A"></path><path d="M419.62,233.68c-.15,0-.43-12.87-.63-28.74s-.25-28.74-.11-28.74.43,12.86.63,28.74S419.76,233.68,419.62,233.68Z" style="fill:#81E36A"></path><path d="M478.71,178.33c0,.14-13.36.26-29.83.26s-29.82-.12-29.82-.26,13.35-.26,29.82-.26S478.71,178.18,478.71,178.33Z" style="fill:#81E36A"></path><path d="M476.9,232.61c-.14,0-.26-11.68-.26-26.08s.12-26.07.26-26.07.26,11.67.26,26.07S477,232.61,476.9,232.61Z" style="fill:#81E36A"></path><path d="M476.9,232.61c0,.14-13.15.26-29.37.26s-29.38-.12-29.38-.26,13.15-.26,29.38-.26S476.9,232.46,476.9,232.61Z" style="fill:#81E36A"></path><path d="M475.09,220.9c0,.14-10.52.26-23.49.26s-23.51-.12-23.51-.26,10.52-.26,23.51-.26S475.09,220.76,475.09,220.9Z" style="fill:#81E36A"></path><path d="M468.18,211.32c0,.14-7.63.26-17,.26s-17-.12-17-.26,7.62-.26,17-.26S468.18,211.18,468.18,211.32Z" style="fill:#81E36A"></path><path d="M426.51,186.66s.06-.08.2-.21a3.42,3.42,0,0,1,.7-.48,4.9,4.9,0,0,1,3.08-.39,5.23,5.23,0,0,1,3.71,2.68,4.15,4.15,0,0,1,.32,2.77,5.54,5.54,0,0,1-4,4.1,4.24,4.24,0,0,1-2.78-.28,5.21,5.21,0,0,1-2.72-3.68,4.81,4.81,0,0,1,.34-3.08,3,3,0,0,1,.47-.71c.13-.14.2-.21.21-.2s-.23.34-.5,1a5.09,5.09,0,0,0,2.4,6.24,3.68,3.68,0,0,0,2.46.22,5.09,5.09,0,0,0,3.66-3.71,3.71,3.71,0,0,0-.25-2.45,5.08,5.08,0,0,0-6.27-2.32C426.84,186.43,426.55,186.71,426.51,186.66Z" style="fill:#81E36A"></path><path d="M442.28,246.44c0,.15-23.82.26-53.21.26s-53.22-.11-53.22-.26,23.83-.26,53.22-.26S442.28,246.3,442.28,246.44Z" style="fill:#81E36A"></path><path d="M358.2,262.41c0,.14-4.76.26-10.64.26s-10.64-.12-10.64-.26,4.76-.26,10.64-.26S358.2,262.26,358.2,262.41Z" style="fill:#81E36A"></path><path d="M389.07,263.47a96.42,96.42,0,0,1-10.11.26,96.26,96.26,0,0,1-10.11-.26,99.65,99.65,0,0,1,10.11-.26A99.81,99.81,0,0,1,389.07,263.47Z" style="fill:#81E36A"></path><path d="M425.26,261.34a86.56,86.56,0,0,1-9.58.26,86.56,86.56,0,0,1-9.58-.26,89.61,89.61,0,0,1,9.58-.26A89.61,89.61,0,0,1,425.26,261.34Z" style="fill:#81E36A"></path><path d="M330.43,320.94c-.14,0-.26-10.24-.26-22.88s.12-22.88.26-22.88.26,10.24.26,22.88S330.58,320.94,330.43,320.94Z" style="fill:#81E36A"></path><path d="M382.58,318.82c0,.14-12.15.26-27.14.26s-27.14-.12-27.14-.26,12.15-.26,27.14-.26S382.58,318.67,382.58,318.82Z" style="fill:#81E36A"></path><path d="M383.65,316.69c-.15,0-.26-8.82-.26-19.69s.11-19.69.26-19.69.26,8.81.26,19.69S383.79,316.69,383.65,316.69Z" style="fill:#81E36A"></path><path d="M374.07,276.24c0,.15-9.53.26-21.29.26s-21.28-.11-21.28-.26S341,276,352.78,276,374.07,276.1,374.07,276.24Z" style="fill:#81E36A"></path><path d="M393.23,316.69c-.15,0-.26-8.58-.26-19.16s.11-19.16.26-19.16.26,8.58.26,19.16S393.37,316.69,393.23,316.69Z" style="fill:#81E36A"></path><path d="M443.25,318.82c0,.14-11.68.26-26.07.26s-26.08-.12-26.08-.26,11.67-.26,26.08-.26S443.25,318.67,443.25,318.82Z" style="fill:#81E36A"></path><path d="M440.92,318.28c-.14,0-.26-9-.26-20.22s.12-20.22.26-20.22.26,9.05.26,20.22S441.07,318.28,440.92,318.28Z" style="fill:#81E36A"></path><path d="M443.25,275.18c0,.14-11.46.26-25.6.26s-25.6-.12-25.6-.26,11.46-.26,25.6-.26S443.25,275,443.25,275.18Z" style="fill:#81E36A"></path><path d="M330.43,373.61c-.14,0-.26-10.24-.26-22.88s.12-22.88.26-22.88.26,10.24.26,22.88S330.58,373.61,330.43,373.61Z" style="fill:#81E36A"></path><path d="M382.58,371.49c0,.14-12.15.26-27.14.26s-27.14-.12-27.14-.26,12.15-.26,27.14-.26S382.58,371.34,382.58,371.49Z" style="fill:#81E36A"></path><path d="M383.65,369.36c-.15,0-.26-8.82-.26-19.69s.11-19.69.26-19.69.26,8.81.26,19.69S383.79,369.36,383.65,369.36Z" style="fill:#81E36A"></path><path d="M374.07,328.91c0,.15-9.53.26-21.29.26s-21.28-.11-21.28-.26,9.53-.26,21.28-.26S374.07,328.77,374.07,328.91Z" style="fill:#81E36A"></path><path d="M393.23,369.36c-.15,0-.26-8.58-.26-19.16s.11-19.16.26-19.16.26,8.58.26,19.16S393.37,369.36,393.23,369.36Z" style="fill:#81E36A"></path><path d="M443.25,371.49c0,.14-11.68.26-26.07.26s-26.08-.12-26.08-.26,11.67-.26,26.08-.26S443.25,371.34,443.25,371.49Z" style="fill:#81E36A"></path><path d="M440.92,371c-.14,0-.26-9.05-.26-20.22s.12-20.22.26-20.22.26,9.05.26,20.22S441.07,371,440.92,371Z" style="fill:#81E36A"></path><path d="M443.25,327.85c0,.14-11.46.26-25.6.26s-25.6-.12-25.6-.26,11.46-.26,25.6-.26S443.25,327.71,443.25,327.85Z" style="fill:#81E36A"></path><path d="M382.15,275.6c.09.11-11.47,9.81-25.82,21.67s-26.06,21.38-26.15,21.27,11.46-9.81,25.82-21.67S382.06,275.49,382.15,275.6Z" style="fill:#81E36A"></path><path d="M383.91,315.52c-.08.12-12-8.24-26.59-18.66s-26.39-19-26.3-19.1,12,8.24,26.6,18.67S384,315.4,383.91,315.52Z" style="fill:#81E36A"></path><path d="M442.85,279.15a2.68,2.68,0,0,1-.43.5L441.1,281c-1.15,1.17-2.86,2.83-5,4.84-4.3,4-10.43,9.35-17.58,14.77s-14,9.89-19,12.94c-2.51,1.53-4.57,2.72-6,3.51l-1.66.91a4.76,4.76,0,0,1-.6.29,2.65,2.65,0,0,1,.55-.38l1.61-1c1.41-.84,3.43-2.09,5.91-3.65,5-3.13,11.72-7.64,18.86-13s13.3-10.7,17.65-14.64c2.18-2,3.92-3.58,5.12-4.71l1.38-1.28A3,3,0,0,1,442.85,279.15Z" style="fill:#81E36A"></path><path d="M442.33,317.77a3,3,0,0,1-.51-.43l-1.39-1.29-5.1-4.78c-4.33-4-10.41-9.43-17.37-15.13s-13.5-10.57-18.29-14c-2.36-1.68-4.3-3.05-5.69-4.05l-1.55-1.1a4.16,4.16,0,0,1-.52-.41,2.47,2.47,0,0,1,.58.32l1.6,1c1.39.89,3.37,2.22,5.79,3.91,4.85,3.37,11.43,8.21,18.41,13.91s13,11.18,17.29,15.26c2.14,2,3.84,3.72,5,4.9.55.56,1,1,1.32,1.37A4,4,0,0,1,442.33,317.77Z" style="fill:#81E36A"></path><path d="M443.13,330c.09.12-11.19,9.41-25.2,20.75s-25.43,20.46-25.52,20.34,11.19-9.4,25.2-20.74S443,329.88,443.13,330Z" style="fill:#81E36A"></path><path d="M443.53,371.68a3.47,3.47,0,0,1-.49-.41L441.71,370l-4.87-4.59c-4.12-3.87-9.89-9.14-16.45-14.75s-12.66-10.49-17.12-14l-5.29-4.1-1.44-1.12a3.56,3.56,0,0,1-.48-.42,2.92,2.92,0,0,1,.54.34l1.5,1c1.29.91,3.14,2.27,5.4,4,4.52,3.4,10.66,8.24,17.23,13.86s12.3,10.93,16.36,14.87c2,2,3.66,3.58,4.76,4.72l1.27,1.31C443.4,371.5,443.55,371.66,443.53,371.68Z" style="fill:#81E36A"></path><path d="M383.24,327.68a2.8,2.8,0,0,1-.49.51l-1.47,1.37c-1.29,1.19-3.18,2.88-5.53,4.95-4.71,4.13-11.31,9.73-18.78,15.69S342.56,361.35,337.49,365c-2.54,1.83-4.61,3.3-6.05,4.29l-1.67,1.13a3.21,3.21,0,0,1-.6.37,3.48,3.48,0,0,1,.54-.45l1.61-1.21,5.95-4.43c5-3.74,11.9-9,19.37-14.93s14.1-11.5,18.87-15.56l5.63-4.82,1.54-1.3A5.11,5.11,0,0,1,383.24,327.68Z" style="fill:#81E36A"></path><path d="M386,369.54a3.7,3.7,0,0,1-.55-.4l-1.5-1.22c-1.3-1.08-3.18-2.61-5.53-4.49-4.69-3.76-11.28-8.82-18.82-14s-14.6-9.6-19.77-12.66c-2.59-1.53-4.69-2.75-6.15-3.58l-1.67-1a4.2,4.2,0,0,1-.57-.37,2.94,2.94,0,0,1,.62.28l1.72.89c1.49.78,3.62,1.95,6.23,3.44,5.23,3,12.33,7.33,19.89,12.55S374,359.3,378.64,363.14c2.32,1.92,4.17,3.5,5.43,4.62l1.44,1.3A3.37,3.37,0,0,1,386,369.54Z" style="fill:#81E36A"></path><path d="M296.12,53.11,276.75,53a4.81,4.81,0,0,0-4.72,4.9l0,3.51a4.8,4.8,0,0,1-4.72,4.89l-37.75-.17a4.82,4.82,0,0,1-4.68-4.94l0-3.51a4.82,4.82,0,0,0-4.69-4.94l-6.81,0-16.95-.08a15.23,15.23,0,0,0-15.3,15.17l-1,244.42a15.25,15.25,0,0,0,15.17,15.3l99.68.46a15.24,15.24,0,0,0,15.31-15.17l1-244.42A15.23,15.23,0,0,0,296.12,53.11Z" style="fill:#fafafa"></path><path d="M310.6,62.5a15.82,15.82,0,0,0-6.51-7.58,14.7,14.7,0,0,0-5.84-2,7.59,7.59,0,0,0-1.22-.11l-.38,0h-.53l-2.07,0-16-.12h-.61a6.28,6.28,0,0,0-2.56.34,5.27,5.27,0,0,0-2.64,2.31,5.81,5.81,0,0,0-.62,1.75,7.8,7.8,0,0,0-.09,1.43l0,2.52a6.09,6.09,0,0,1-.12,1.49,4.46,4.46,0,0,1-2,2.81,4.08,4.08,0,0,1-1.69.59,10.93,10.93,0,0,1-1.29,0h-.75l-34.44-.2h-.89a7,7,0,0,1-1.8-.14,4,4,0,0,1-2.12-1.33,4.34,4.34,0,0,1-1-2.33,15.67,15.67,0,0,1,0-1.83c0-.36,0-.72,0-1.07,0-.17,0-.34,0-.51a6.82,6.82,0,0,0-.32-2.62,5.51,5.51,0,0,0-2-2.66,5.24,5.24,0,0,0-3.22-.92l-22.8-.12a15.85,15.85,0,0,0-12.77,5.59A16.06,16.06,0,0,0,181,64.3a10.47,10.47,0,0,0-.23,1.22c0,.21-.06.42-.1.67l0,.43c0,.48-.06,1-.07,1.44l-1,217.88-.11,25.51a17.08,17.08,0,0,0,.63,5.28,16,16,0,0,0,6.17,8.59,16.43,16.43,0,0,0,10.15,2.86l89.9.41c1.13,0,2.27,0,3.4,0l3,0c1.07,0,2.14,0,3.21,0a15.85,15.85,0,0,0,9.06-3.47,17,17,0,0,0,3.27-3.6,15.63,15.63,0,0,0,2-4.4,16.64,16.64,0,0,0,.62-4.77l.5-130.37L311.73,76V68.84A16.18,16.18,0,0,0,310.6,62.5ZM297,53.56a6.29,6.29,0,0,1,1.1.12,14,14,0,0,1,5.53,2,14.83,14.83,0,0,1,6.11,7.19c1.17,2.62,1.1,5.87,1,9.32,0,1.25-.05,2.54,0,3.85l-1.14,236.31a15.54,15.54,0,0,1-.57,4.43,14.68,14.68,0,0,1-1.86,4.05,15.68,15.68,0,0,1-3,3.33,14.65,14.65,0,0,1-8.33,3.19c-2,.05-4.13,0-6.16,0l-3.1,0h-.28l-89.91-.42a15.28,15.28,0,0,1-9.41-2.63,14.64,14.64,0,0,1-5.68-7.91,16.34,16.34,0,0,1-.58-5l1-239.6c0-.69,0-1.38,0-2.06a20.16,20.16,0,0,1,.4-5.14,14.78,14.78,0,0,1,3.07-6.14,14.71,14.71,0,0,1,11.89-5.22l22.82.09a4.16,4.16,0,0,1,2.59.73,4.36,4.36,0,0,1,1.62,2.14,6,6,0,0,1,.26,2.23c0,.18,0,.36,0,.54,0,.35,0,.7,0,1a16.67,16.67,0,0,0,0,2,5.51,5.51,0,0,0,1.28,2.9,5.23,5.23,0,0,0,2.66,1.66,5.74,5.74,0,0,0,1.54.16l35.86.12h.73c.45,0,.92,0,1.4,0A5.18,5.18,0,0,0,270,66a5.36,5.36,0,0,0,2.39-3.42,7.1,7.1,0,0,0,.14-1.7V58.41a6.52,6.52,0,0,1,.08-1.27,4.61,4.61,0,0,1,.51-1.46,4.35,4.35,0,0,1,2.18-1.92,5.13,5.13,0,0,1,2.19-.28h.63l16,0h2.05l.49,0Z" style="fill:#263238"></path><path d="M198.6,96.07a3.93,3.93,0,0,1-.76-.54c-.46-.37-1.13-.92-1.93-1.62-1.61-1.4-3.78-3.41-6.07-5.75l-.17-.17.17-.18.12-.14c2.2-2.47,4.21-4.69,5.68-6.27a23.92,23.92,0,0,1,2.47-2.5,24.2,24.2,0,0,1-2.19,2.74c-1.41,1.65-3.38,3.91-5.57,6.38l-.13.14V87.8c2.28,2.33,4.39,4.37,5.94,5.84A25.33,25.33,0,0,1,198.6,96.07Z" style="fill:#81E36A"></path><path d="M280.55,89.62c0,.14-16.45.26-36.74.26s-36.75-.12-36.75-.26,16.45-.26,36.75-.26S280.55,89.47,280.55,89.62Z" style="fill:#81E36A"></path><path d="M292.12,80.13a2,2,0,0,1,.95-.37,4.16,4.16,0,0,1,4.13,1.84,3.69,3.69,0,0,1,.55,2.2,4.4,4.4,0,0,1-3,3.9A4.49,4.49,0,0,1,290.08,86a3.86,3.86,0,0,1-.8-2.11,4.52,4.52,0,0,1,2.07-4.06,1.87,1.87,0,0,1,.94-.37s-.32.16-.83.54a4.53,4.53,0,0,0-1.52,2.1,3.72,3.72,0,0,0,.52,3.61,4,4,0,0,0,4.13,1.47,3.93,3.93,0,0,0,2.68-3.44,3.4,3.4,0,0,0-1.68-3.18,4,4,0,0,0-2.5-.62C292.47,80,292.14,80.18,292.12,80.13Z" style="fill:#81E36A"></path><path d="M303.28,91a24.1,24.1,0,0,1-4.1-2.82,23.11,23.11,0,0,1-3.8-3.24,23.94,23.94,0,0,1,4.11,2.83A24.13,24.13,0,0,1,303.28,91Z" style="fill:#81E36A"></path><path d="M194.62,196.42c-.15,0-.27-18.16-.27-40.57s.12-40.57.27-40.57.26,18.16.26,40.57S194.76,196.42,194.62,196.42Z" style="fill:#81E36A"></path><path d="M236,196.42c0,.15-9.26.26-20.69.26s-20.68-.11-20.68-.26,9.26-.26,20.68-.26S236,196.28,236,196.42Z" style="fill:#81E36A"></path><path d="M240.83,108.83c.14,0,.26,19.37.26,43.26s-.12,43.26-.26,43.26-.26-19.37-.26-43.26S240.69,108.83,240.83,108.83Z" style="fill:#81E36A"></path><path d="M237.07,111.52c0,.14-9.39.26-21,.26s-21-.12-21-.26,9.38-.26,21-.26S237.07,111.37,237.07,111.52Z" style="fill:#81E36A"></path><path d="M249.17,218.24c-.15,0-.26-18.17-.26-40.57s.11-40.57.26-40.57.26,18.16.26,40.57S249.31,218.24,249.17,218.24Z" style="fill:#81E36A"></path><path d="M290.55,218.24c0,.14-9.27.26-20.69.26s-20.69-.12-20.69-.26,9.26-.26,20.69-.26S290.55,218.1,290.55,218.24Z" style="fill:#81E36A"></path><path d="M295.38,130.65c.15,0,.26,19.37.26,43.25s-.11,43.26-.26,43.26-.26-19.36-.26-43.26S295.24,130.65,295.38,130.65Z" style="fill:#81E36A"></path><path d="M291.62,133.33c0,.15-9.38.27-21,.27s-21-.12-21-.27,9.38-.26,21-.26S291.62,133.19,291.62,133.33Z" style="fill:#81E36A"></path><path d="M249.17,317.38c-.15,0-.26-18.16-.26-40.57s.11-40.57.26-40.57.26,18.16.26,40.57S249.31,317.38,249.17,317.38Z" style="fill:#81E36A"></path><path d="M290.55,317.38c0,.14-9.27.26-20.69.26s-20.69-.12-20.69-.26,9.26-.26,20.69-.26S290.55,317.24,290.55,317.38Z" style="fill:#81E36A"></path><path d="M295.38,229.79c.15,0,.26,19.37.26,43.26s-.11,43.26-.26,43.26-.26-19.37-.26-43.26S295.24,229.79,295.38,229.79Z" style="fill:#81E36A"></path><path d="M291.62,232.48c0,.14-9.38.26-21,.26s-21-.12-21-.26,9.38-.26,21-.26S291.62,232.33,291.62,232.48Z" style="fill:#81E36A"></path><path d="M194.62,298.61c-.15,0-.27-18.16-.27-40.57s.12-40.57.27-40.57.26,18.16.26,40.57S194.76,298.61,194.62,298.61Z" style="fill:#81E36A"></path><path d="M236,298.61c0,.15-9.26.26-20.69.26s-20.68-.11-20.68-.26,9.26-.26,20.68-.26S236,298.47,236,298.61Z" style="fill:#81E36A"></path><path d="M240.83,211c.14,0,.26,19.37.26,43.26s-.12,43.26-.26,43.26-.26-19.37-.26-43.26S240.69,211,240.83,211Z" style="fill:#81E36A"></path><path d="M237.07,213.71c0,.14-9.39.26-21,.26s-21-.12-21-.26,9.38-.26,21-.26S237.07,213.56,237.07,213.71Z" style="fill:#81E36A"></path><path d="M203,129.54a14.88,14.88,0,0,1-.26-2.8c-.09-1.73-.19-4.12-.26-6.77,0-.41,0-.82,0-1.21l.52,0a21.13,21.13,0,0,1-1.52,5.8,8.49,8.49,0,0,1-1.15,2.14,34,34,0,0,0,2.16-8l.51,0c0,.39,0,.8,0,1.21.08,2.64.11,5,.11,6.77A15.14,15.14,0,0,1,203,129.54Z" style="fill:#81E36A"></path><path d="M205.61,130.55a21.24,21.24,0,0,1-6.69-.25,11.31,11.31,0,0,1,3.35-.14A11.13,11.13,0,0,1,205.61,130.55Z" style="fill:#81E36A"></path><path d="M263.29,148.82a14.23,14.23,0,0,1-2.56.26c-1.59.1-3.82.21-6.36.31l-.64,0,.45-.46c.42-.42.84-.87,1.25-1.33a6.78,6.78,0,0,0,1.82-3.55,3.28,3.28,0,0,0-.95-2.94,2.75,2.75,0,0,0-2-.7,5.53,5.53,0,0,0-.81.18s.21-.27.78-.38a2.86,2.86,0,0,1,2.27.62,3.56,3.56,0,0,1,1.19,3.27,7,7,0,0,1-1.89,3.84c-.43.48-.86.93-1.28,1.35l-.19-.44c2.53-.07,4.76-.12,6.36-.13A14.44,14.44,0,0,1,263.29,148.82Z" style="fill:#81E36A"></path><path d="M198.29,232.11a7.37,7.37,0,0,1,.84.12,3.87,3.87,0,0,0,2.16-.43,3.39,3.39,0,0,0,1.87-2.49,3.76,3.76,0,0,0-1.49-3.45,3.36,3.36,0,0,0-.74-.4l-.65-.27.65-.22a2.8,2.8,0,0,0,2-2.69,2.19,2.19,0,0,0-1.69-2.07,2.09,2.09,0,0,0-1.8.59c-.34.34-.4.62-.45.6s0-.31.3-.73a2.27,2.27,0,0,1,2-.81,2.56,2.56,0,0,1,2.11,2.38,3.26,3.26,0,0,1-2.26,3.22V225a3.69,3.69,0,0,1,.87.47,4.17,4.17,0,0,1,1.66,3.94,3.71,3.71,0,0,1-2.18,2.75,3.79,3.79,0,0,1-2.35.3A1.69,1.69,0,0,1,198.29,232.11Z" style="fill:#81E36A"></path><path d="M259.56,246.64s0,.2-.22.47a2.29,2.29,0,0,1-1.2.74,3,3,0,0,1-2.09-.21,3.58,3.58,0,0,1-1.67-2,5.37,5.37,0,0,1-.28-2.53,9,9,0,0,1,.51-2,5.38,5.38,0,0,1,.82-1.67,9.07,9.07,0,0,1-.47,1.78,6.62,6.62,0,0,0-.09,4.21,3.32,3.32,0,0,0,1.4,1.73,2.77,2.77,0,0,0,1.79.27A2.88,2.88,0,0,0,259.56,246.64Z" style="fill:#81E36A"></path><path d="M259.15,259.85a85.67,85.67,0,0,1-.1-9.4,87,87,0,0,1,.42-9.4,86,86,0,0,1,.1,9.41A83.73,83.73,0,0,1,259.15,259.85Z" style="fill:#81E36A"></path><path d="M145.34,108.79,126,108.7a4.81,4.81,0,0,0-4.72,4.89l0,3.51a4.81,4.81,0,0,1-4.72,4.9l-37.74-.18a4.82,4.82,0,0,1-4.69-4.93l0-3.52a4.81,4.81,0,0,0-4.68-4.93l-6.81,0-17-.07A15.23,15.23,0,0,0,30.35,123.5l-1,244.41a15.22,15.22,0,0,0,15.16,15.3l99.68.46a15.23,15.23,0,0,0,15.31-15.17l1-244.41A15.25,15.25,0,0,0,145.34,108.79Z" style="fill:#fafafa"></path><path d="M159.82,118.17a15.68,15.68,0,0,0-6.51-7.57,14.71,14.71,0,0,0-5.83-2,6.82,6.82,0,0,0-1.23-.12h-.37l-.53,0-2.08,0-16-.13h-.61a6,6,0,0,0-2.55.34,5.1,5.1,0,0,0-2.64,2.31,5.4,5.4,0,0,0-.63,1.75,7.69,7.69,0,0,0-.09,1.43l0,2.51a6.76,6.76,0,0,1-.11,1.5,4.47,4.47,0,0,1-2,2.81,4.12,4.12,0,0,1-1.69.59c-.41,0-.83,0-1.29,0h-.75l-34.44-.19c-.29,0-.59,0-.89,0a7,7,0,0,1-1.8-.13,4.14,4.14,0,0,1-2.12-1.33,4.42,4.42,0,0,1-1-2.33,15.79,15.79,0,0,1,0-1.84c0-.35,0-.71,0-1.06v-.52a6.84,6.84,0,0,0-.32-2.62,5.28,5.28,0,0,0-5.23-3.58l-22.8-.12a15.86,15.86,0,0,0-12.76,5.6A15.92,15.92,0,0,0,30.2,120a10.87,10.87,0,0,0-.23,1.22c0,.21-.06.42-.1.68l0,.43c0,.48-.06,1-.07,1.44L28.68,367.13a17.44,17.44,0,0,0,.64,5.28A15.92,15.92,0,0,0,35.49,381a16.39,16.39,0,0,0,10.15,2.85l89.89.41,3.4,0h3c1.07,0,2.15,0,3.22,0a15.88,15.88,0,0,0,9.06-3.48,16.74,16.74,0,0,0,3.27-3.6,15.83,15.83,0,0,0,2-4.39,16.69,16.69,0,0,0,.62-4.77l.58-150.35.3-93.16A16.22,16.22,0,0,0,159.82,118.17Zm-13.57-8.94a6.49,6.49,0,0,1,1.1.12,14.18,14.18,0,0,1,5.52,2,14.94,14.94,0,0,1,6.12,7.19c1.16,2.62,1.1,5.88,1,9.33,0,1.24-.05,2.53,0,3.84L158.85,368a15.17,15.17,0,0,1-.57,4.42,14.46,14.46,0,0,1-1.86,4.06,15.39,15.39,0,0,1-3,3.32,14.61,14.61,0,0,1-8.33,3.2c-2,.05-4.1,0-6.12,0h-3.41l-89.91-.43A15.24,15.24,0,0,1,36.21,380,14.75,14.75,0,0,1,30.53,372a16.37,16.37,0,0,1-.58-4.91l1-239.68c0-.69,0-1.38,0-2.07a19.76,19.76,0,0,1,.39-5.14,14.84,14.84,0,0,1,3.07-6.14,14.74,14.74,0,0,1,11.89-5.21l22.82.09a4.23,4.23,0,0,1,2.6.72,4.45,4.45,0,0,1,1.61,2.14,5.83,5.83,0,0,1,.26,2.23v.55c0,.35,0,.69,0,1a16.46,16.46,0,0,0,0,2,5.45,5.45,0,0,0,1.29,2.9,5,5,0,0,0,2.66,1.66,5.58,5.58,0,0,0,1.53.16l35.86.13c.25,0,.49,0,.74,0a13.31,13.31,0,0,0,1.4,0,5.07,5.07,0,0,0,2.1-.73,5.37,5.37,0,0,0,2.4-3.43,7.63,7.63,0,0,0,.13-1.7v-2.51a6.54,6.54,0,0,1,.07-1.27,4.56,4.56,0,0,1,.52-1.46,4.31,4.31,0,0,1,2.17-1.91,5.37,5.37,0,0,1,2.2-.29h.62l16,0c1.23,0,1.92,0,2,0l.49,0C145.94,109.22,146.08,109.22,146.25,109.23Z" style="fill:#263238"></path><path d="M42.07,341.83c-.15,0-1.1-44.26-2.13-98.86s-1.74-98.88-1.6-98.88,1.1,44.25,2.12,98.87S42.21,341.83,42.07,341.83Z" style="fill:#81E36A"></path><path d="M142.07,141.44c0,.15-23.77.26-53.08.26s-53.09-.11-53.09-.26,23.76-.26,53.09-.26S142.07,141.3,142.07,141.44Z" style="fill:#81E36A"></path><path d="M154.68,351.79c-.15,0-.27-49.17-.27-109.81s.12-109.83.27-109.83.26,49.16.26,109.83S154.82,351.79,154.68,351.79Z" style="fill:#81E36A"></path><path d="M156.67,351.79c0,.14-26.15.26-58.39.26s-58.4-.12-58.4-.26,26.14-.26,58.4-.26S156.67,351.64,156.67,351.79Z" style="fill:#81E36A"></path><path d="M144,148.53a1.7,1.7,0,0,1,.48.13,2.66,2.66,0,0,1,.56.23,5.62,5.62,0,0,1,.73.41,8.13,8.13,0,0,1,3.46,7.85,7.11,7.11,0,0,1-1.88,3.78,8.49,8.49,0,0,1-4,2.38,7.63,7.63,0,0,1-8.78-3.49,8.72,8.72,0,0,1-1.35-4.46,7.51,7.51,0,0,1,1-4.09,8.56,8.56,0,0,1,2.5-2.69,8.83,8.83,0,0,1,5-1.62,4.31,4.31,0,0,1,.83,0,3.85,3.85,0,0,1,.6.09,2.44,2.44,0,0,1,.48.13c0,.06-.69-.12-1.91-.06a8.88,8.88,0,0,0-4.77,1.72,8.49,8.49,0,0,0-2.35,2.6,7.21,7.21,0,0,0-.92,3.87,8.23,8.23,0,0,0,1.3,4.2,7.58,7.58,0,0,0,3.55,3,7.49,7.49,0,0,0,4.67.22A8,8,0,0,0,147,160.6a6.68,6.68,0,0,0,1.81-3.52,7.69,7.69,0,0,0-.26-3.48,7.88,7.88,0,0,0-2.9-4.13A12.67,12.67,0,0,0,144,148.53Z" style="fill:#81E36A"></path><path d="M137.09,160a28.6,28.6,0,0,1,2.76-4.68,28.28,28.28,0,0,1,3.19-4.4,29.08,29.08,0,0,1-2.76,4.68A28.28,28.28,0,0,1,137.09,160Z" style="fill:#81E36A"></path><path d="M146.51,160.74a43,43,0,0,1-5.21-4.06,42.7,42.7,0,0,1-4.87-4.45,40.6,40.6,0,0,1,5.21,4.05A43.28,43.28,0,0,1,146.51,160.74Z" style="fill:#81E36A"></path><path d="M58.2,260.45c-.14,0-.26-16.28-.26-36.35s.12-36.36.26-36.36.26,16.27.26,36.36S58.34,260.45,58.2,260.45Z" style="fill:#81E36A"></path><path d="M138.42,259.8c0,.14-17.89.26-39.95.26s-39.94-.12-39.94-.26,17.88-.26,39.94-.26S138.42,259.66,138.42,259.8Z" style="fill:#81E36A"></path><path d="M137.44,192.3c.14,0,.26,15,.26,33.59s-.12,33.59-.26,33.59-.26-15-.26-33.59S137.29,192.3,137.44,192.3Z" style="fill:#81E36A"></path><path d="M138.42,189.7c0,.14-18.18.26-40.6.26s-40.6-.12-40.6-.26,18.18-.27,40.6-.27S138.42,189.55,138.42,189.7Z" style="fill:#81E36A"></path><path d="M97.23,243.34a2.39,2.39,0,0,1-.28-.47l-.74-1.4c-.64-1.21-1.57-3-2.79-5.09s-2.73-4.61-4.54-7.3C88,227.75,87,226.32,86,225a2.23,2.23,0,0,0-2.09-1,4.45,4.45,0,0,0-2.19,1.35c-5.1,5.44-9.44,10.66-12.51,14.48l-3.6,4.55-1,1.24a2.5,2.5,0,0,1-.37.41,1.87,1.87,0,0,1,.28-.47l.91-1.3c.79-1.12,2-2.72,3.47-4.66,3-3.89,7.29-9.14,12.43-14.63a5,5,0,0,1,2.48-1.48,2.33,2.33,0,0,1,1.47.24,3.63,3.63,0,0,1,1.09.92c1.09,1.44,2,2.84,2.93,4.2,1.79,2.71,3.27,5.23,4.46,7.38s2.07,3.94,2.65,5.18c.29.62.51,1.11.65,1.44A2,2,0,0,1,97.23,243.34Z" style="fill:#81E36A"></path><path d="M131.42,232.93a2.58,2.58,0,0,1-.38-.38l-1-1.13-3.69-4.26c-3.14-3.68-7.42-8.7-12.2-14.33l.38,0L113,214.41,98.72,228.84l-4.36,4.33-1.2,1.16c-.28.27-.44.4-.45.38a2.77,2.77,0,0,1,.37-.45L94.22,233l4.24-4.45c3.67-3.76,8.65-8.88,14.15-14.54l1.53-1.56.2-.2.18.22,12.08,14.44,3.57,4.35,1,1.2A1.82,1.82,0,0,1,131.42,232.93Z" style="fill:#81E36A"></path><path d="M95.06,203.58s.08-.07.25-.16a2.64,2.64,0,0,1,.81-.26,4.43,4.43,0,0,1,3,.57,4.35,4.35,0,0,1,1.57,1.54,3.88,3.88,0,0,1,.52,2.47,4.78,4.78,0,0,1-3.66,4.14,4.87,4.87,0,0,1-4.95-2.46,4.22,4.22,0,0,1-.54-2.48,4.9,4.9,0,0,1,.72-2.07,4.82,4.82,0,0,1,2.4-2,2.93,2.93,0,0,1,.83-.2c.19,0,.29,0,.29,0s-.4.09-1,.38a4.94,4.94,0,0,0-2.16,2,4.53,4.53,0,0,0-.61,1.92,3.85,3.85,0,0,0,.52,2.2,4.44,4.44,0,0,0,4.44,2.19,4.34,4.34,0,0,0,3.29-3.68,3.58,3.58,0,0,0-.42-2.21A4.06,4.06,0,0,0,99,204.05a4.39,4.39,0,0,0-2.83-.69C95.45,203.44,95.08,203.63,95.06,203.58Z" style="fill:#81E36A"></path><path d="M128.18,278.63a3,3,0,0,1-.64.1l-1.82.18-6.71.57c-2.85.21-6.2.54-10,.74a14.69,14.69,0,0,1-2.93-.2,11.44,11.44,0,0,1-2.9-1,26.29,26.29,0,0,0-2.83-1.23,4.55,4.55,0,0,0-3-.11c-2,.68-3.15,2.69-5.1,3.65a3.93,3.93,0,0,1-3.11.16,11.52,11.52,0,0,1-2.56-1.45,12.09,12.09,0,0,0-2.32-1.36,4.13,4.13,0,0,0-2.42-.24,15.18,15.18,0,0,0-4.15,1.9A7.39,7.39,0,0,1,74,281.44a3.35,3.35,0,0,1-2.55-1.4,2.34,2.34,0,0,1-.47-1.79,1.3,1.3,0,0,1,.25-.59s-.09.2-.15.61a2.33,2.33,0,0,0,.53,1.64,3.1,3.1,0,0,0,2.4,1.23A7,7,0,0,0,77.55,280a15.09,15.09,0,0,1,4.25-2,4.61,4.61,0,0,1,2.66.23,12.5,12.5,0,0,1,2.43,1.39A11.17,11.17,0,0,0,89.34,281a3.42,3.42,0,0,0,2.73-.15C93.84,280,95,278,97.22,277.2a5.06,5.06,0,0,1,3.31.11,27.33,27.33,0,0,1,2.89,1.26,10.93,10.93,0,0,0,2.78,1,14.16,14.16,0,0,0,2.82.21c3.73-.17,7.13-.46,10-.62l6.72-.41,1.84-.09A3,3,0,0,1,128.18,278.63Z" style="fill:#81E36A"></path><path d="M133.25,301.47c0,.14-16.87.26-37.68.26s-37.69-.12-37.69-.26,16.87-.26,37.69-.26S133.25,301.32,133.25,301.47Z" style="fill:#81E36A"></path><path d="M136.63,308.5c0,.14-17.32.26-38.67.26s-38.68-.12-38.68-.26,17.32-.26,38.68-.26S136.63,308.36,136.63,308.5Z" style="fill:#81E36A"></path><path d="M136.91,317.22c0,.14-17.25.26-38.53.26s-38.53-.12-38.53-.26S77.09,317,98.38,317,136.91,317.07,136.91,317.22Z" style="fill:#81E36A"></path><path d="M85.35,341.28a3.23,3.23,0,0,0-1.52,1.45,2.64,2.64,0,0,0-.07,2.16,2.46,2.46,0,0,0,4.33-.12,2.62,2.62,0,0,0-.19-2.16,3.24,3.24,0,0,0-1.59-1.36,1,1,0,0,1,.61.08,2.69,2.69,0,0,1,1.3,1.1,2.94,2.94,0,0,1,.32,2.51,2.91,2.91,0,0,1-5.22.14,2.92,2.92,0,0,1,.19-2.52,2.67,2.67,0,0,1,1.23-1.17C85.12,341.24,85.35,341.25,85.35,341.28Z" style="fill:#81E36A"></path><path d="M94.2,340.79a1.13,1.13,0,0,1,.67.07A3,3,0,0,1,96.32,342a3.15,3.15,0,0,1,.37,2.74,3.11,3.11,0,0,1-5.64,0,3.15,3.15,0,0,1,.39-2.74,2.85,2.85,0,0,1,1.44-1.16,1.07,1.07,0,0,1,.68-.07s-.23.08-.6.26a2.87,2.87,0,0,0-1.21,1.17,2.82,2.82,0,0,0-.25,2.37,2.66,2.66,0,0,0,4.74,0,2.79,2.79,0,0,0-.24-2.37,2.9,2.9,0,0,0-1.21-1.18C94.43,340.87,94.19,340.84,94.2,340.79Z" style="fill:#81E36A"></path><path d="M101.78,341.24a3.23,3.23,0,0,0-1.5,1.42,2.58,2.58,0,0,0-.1,2.12,2.26,2.26,0,0,0,2.13,1.27,2.28,2.28,0,0,0,2.14-1.26,2.64,2.64,0,0,0-.1-2.13,3.23,3.23,0,0,0-1.5-1.42,1,1,0,0,1,.6.11,2.68,2.68,0,0,1,1.23,1.14,2.93,2.93,0,0,1,.21,2.48,2.87,2.87,0,0,1-5.15,0,2.93,2.93,0,0,1,.21-2.48,2.68,2.68,0,0,1,1.23-1.14A1,1,0,0,1,101.78,341.24Z" style="fill:#81E36A"></path></g><g id="freepik--Character--inject-117"><polygon points="268 442.97 271.65 460.18 283.71 461.26 288.78 455.55 284.14 435 268 442.97" style="fill:#ffbe9d"></polygon><path d="M291.18,453.64l.05,1.34s23.06,8.5,23.43,12.82l-45.29,1.08.26-15.09C276.44,456.75,283.5,456.94,291.18,453.64Z" style="fill:#81E36A"></path><g style="opacity:0.6000000000000001"><path d="M274.33,458.5a1.85,1.85,0,0,0-1.23,2.14,1.8,1.8,0,0,0,2.12,1.24,1.94,1.94,0,0,0,1.28-2.27,1.84,1.84,0,0,0-2.33-1.05" style="fill:#fff"></path></g><path d="M269.37,468.88l.07-3.63,43.38.3s2.44,1.21,2.21,3.56Z" style="fill:#263238"></path><path d="M291.39,455.11c0,.22-1.11.34-2.18,1.08s-1.63,1.68-1.83,1.6.09-1.37,1.4-2.24S291.43,454.9,291.39,455.11Z" style="fill:#263238"></path><path d="M296.18,457c.06.21-.89.61-1.62,1.56s-.92,2-1.14,2-.39-1.26.54-2.42S296.17,456.75,296.18,457Z" style="fill:#263238"></path><path d="M299,462.58c-.2.05-.54-1.05,0-2.27s1.56-1.73,1.66-1.55-.52.84-.95,1.86S299.24,462.55,299,462.58Z" style="fill:#263238"></path><path d="M197.93,438.93c-.17.56,0,22,0,22l6.77,4,8.83-5.29,1.86-20.73Z" style="fill:#ffbe9d"></path><path d="M214.16,457.79s-12,8.53-17.85,1.14l-1.52,3.58L188,488a3.42,3.42,0,0,0,1.92,4.09,3.3,3.3,0,0,0,3.5-.67c4.95-4.7,23.06-22.11,22.89-24.47l-.07-6.26a3.19,3.19,0,0,0-2-2.93Z" style="fill:#81E36A"></path><path d="M190.46,492.29l25.81-27.49v1.37a3.56,3.56,0,0,1-1.22,3,271.52,271.52,0,0,1-21.68,23.17c-.8.76-2.31.09-2.9-.07Z" style="fill:#263238"></path><g style="opacity:0.6000000000000001"><path d="M212.49,460.73a2,2,0,0,0-.56,2.61,1.93,1.93,0,0,0,2.58.58,2.12,2.12,0,0,0,.58-2.77,2,2,0,0,0-2.76-.3" style="fill:#fff"></path></g><path d="M197.9,478.21c-.18.09-.9-1.6-2.82-2.52s-3.68-.53-3.72-.73.39-.32,1.14-.43a5.29,5.29,0,0,1,5.06,2.52C197.93,477.71,198,478.19,197.9,478.21Z" style="fill:#263238"></path><path d="M195.58,482.53c-.15.14-1.18-.92-2.85-1.4s-3.1-.22-3.15-.42,1.46-.84,3.35-.26S195.75,482.44,195.58,482.53Z" style="fill:#263238"></path><path d="M202.21,472.69c-.16.15-1.74-1.48-4.26-2.46s-4.78-.92-4.79-1.14,2.35-.61,5.05.48S202.36,472.6,202.21,472.69Z" style="fill:#263238"></path><path d="M202.78,464.92c-.09.2-1.87-.56-4.19-.65s-4.16.46-4.23.26,1.77-1.1,4.26-1S202.88,464.77,202.78,464.92Z" style="fill:#263238"></path><path d="M197.27,464.2a2.66,2.66,0,0,1,.18-1.21,8.49,8.49,0,0,1,1.54-3,3.74,3.74,0,0,1,1.92-1.47,1.33,1.33,0,0,1,1.42.56,2.23,2.23,0,0,1,.23,1.53,4.68,4.68,0,0,1-4.82,3.5,5.43,5.43,0,0,1-4.72-3.77,1.89,1.89,0,0,1,.2-1.56,1.3,1.3,0,0,1,1.47-.42,4.54,4.54,0,0,1,1.89,1.48,9.29,9.29,0,0,1,1.7,2.87,2.86,2.86,0,0,1,.28,1.19,14.92,14.92,0,0,0-2.35-3.73,4.39,4.39,0,0,0-1.68-1.25.7.7,0,0,0-.8.23,1.3,1.3,0,0,0-.08,1,4.84,4.84,0,0,0,4.13,3.22,4.06,4.06,0,0,0,4.14-2.91,1.52,1.52,0,0,0-.12-1.07.72.72,0,0,0-.78-.33,3.46,3.46,0,0,0-1.64,1.22A12.28,12.28,0,0,0,197.27,464.2Z" style="fill:#263238"></path><path d="M227.6,133.34a1.65,1.65,0,0,1,.57-.74,6.38,6.38,0,0,0,2.14-4.57,5,5,0,0,0-2.41-4.33c2.23-1.48,2.44-5,.7-7.07a6.72,6.72,0,0,0-7.37-1.59,3.8,3.8,0,0,0-1.65-4.23,7.52,7.52,0,0,0-4.71-1c-2.19.14-4.65,1-5.41,3.08-.43-1.28-2-1.83-3.31-1.82a7.35,7.35,0,0,0-7.06,6.8,6.75,6.75,0,0,0-4-.56,3.16,3.16,0,0,0-2.52,2.88,4,4,0,0,0-3.78-1,4.88,4.88,0,0,0-2.67,1.14,2.41,2.41,0,0,0-.64,2.68,3.83,3.83,0,0,0-1.54,7.48,4.88,4.88,0,0,0,1.68,8.15,1.33,1.33,0,0,0-.37,2.07,2.62,2.62,0,0,0,2.28.7l1.11,8.48a17.4,17.4,0,0,0,1.29,5.34,5.9,5.9,0,0,0,4.05,3.43l32.81-15.12a8.63,8.63,0,0,0,1.12-9.21A1.65,1.65,0,0,1,227.6,133.34Z" style="fill:#263238"></path><path d="M225.63,135.44c-1.26-6.79-9.46-12.73-16.2-11.19L189.52,131l.52,3.67,5.3,44.59c.86,7.09,5.6,12.58,12.71,11.92h0A13.19,13.19,0,0,0,219.85,176l-.62-3.81s8.57-2.51,9-14.14C228.44,152.25,227,143,225.63,135.44Z" style="fill:#ffbe9d"></path><path d="M224.15,144.41a1.48,1.48,0,0,1-1.23,1.65,1.41,1.41,0,0,1-1.67-1.14,1.48,1.48,0,0,1,1.23-1.65A1.41,1.41,0,0,1,224.15,144.41Z" style="fill:#263238"></path><path d="M224.2,140.52c-.16.22-1.37-.47-2.94-.28s-2.63,1.13-2.83.95,0-.44.51-.86a4,4,0,0,1,4.6-.54C224.07,140.1,224.28,140.43,224.2,140.52Z" style="fill:#263238"></path><path d="M210.21,146.71a1.48,1.48,0,0,1-1.23,1.65,1.41,1.41,0,0,1-1.67-1.14,1.47,1.47,0,0,1,1.23-1.64A1.41,1.41,0,0,1,210.21,146.71Z" style="fill:#263238"></path><path d="M208.84,143c-.16.21-1.37-.48-2.94-.28s-2.63,1.12-2.83.95.05-.44.51-.87a4,4,0,0,1,2.24-1,3.88,3.88,0,0,1,2.36.46C208.71,142.6,208.92,142.93,208.84,143Z" style="fill:#263238"></path><path d="M215.89,153.68a10.39,10.39,0,0,1,2.5-.78c.39-.09.77-.21.8-.49a2,2,0,0,0-.41-1.16l-1.56-2.92c-2.18-4.16-3.81-7.6-3.64-7.68s2.07,3.21,4.25,7.37l1.51,2.94a2.33,2.33,0,0,1,.4,1.55,1,1,0,0,1-.59.67,2.93,2.93,0,0,1-.67.18A11,11,0,0,1,215.89,153.68Z" style="fill:#263238"></path><path d="M219.23,172.17A29.19,29.19,0,0,1,203.46,170s5,7.48,16.31,5Z" style="fill:#eb996e"></path><path d="M215.68,157.55a2.88,2.88,0,0,0-2.67-.75,2.63,2.63,0,0,0-1.67,1.18,1.65,1.65,0,0,0,.1,1.89,1.9,1.9,0,0,0,2.13.27,5.87,5.87,0,0,0,1.86-1.44,1.81,1.81,0,0,0,.4-.52.54.54,0,0,0-.08-.59" style="fill:#eb996e"></path><path d="M211.39,155.33c.25-.05.46,1.66,2.07,2.69s3.41.63,3.45.87-.37.38-1.13.49a4.29,4.29,0,0,1-2.87-.62,3.73,3.73,0,0,1-1.63-2.28C211.13,155.78,211.27,155.33,211.39,155.33Z" style="fill:#263238"></path><path d="M224.69,150.14c1.35-.34,3-.85,3.44-1.42.65-.85,1-3.72,1.33-6.42,0-.35.06-.58.08-.65l-.55-.14a5,5,0,0,0-.1.72c-.16,1.45-.58,5.31-1.21,6.14s-8,2.38-8.76,2c-.47-.3-1.93-3.51-2.82-5.69l-.08-.2-2.92.29,0,.2c-.36,1.6-1.54,6-2.71,6.89-1.47,1.17-7.78,1.52-8.34.92a50.65,50.65,0,0,1-3.1-6.65l-.09-.21L190,147.41l.1.57,8.38-1.45c.49,1.18,2.47,5.92,3.12,6.62.91.95,7.63.31,9.11-.87s2.62-5.95,2.87-7l2.09-.21c.51,1.23,2.21,5.29,3,5.76s4.33-.29,4.74-.38S224.17,150.27,224.69,150.14Z" style="fill:#455a64"></path><path d="M213.06,145.75l.44-1.05c-4.16-1.72-11.13-1.75-15.14,1.19l.67.92C202.61,144.19,209.17,144.15,213.06,145.75Z" style="fill:#455a64"></path><path d="M229.26,142.28l.29-1.11c-4.93-1.25-10.85.14-14.09,3.3l.8.82C219.18,142.43,224.77,141.13,229.26,142.28Z" style="fill:#455a64"></path><path d="M208.63,137.34c-.1.45-1.7.44-3.52.88s-3.25,1.14-3.54.78c-.13-.17.08-.6.63-1.09a6.32,6.32,0,0,1,5.38-1.26C208.29,136.84,208.68,137.13,208.63,137.34Z" style="fill:#263238"></path><path d="M223.07,136c-.24.39-1.37.15-2.67.29s-2.38.53-2.68.19c-.14-.17,0-.55.44-1a3.77,3.77,0,0,1,2.09-.85,3.67,3.67,0,0,1,2.22.47C223,135.5,223.17,135.85,223.07,136Z" style="fill:#263238"></path><path d="M194.18,145.26a24.65,24.65,0,0,1-.51,7c-.21,1-.6,2.06-1.53,2.39a2.11,2.11,0,0,1-2.33-1,5.41,5.41,0,0,1-.74-2.57,73.38,73.38,0,0,1-.17-9.61" style="fill:#263238"></path><path d="M192,148.25c-.15-.05-6-1.31-5.39,4.52s6.34,4,6.33,3.85S192,148.25,192,148.25Z" style="fill:#ffbe9d"></path><path d="M191,154.59s-.1.09-.26.18a1,1,0,0,1-.76.1,2.54,2.54,0,0,1-1.4-2.14,3.28,3.28,0,0,1,.14-1.48,1.15,1.15,0,0,1,.68-.86.52.52,0,0,1,.63.22c.09.15.07.27.1.28s.11-.11,0-.35a.64.64,0,0,0-.27-.34.73.73,0,0,0-.57-.09,1.43,1.43,0,0,0-1,1,3.53,3.53,0,0,0-.18,1.67,2.65,2.65,0,0,0,1.74,2.36,1.1,1.1,0,0,0,.92-.25C191,154.74,191,154.6,191,154.59Z" style="fill:#eb996e"></path><path d="M219.33,122.86a5.58,5.58,0,0,1-6.93,7.72,2.15,2.15,0,0,1,.29,2.85,4.08,4.08,0,0,1-2.69,1.51,7.72,7.72,0,0,1-6.24-1.61,5.66,5.66,0,0,1-7.44,5.33,5.18,5.18,0,1,1-7.94,6,5.78,5.78,0,0,1-3.33-8.58,3.46,3.46,0,0,1-2.52-2.38,7.08,7.08,0,0,1-.07-3.6,11.07,11.07,0,0,1,4.67-7.29,7.45,7.45,0,0,1,8.35.15,1.66,1.66,0,0,0,.87.47c.46,0,.81-.39,1.08-.76,1.21-1.63,2.47-3.38,4.35-4.15a5.45,5.45,0,0,1,6.46,2,6.37,6.37,0,0,1,6.5-3.92c2.69.43,4.8,3.46,3.87,6" style="fill:#263238"></path><path d="M203.33,132.21s.07,0,.19,0l.55,0a7.91,7.91,0,0,0,2.06-.26,5.72,5.72,0,0,0,1.39-.55,4.47,4.47,0,0,0,1.34-1.15,4.18,4.18,0,0,0,.79-1.85,3.09,3.09,0,0,0-.44-2.19l-.17.18a7.74,7.74,0,0,0,4.82.84,7.49,7.49,0,0,0,2.58-.86,4.64,4.64,0,0,0,1.14-.85,2.67,2.67,0,0,0,.7-1.3,3.93,3.93,0,0,0-.07-1.71,10.84,10.84,0,0,0-.52-1.55,5.19,5.19,0,0,0-.78-1.4,1.85,1.85,0,0,0-1.39-.76l0,.28a4.7,4.7,0,0,0,3-.48,5.1,5.1,0,0,0,2-1.89,4.24,4.24,0,0,0,.58-2.39,4.91,4.91,0,0,0-2.71-4,3.11,3.11,0,0,0-1-.31,9.21,9.21,0,0,1,1,.39,4.86,4.86,0,0,1,2,2,4.73,4.73,0,0,1,.54,1.95,4,4,0,0,1-.58,2.24,4.73,4.73,0,0,1-1.92,1.78,4.4,4.4,0,0,1-2.81.44l0,.28a1.61,1.61,0,0,1,1.18.66,4.88,4.88,0,0,1,.73,1.33,5.61,5.61,0,0,1,.57,3.08,3.12,3.12,0,0,1-1.69,2,7.34,7.34,0,0,1-2.48.83,7.48,7.48,0,0,1-4.65-.78l-.46-.25.29.43a2.91,2.91,0,0,1,.42,2,3.92,3.92,0,0,1-.73,1.76,4.26,4.26,0,0,1-1.26,1.12,5.79,5.79,0,0,1-1.34.57,9.23,9.23,0,0,1-2,.32C203.59,132.2,203.33,132.19,203.33,132.21Z" style="fill:#fff"></path><path d="M221,127.48a1.12,1.12,0,0,0,.41.13,3,3,0,0,0,1.19,0,3,3,0,0,0,1.57-.84,1.4,1.4,0,0,0,.42-1,1.1,1.1,0,0,0-.66-1l-.08.28.11,0a4.66,4.66,0,0,0,3.76-1.1,4.32,4.32,0,0,0,.78-.93c.14-.24.2-.39.18-.4a8.65,8.65,0,0,1-1.1,1.17,4.66,4.66,0,0,1-3.57,1l-.1,0-1.43-.21,1.35.5a.8.8,0,0,1,.47.74,1.18,1.18,0,0,1-.33.83,3,3,0,0,1-1.42.82A5.28,5.28,0,0,1,221,127.48Z" style="fill:#fff"></path><path d="M210.06,156.09c.05,0,.1-.12.22-.27a1.69,1.69,0,0,1,.6-.48c.56-.25,1.12-.32,1.1-.42a1.7,1.7,0,0,0-1.23.15,1.38,1.38,0,0,0-.65.64C210,155.93,210,156.08,210.06,156.09Z" style="fill:#eb996e"></path><path d="M209.06,157.07c.09,0,.16-.45.32-1s.36-.94.29-1-.4.32-.57.89S209,157.07,209.06,157.07Z" style="fill:#eb996e"></path><path d="M185.22,261.78a104.87,104.87,0,0,0-8.43,21.71c-3.72,13.41-7.9,20.14-6.38,44.85.77,12.61,11.7,46.84,14.21,58.88,2.07,9.92,8.55,56.5,11.83,68.82h18.81l1.92-137.9s29.89,80.47,33.72,89.77S268,454.07,268,454.07l23.39-5.94s-14.29-66-17.85-82.38S260.32,303,256.22,289s-8-28.67-8-28.67Z" style="fill:#263238"></path><path d="M187.51,286.2a2,2,0,0,1-.2.68,10.25,10.25,0,0,1-.85,1.74,14.8,14.8,0,0,1-4.35,4.64,15.14,15.14,0,0,1-5.88,2.45,10.53,10.53,0,0,1-1.93.18c-.45,0-.71,0-.71-.06s1-.12,2.56-.48a16.52,16.52,0,0,0,10-6.93C187,287.09,187.42,286.16,187.51,286.2Z" style="fill:#455a64"></path><path d="M258.13,296.22a1.94,1.94,0,0,1-.68.19,11.58,11.58,0,0,1-1.94.2,13.11,13.11,0,0,1-2.89-.28,13.82,13.82,0,0,1-3.34-1.21,16.31,16.31,0,0,1-4.91-4.12,8.82,8.82,0,0,1-1.45-2.21c.07-.05.65.77,1.73,2a18.39,18.39,0,0,0,4.88,3.9,14,14,0,0,0,6,1.58C257.12,296.29,258.12,296.12,258.13,296.22Z" style="fill:#455a64"></path><path d="M217.48,288.43a5.57,5.57,0,0,1,.2,1.11c.1.72.21,1.77.32,3.06.23,2.59.41,6.18.37,10.14s-.28,7.56-.55,10.14c-.13,1.29-.26,2.33-.37,3.05a4.3,4.3,0,0,1-.23,1.11,5.78,5.78,0,0,1,0-1.13q.09-1.26.21-3.06c.18-2.59.37-6.16.4-10.11s-.09-7.53-.22-10.11c-.06-1.21-.11-2.23-.15-3.07A4.16,4.16,0,0,1,217.48,288.43Z" style="fill:#455a64"></path><path d="M255.44,286.4s-9.41-64.14-10.5-72.62l-4-32.43-16.11-.84-.5-6.2-32,2v5.79l-17,7.75,2.38,29.66s2,2.24,5.27,18.13-7.65,46.82-7.65,46.82Z" style="fill:#455a64"></path><path d="M196.4,183.63a13.43,13.43,0,0,1-.26-3.68,13.37,13.37,0,0,1,.26-3.68,12.92,12.92,0,0,1,.26,3.68A13,13,0,0,1,196.4,183.63Z" style="fill:#263238"></path><path d="M203.66,184a17,17,0,0,1-.26-4.14,16.89,16.89,0,0,1,.26-4.14,16.32,16.32,0,0,1,.26,4.14A16.39,16.39,0,0,1,203.66,184Z" style="fill:#263238"></path><path d="M211.13,183.12a14.45,14.45,0,0,1-.26-3.89,14.4,14.4,0,0,1,.26-3.88,14.9,14.9,0,0,1,.26,3.88A15,15,0,0,1,211.13,183.12Z" style="fill:#263238"></path><path d="M218,181.38a21.23,21.23,0,0,1,0-6.75,22,22,0,0,1,0,6.75Z" style="fill:#263238"></path><path d="M266.4,239.64a4.32,4.32,0,0,1-.25-1.75,12,12,0,0,1,2.91-7.88c.72-.82,1.28-1.21,1.32-1.16a15.88,15.88,0,0,0-4,10.79Z" style="fill:#263238"></path><g style="opacity:0.2"><path d="M184.29,229c-.42-2.39-1.49-4.61-2-7l-2.3,3.29c.87,3.69,1.63,6.66,2.5,10.35C184.33,234.14,184.71,231.39,184.29,229Z"></path></g><path d="M288.1,217.4l-17.93,11.3-10.58-27.1.25-.15s-1.54-2.94-5.9-10.59c-5.72-10-13-9.51-13-9.51l-8.76,13,9.3,19.93s17,31.71,21.77,33.3c16.44,5.47,34.61-32.34,34.61-32.34Z" style="fill:#455a64"></path><g style="opacity:0.2"><path d="M247.93,240.75a2.77,2.77,0,0,0-1.57-2.48,3.36,3.36,0,0,0-2.38.52l-66.75,34L177,278c10.79.17,21-4.54,30.74-9.15,10-4.7,19.91-9.41,29.58-14.68a29,29,0,0,0,7.45-5.19A10.55,10.55,0,0,0,247.93,240.75Z"></path></g><path d="M103.57,300.57h0a14.71,14.71,0,0,0,20.71,7.85L330,197l26.27-39.56-45.17,7.17-201,116.58A15.8,15.8,0,0,0,103.57,300.57Z" style="fill:#81E36A"></path><g style="opacity:0.30000000000000004"><polygon points="311.1 164.56 110.1 281.13 112.52 285.8 314.57 170.63 311.1 164.56"></polygon></g><g style="opacity:0.30000000000000004"><polygon points="326.47 190.65 121.95 303.94 124.28 308.42 330 196.95 326.47 190.65"></polygon></g><g style="opacity:0.30000000000000004"><polygon points="318.34 177.1 115.93 292.36 119.16 298.57 322.07 183.36 318.34 177.1"></polygon></g><path d="M110.1,281.14a15.8,15.8,0,0,0-6.53,19.43h0a14.71,14.71,0,0,0,20.71,7.85Z" style="fill:#263238"></path><g style="opacity:0.4"><polygon points="330 196.95 311.1 164.56 338.75 160.18 347.25 170.98 330 196.95" style="fill:#fff"></polygon></g><path d="M288.45,219.54l4-4.22s-.47-9.61,1.17-12l.86-1.41s-.85-4.68,1.66-5.76c.71-1.76,1.63-2.48,2.88-1.5,0,0-.71-3.52,2.57-4s4.22,14.41,4.22,14.41,1.64,6.68-2.11,6.68c0,0-2.11,2.35-4.45,2.58,0,0-.7,4-4,3.75Z" style="fill:#ffbe9d"></path><path d="M298.73,212.65s.2.12.38.47a2.73,2.73,0,0,1,.19,1.65,3.71,3.71,0,0,1-1.23,2.14,7.88,7.88,0,0,1-2.62,1.43,18.42,18.42,0,0,1-5.22,1,6.42,6.42,0,0,1-2.2-.11,34.83,34.83,0,0,0,7.25-1.41,8,8,0,0,0,2.47-1.3,3.52,3.52,0,0,0,1.19-1.85A3.36,3.36,0,0,0,298.73,212.65Z" style="fill:#eb996e"></path><path d="M301.65,207.36c-.16,0-.17-3-.89-6.58s-1.82-6.37-1.67-6.43a6.39,6.39,0,0,1,.86,1.77,27.3,27.3,0,0,1,1.83,9.28A6,6,0,0,1,301.65,207.36Z" style="fill:#eb996e"></path><path d="M298.82,209c-.16,0-.44-2.91-1.19-6.44s-1.66-6.32-1.51-6.37a23,23,0,0,1,2,6.26A23.28,23.28,0,0,1,298.82,209Z" style="fill:#eb996e"></path><path d="M304.06,208.88c.12-.07.61.85.29,2s-1.2,1.71-1.26,1.59.5-.74.76-1.73S303.92,208.93,304.06,208.88Z" style="fill:#eb996e"></path><path d="M294.89,209.55a20.46,20.46,0,0,1-.3-3.65,19.82,19.82,0,0,1-.15-3.66,9.57,9.57,0,0,1,.67,3.63A9.69,9.69,0,0,1,294.89,209.55Z" style="fill:#eb996e"></path><path d="M191.41,249.63a12,12,0,0,1,3.16-4.16c2.29-2,7.32-3.54,8-5.45s2.56-.42,2.11,1.95c-.28,1.52-3.4,5.49-3.4,5.49s3.66.91,6.1-.49,11-3.93,11.87-2.73-1.2,1.79-2.16,2.34c-.73.41-6.4,3.22-6.4,3.22s11.29-.38,12.71.16,0,1.94-.75,2c-.45,0-2.38,1.75-3.75,3a5.12,5.12,0,0,1-3.42,1.38l-2.62,0,8,.84s1.37,1.26-.54,1.92c-.86.29-25,3.77-26.88,3.88-3.24.19-8.37,1-8.37,1l1.31-15Z" style="fill:#ffbe9d"></path><path d="M222.83,252.07a16.93,16.93,0,0,1-5.36,1.63,17.56,17.56,0,0,1-5.6.33c0-.15,2.49-.3,5.51-.84S222.78,251.93,222.83,252.07Z" style="fill:#eb996e"></path><path d="M243.23,200.15c-.16,0-.63-2.26-1.59-5s-2-4.77-1.88-4.84a14.59,14.59,0,0,1,2.37,4.67A14.87,14.87,0,0,1,243.23,200.15Z" style="fill:#263238"></path><path d="M341.55,163.73a2,2,0,0,1-.2.21l-.59.58-2.21,2.1c-1.89,1.75-4.42,4.24-7.37,6.84a18,18,0,0,1-4.64,3,15.87,15.87,0,0,1-4.41,1.05,11,11,0,0,1-3.05-.1,4.62,4.62,0,0,1-1.07-.32s.38.12,1.09.24a11.61,11.61,0,0,0,3,0,16.45,16.45,0,0,0,4.34-1.08,18.67,18.67,0,0,0,4.59-3c2.93-2.59,5.49-5.06,7.4-6.78l2.25-2.06.62-.55A1.58,1.58,0,0,1,341.55,163.73Z" style="fill:#fafafa"></path><path d="M347.09,171.16a2.89,2.89,0,0,0-1-.62,4.49,4.49,0,0,0-3.08.14,12.46,12.46,0,0,0-4,2.45,57.23,57.23,0,0,0-4,4.14,19.52,19.52,0,0,1-4.41,3.75,12.26,12.26,0,0,1-4.48,1.52,12,12,0,0,1-3.19,0,7.19,7.19,0,0,1-1.15-.23l.3,0,.86.11a12.85,12.85,0,0,0,3.16-.08,12.3,12.3,0,0,0,4.4-1.54,19.32,19.32,0,0,0,4.36-3.72,53.61,53.61,0,0,1,4-4.15,12.38,12.38,0,0,1,4-2.44,4.58,4.58,0,0,1,3.16-.08,2.35,2.35,0,0,1,.73.47C347,171.08,347.09,171.16,347.09,171.16Z" style="fill:#fafafa"></path><path d="M333.89,185.86a4.54,4.54,0,0,1-1,.65,6.49,6.49,0,0,1-3.28.58,3.46,3.46,0,0,1-1.1-.24,1.24,1.24,0,0,1-.82-.91,1.36,1.36,0,0,1,.55-1.19,5.9,5.9,0,0,1,1.16-.75,9.19,9.19,0,0,1,5.95-.92,2.49,2.49,0,0,1,1.44.77,1.76,1.76,0,0,1,.29,1.56,5.63,5.63,0,0,1-1.59,2.47,9,9,0,0,1-4.35,2.35,8.53,8.53,0,0,1-3.33.11,6.25,6.25,0,0,1-.89-.21l-.3-.1s.42.13,1.2.23a8.75,8.75,0,0,0,3.29-.17,9,9,0,0,0,4.24-2.34,5.57,5.57,0,0,0,1.53-2.39,1.55,1.55,0,0,0-.25-1.38,2.3,2.3,0,0,0-1.32-.7,9.15,9.15,0,0,0-5.82.89,6.32,6.32,0,0,0-1.12.72,1.18,1.18,0,0,0-.51,1,1.09,1.09,0,0,0,.71.79,3.33,3.33,0,0,0,1.05.24,6.48,6.48,0,0,0,3.24-.51,7,7,0,0,0,.8-.41A1.5,1.5,0,0,1,333.89,185.86Z" style="fill:#fafafa"></path><path d="M332.12,193.39a3,3,0,0,1-1.58.91,3,3,0,0,1-1.83,0,10.79,10.79,0,0,0,1.77-.22A12.37,12.37,0,0,0,332.12,193.39Z" style="fill:#fafafa"></path><path d="M328.42,166a1.56,1.56,0,0,1,.15-.35,3.46,3.46,0,0,1,.67-.89,5.86,5.86,0,0,1,3.76-1.43c.43,0,.88,0,1.35,0a4.49,4.49,0,0,1,1.48.13.84.84,0,0,1,.52.63,1.27,1.27,0,0,1-.15.83,5.37,5.37,0,0,1-1.18,1.2,18,18,0,0,1-6.53,3.43,16.89,16.89,0,0,1-3.79.64,4.07,4.07,0,0,1-1.83-.28,2,2,0,0,1-1.1-1.38,3.83,3.83,0,0,1,1-3.05,8.43,8.43,0,0,1,2.14-1.84,17.14,17.14,0,0,1,3.73-1.61l1.06-.32.38-.1-.36.14-1.05.35a18.66,18.66,0,0,0-3.69,1.67,8.53,8.53,0,0,0-2.08,1.82,3.65,3.65,0,0,0-.92,2.9,1.76,1.76,0,0,0,1,1.24,3.84,3.84,0,0,0,1.73.26,17.65,17.65,0,0,0,3.74-.64A18,18,0,0,0,334.9,166a5.59,5.59,0,0,0,1.14-1.14.84.84,0,0,0-.27-1.22,4.82,4.82,0,0,0-1.42-.12c-.46,0-.91,0-1.34,0a5.81,5.81,0,0,0-3.71,1.34A4.29,4.29,0,0,0,328.42,166Z" style="fill:#fafafa"></path><path d="M314.61,169.87a1.12,1.12,0,0,1-.09-.25,4.23,4.23,0,0,1-.12-.73,5.67,5.67,0,0,1,.33-2.41,5.75,5.75,0,0,1,1.29-2.06,3.79,3.79,0,0,1,.57-.48c.14-.1.22-.15.23-.14a6.6,6.6,0,0,0-2.21,6.07Z" style="fill:#fafafa"></path><path d="M168.32,243.38l12.44-19.17h0l1.11-1.72h0l1.68-2.59-7-30.61s-6.52,3.71-10,8.49-7.63,13.59-7.63,13.59-12.17,27.84-14.17,32-5.23,11.85,0,16.16S185,264,185,264l2.36-17.59Z" style="fill:#455a64"></path><path d="M183.65,216.76c-.09,0,.18-1.31.3-3.41a27.79,27.79,0,0,0-.8-8.13,27.49,27.49,0,0,0-3.2-7.52c-1.1-1.79-2-2.79-1.89-2.85s.26.21.66.65a16.81,16.81,0,0,1,1.54,2,24.43,24.43,0,0,1,3.39,7.59,24.92,24.92,0,0,1,.67,8.29,18,18,0,0,1-.4,2.49A3,3,0,0,1,183.65,216.76Z" style="fill:#263238"></path></g><g id="freepik--Plant--inject-117"><path d="M379.41,389.68c-.08.1-.77-.31-1.54-.93s-1.32-1.19-1.23-1.29.77.31,1.53.92S379.49,389.57,379.41,389.68Z" style="fill:#263238"></path><path d="M400.3,358.46c.12-2.92.21-5.91-.72-8.68s-3.05-5.32-5.91-5.91c-3.26-.68-6.61,1.38-8.44,4.17s-2.45,6.16-3,9.45a334.22,334.22,0,0,0-4.1,68.64L391.5,428C397.36,404,399.23,383.1,400.3,358.46Z" style="fill:#455a64"></path><path d="M391.82,343.76a1.72,1.72,0,0,1-.07.22c-.05.16-.13.36-.22.6-.21.57-.51,1.34-.89,2.31-.18.5-.43,1.05-.63,1.67s-.41,1.3-.65,2l-.74,2.32-.69,2.65a114.38,114.38,0,0,0-2.58,13.21c-.73,5-1.2,10.59-1.57,16.43-.68,11.7-.79,22.32-1.09,30-.15,3.84-.28,6.94-.42,9.09-.07,1-.13,1.86-.17,2.47,0,.25,0,.47-.06.64a.68.68,0,0,1,0,.22,1,1,0,0,1,0-.22c0-.18,0-.39,0-.65,0-.6.05-1.43.08-2.47.09-2.15.17-5.25.27-9.09.21-7.68.27-18.3.95-30,.38-5.85.86-11.43,1.61-16.46a110.81,110.81,0,0,1,2.69-13.24c.25-.92.5-1.81.72-2.64s.54-1.6.79-2.32l.69-2c.21-.62.47-1.16.67-1.66l1-2.28.26-.58A.74.74,0,0,1,391.82,343.76Z" style="fill:#263238"></path><path d="M393.05,343.77a9.5,9.5,0,0,1,1.63,2.76,20.46,20.46,0,0,1,1.22,8.64c-.35,7.38-1,17.55-1.89,28.77s-1.86,21.38-2.65,28.71c-.4,3.67-.74,6.64-1,8.68-.13,1-.23,1.78-.3,2.36l-.09.61a.53.53,0,0,1-.05.21s0-.07,0-.21,0-.37,0-.62c.06-.58.13-1.37.22-2.37.2-2.09.48-5.05.83-8.69.7-7.34,1.63-17.49,2.51-28.72s1.59-21.39,2-28.74a20.84,20.84,0,0,0-1.05-8.56A19,19,0,0,0,393.05,343.77Z" style="fill:#263238"></path><path d="M402.31,378.33a7.39,7.39,0,0,1-2.53-.66,7.28,7.28,0,0,1-2.37-1.1,7.39,7.39,0,0,1,2.53.66A7.18,7.18,0,0,1,402.31,378.33Z" style="fill:#263238"></path><path d="M403.92,364.72a8.27,8.27,0,0,1-2.41,1.34,8,8,0,0,1-2.6.9,7.94,7.94,0,0,1,2.41-1.34A8.24,8.24,0,0,1,403.92,364.72Z" style="fill:#263238"></path><path d="M403.08,353.61c0,.14-.9.18-2,.11a4.31,4.31,0,0,1-1.95-.38,4.27,4.27,0,0,1,2-.1A4.39,4.39,0,0,1,403.08,353.61Z" style="fill:#263238"></path><path d="M389.31,346.5c-.12.07-.7-.66-1.31-1.63a4.71,4.71,0,0,1-.9-1.88c.11-.07.69.66,1.3,1.63A4.82,4.82,0,0,1,389.31,346.5Z" style="fill:#263238"></path><path d="M384.75,353.21a7.57,7.57,0,0,1-3.78-.08,4,4,0,0,1,1.9-.2C383.91,353,384.76,353.08,384.75,353.21Z" style="fill:#263238"></path><path d="M381.48,366.65a4.58,4.58,0,0,1-2-.55c-1.06-.42-1.87-.86-1.82-1a4.81,4.81,0,0,1,2,.55C380.72,366.09,381.53,366.53,381.48,366.65Z" style="fill:#263238"></path><path d="M381.13,378c0,.13-.73.4-1.69.6s-1.77.26-1.8.13.73-.39,1.7-.6S381.11,377.82,381.13,378Z" style="fill:#263238"></path><path d="M379.6,396.44c0,.13-.79.38-1.81.56a4,4,0,0,1-1.89.1c0-.13.79-.38,1.81-.57A3.89,3.89,0,0,1,379.6,396.44Z" style="fill:#263238"></path><path d="M378.57,406.64c.07.12-.61.59-1.5,1.07s-1.67.76-1.73.64.61-.59,1.51-1.07S378.51,406.52,378.57,406.64Z" style="fill:#263238"></path><path d="M386.91,418.22c-.12.07-.7-.74-1.31-1.81a5.3,5.3,0,0,1-.9-2c.11-.07.7.74,1.31,1.81A5.49,5.49,0,0,1,386.91,418.22Z" style="fill:#263238"></path><path d="M389.31,399c.09.09-.56.88-1.46,1.76s-1.7,1.52-1.79,1.43.56-.89,1.46-1.77S389.22,398.88,389.31,399Z" style="fill:#263238"></path><path d="M388.78,388.88c-.1.09-.7-.41-1.36-1.11s-1.1-1.35-1-1.44.7.41,1.35,1.11S388.88,388.79,388.78,388.88Z" style="fill:#263238"></path><path d="M390.43,376c.1.09-.45.86-1.22,1.72s-1.47,1.49-1.57,1.4.45-.86,1.22-1.72S390.33,375.89,390.43,376Z" style="fill:#263238"></path><path d="M391.36,366.61c-.09.09-.85-.5-1.7-1.33s-1.45-1.58-1.36-1.68.85.5,1.7,1.34S391.45,366.52,391.36,366.61Z" style="fill:#263238"></path><path d="M393.19,354a4.76,4.76,0,0,1-.85,1.9c-.59,1-1.15,1.71-1.26,1.65s.26-.92.85-1.9S393.08,353.88,393.19,354Z" style="fill:#263238"></path><path d="M396.63,342.22a4.59,4.59,0,0,1-.76,1.9c-.53,1-1.05,1.73-1.17,1.67a4.59,4.59,0,0,1,.76-1.9C396,342.91,396.51,342.16,396.63,342.22Z" style="fill:#263238"></path><path d="M400.53,347.55c.06.12-.48.49-1.19.83s-1.34.53-1.4.41.48-.49,1.19-.84S400.47,347.43,400.53,347.55Z" style="fill:#263238"></path><path d="M400.62,389.68a5.6,5.6,0,0,1-2.61-.63,5.47,5.47,0,0,1-2.26-1.45,12.46,12.46,0,0,1,2.45,1A12.19,12.19,0,0,1,400.62,389.68Z" style="fill:#263238"></path><path d="M399,398.6c0,.13-.78.39-1.8.59s-1.86.25-1.88.12.78-.39,1.79-.59A4,4,0,0,1,399,398.6Z" style="fill:#263238"></path><path d="M397.07,413.9a5.12,5.12,0,0,1-2-1.78,5.22,5.22,0,0,1-1.28-2.39,16.06,16.06,0,0,1,1.65,2.09A15.84,15.84,0,0,1,397.07,413.9Z" style="fill:#263238"></path><path d="M375.61,420.9c-.09-.1.45-.71,1.21-1.35s1.43-1.09,1.52-1-.46.7-1.21,1.35S375.69,421,375.61,420.9Z" style="fill:#263238"></path><path d="M369.44,387.5c-.87-2.71-2.5-5.87-5.35-5.91a4.74,4.74,0,0,0-4,2.68,9.92,9.92,0,0,0-1.08,4.91,128.19,128.19,0,0,0,6.12,35.56h10.43A124.07,124.07,0,0,0,369.44,387.5Z" style="fill:#455a64"></path><path d="M350.58,370.42a11.59,11.59,0,0,0-10.85-9.27c-4.61.81-6.4,5.35-6.94,10s.89,9.28,2.32,13.73q6.86,21.47,13.72,42.92l13-1.41C357.69,407.21,355.34,389.44,350.58,370.42Z" style="fill:#455a64"></path><path d="M364.09,381.59a9.53,9.53,0,0,0-.89,1.47,9.78,9.78,0,0,0-.48,4.61c.2,2,.43,4.37.76,7s.81,5.49,1.39,8.49c1.18,6,2.51,11.36,3.35,15.28.43,1.95.75,3.54,1,4.65.08.5.16.92.22,1.27a1.53,1.53,0,0,1,0,.45,1.8,1.8,0,0,1-.14-.43l-.3-1.26c-.28-1.16-.65-2.71-1.1-4.61-.93-3.89-2.31-9.25-3.49-15.26-.59-3-1.05-5.89-1.37-8.52-.16-1.32-.27-2.57-.38-3.75s-.22-2.26-.28-3.27A9.41,9.41,0,0,1,363,383,4.06,4.06,0,0,1,364.09,381.59Z" style="fill:#263238"></path><path d="M339.92,360.78a17.17,17.17,0,0,0-1.57,2.11,14.86,14.86,0,0,0-2,6.79,31.34,31.34,0,0,0,1.6,10.44c1.14,3.86,2.39,8.09,3.7,12.54,2.59,8.89,4.93,16.93,6.64,22.82l2,6.93.51,1.89a4.8,4.8,0,0,1,.15.67,3.43,3.43,0,0,1-.24-.64l-.6-1.87c-.51-1.68-1.23-4-2.1-6.89l-6.78-22.78c-1.3-4.45-2.53-8.69-3.66-12.55A31,31,0,0,1,336,369.65a14.68,14.68,0,0,1,2.15-6.86A8,8,0,0,1,339.92,360.78Z" style="fill:#263238"></path><path d="M359,425a4.92,4.92,0,0,1-.29-.62c-.17-.42-.45-1-.74-1.82-.62-1.6-1.41-3.95-2.23-6.89s-1.64-6.5-2.42-10.46-1.57-8.33-2.44-12.9-1.91-8.89-3.07-12.74a71.26,71.26,0,0,0-3.78-10,52.71,52.71,0,0,0-3.5-6.3c-.45-.73-.85-1.25-1.09-1.63a4.73,4.73,0,0,1-.37-.58,2.87,2.87,0,0,1,.44.52c.27.37.7.87,1.17,1.59a46,46,0,0,1,3.65,6.26,67.44,67.44,0,0,1,3.9,10,130.68,130.68,0,0,1,3.12,12.77c.85,4.58,1.66,8.94,2.4,12.91s1.54,7.51,2.32,10.46,1.51,5.3,2.07,6.91c.27.81.52,1.43.66,1.85A3,3,0,0,1,359,425Z" style="fill:#263238"></path><path d="M335.34,382.73c0,.13-.68.41-1.58.63s-1.65.29-1.69.16.68-.41,1.58-.63S335.31,382.6,335.34,382.73Z" style="fill:#263238"></path><path d="M334,373.88a6.27,6.27,0,0,1-2.18.23,6.45,6.45,0,0,1-2.2-.06,4.36,4.36,0,0,1,2.18-.41A4.44,4.44,0,0,1,334,373.88Z" style="fill:#263238"></path><path d="M335.43,365.79c-.09.1-.79-.35-1.58-1s-1.35-1.28-1.26-1.38.79.35,1.57,1S335.51,365.69,335.43,365.79Z" style="fill:#263238"></path><path d="M339.38,358.31c.13,0,.1.66.08,1.42s0,1.4-.16,1.42-.34-.62-.32-1.43S339.26,358.28,339.38,358.31Z" style="fill:#263238"></path><path d="M347.47,361.84c.11.07-.21.71-.71,1.42s-1,1.23-1.1,1.16.21-.72.71-1.43S347.36,361.76,347.47,361.84Z" style="fill:#263238"></path><path d="M352.71,371c.05.12-.62.51-1.5.87s-1.63.55-1.68.43.63-.51,1.5-.87S352.66,370.83,352.71,371Z" style="fill:#263238"></path><path d="M355.9,380.33a4.06,4.06,0,0,1-2.06.9,3.94,3.94,0,0,1-2.24.07,9,9,0,0,1,2.14-.54A8.26,8.26,0,0,1,355.9,380.33Z" style="fill:#263238"></path><path d="M341.28,377.66c-.12,0,0-.68.21-1.44s.53-1.35.66-1.31,0,.69-.21,1.45S341.41,377.7,341.28,377.66Z" style="fill:#263238"></path><path d="M343.32,389.44a4.45,4.45,0,0,1,.59-1.95c.44-1,.9-1.81,1-1.76a4.55,4.55,0,0,1-.58,1.95C343.9,388.7,343.44,389.49,343.32,389.44Z" style="fill:#263238"></path><path d="M338.29,392.66c-.05.13-.88-.1-1.87-.41s-1.8-.6-1.77-.73a3.63,3.63,0,0,1,1.91.28C337.58,392.11,338.34,392.54,338.29,392.66Z" style="fill:#263238"></path><path d="M341.19,402.26c.08.11-.48.64-1.24,1.18s-1.44.9-1.52.79.48-.64,1.24-1.18S341.11,402.15,341.19,402.26Z" style="fill:#263238"></path><path d="M343.52,411.83c0,.13-.66.41-1.54.62s-1.61.28-1.64.16.65-.41,1.53-.62S343.49,411.7,343.52,411.83Z" style="fill:#263238"></path><path d="M356.15,388.32c.07.11-.52.58-1.37.9s-1.61.36-1.63.24.65-.37,1.46-.68S356.09,388.21,356.15,388.32Z" style="fill:#263238"></path><path d="M358,403.21c-.06.12-.76-.09-1.56-.47s-1.42-.78-1.37-.9.76.09,1.57.47S358,403.09,358,403.21Z" style="fill:#263238"></path><path d="M361.15,413.87a5.1,5.1,0,0,1-2.07-.55,5,5,0,0,1-1.89-1,5,5,0,0,1,2.07.55A5.09,5.09,0,0,1,361.15,413.87Z" style="fill:#263238"></path><path d="M344,422.22c-.07-.12.78-.7,1.77-1.47s1.74-1.46,1.84-1.37-.53.94-1.55,1.74A4.3,4.3,0,0,1,344,422.22Z" style="fill:#263238"></path><path d="M352.45,416.8c-.13,0-.32-.7-.64-1.53s-.66-1.49-.55-1.57.65.49,1,1.39S352.58,416.79,352.45,416.8Z" style="fill:#263238"></path><path d="M350.22,404c-.08.11-.62-.15-1.22-.58s-1-.85-.93-1,.62.15,1.21.58S350.3,403.88,350.22,404Z" style="fill:#263238"></path><path d="M369.86,383.9c.08.11-.45.63-1.19,1.17s-1.38.89-1.46.79.45-.63,1.18-1.17S369.78,383.8,369.86,383.9Z" style="fill:#263238"></path><path d="M372.82,392c0,.13-.82.31-1.85.19s-1.8-.45-1.76-.58.84,0,1.81.11A5.58,5.58,0,0,1,372.82,392Z" style="fill:#263238"></path><path d="M360.1,393.81c0,.12-.74.4-1.74.46s-1.79-.1-1.78-.23.8-.18,1.75-.24S360.07,393.68,360.1,393.81Z" style="fill:#263238"></path><path d="M361.19,386.16c0,.12-.79.14-1.64-.25s-1.34-1-1.25-1.08.68.3,1.45.65S361.21,386,361.19,386.16Z" style="fill:#263238"></path><path d="M373.91,400.68c-.07.11-.87-.26-1.78-.84s-1.59-1.13-1.52-1.24.87.27,1.78.84S374,400.57,373.91,400.68Z" style="fill:#263238"></path><rect x="337.08" y="423.39" width="67.88" height="12.03" style="fill:#81E36A"></rect><polygon points="342.15 433.03 350.4 468.98 390.85 468.98 399.88 433.03 342.15 433.03" style="fill:#81E36A"></polygon><path d="M404.92,435.43c0,.13-15.32.24-34.2.24s-34.19-.11-34.19-.24,15.3-.24,34.19-.24S404.92,435.3,404.92,435.43Z" style="fill:#263238"></path><path d="M367.17,394.07c-.11.07-.58-.47-1-1.21s-.74-1.39-.63-1.46.58.47,1,1.21S367.28,394,367.17,394.07Z" style="fill:#263238"></path><path d="M367.19,403.75a3.92,3.92,0,0,1,.36-1.83c.32-1,.68-1.72.81-1.67a3.88,3.88,0,0,1-.36,1.82C367.68,403,367.32,403.79,367.19,403.75Z" style="fill:#263238"></path><path d="M370.51,413.91c-.12.06-.63-.75-1.14-1.81a5.05,5.05,0,0,1-.7-2c.12-.06.63.75,1.13,1.81A5.12,5.12,0,0,1,370.51,413.91Z" style="fill:#263238"></path><path d="M363.34,422.09c-.1-.09.3-.72.9-1.41s1.17-1.18,1.27-1.09-.31.71-.91,1.4S363.44,422.17,363.34,422.09Z" style="fill:#263238"></path><path d="M361.83,407.24c0,.13-.67.13-1.46,0s-1.4-.36-1.37-.49.67-.12,1.46,0S361.85,407.11,361.83,407.24Z" style="fill:#263238"></path></g><g id="freepik--Floor--inject-117"><path d="M459.79,469c0,.14-97.07.26-216.78.26s-216.8-.12-216.8-.26,97.05-.26,216.8-.26S459.79,468.84,459.79,469Z" style="fill:#263238"></path></g></svg>